{
  "accessors": [
    {
      "bufferView": 2,
      "componentType": 5126,
      "count": 6914,
      "max": [
        6.468308448791504,
        0.8845869302749634,
        1.0014369487762451
      ],
      "min": [
        -13.745243072509766,
        -0.494930624961853,
        -0.9995821714401245
      ],
      "type": "VEC3"
    },
    {
      "bufferView": 2,
      "byteOffset": 82968,
      "componentType": 5126,
      "count": 6914,
      "max": [
        0.9999878406524658,
        0.9999949932098389,
        0.9999999403953552
      ],
      "min": [
        -0.9999980926513672,
        -0.9999948740005493,
        -0.9999997019767761
      ],
      "type": "VEC3"
    },
    {
      "bufferView": 3,
      "componentType": 5126,
      "count": 6914,
      "max": [
        0.9911595582962036,
        0.9999998211860657,
        1.0,
        1.0
      ],
      "min": [
        -0.995297908782959,
        -0.9999995231628418,
        -1.0,
        1.0
      ],
      "type": "VEC4"
    },
    {
      "bufferView": 1,
      "componentType": 5126,
      "count": 6914,
      "max": [
        0.7337937951087952,
        1.0
      ],
      "min": [
        0.0,
        0.0
      ],
      "type": "VEC2"
    },
    {
      "bufferView": 0,
      "componentType": 5125,
      "count": 38400,
      "type": "SCALAR"
    }
  ],
  "asset": {
    "extras": {
      "author": "LBOrion (https://sketchfab.com/LBOrion)",
      "license": "CC-BY-4.0 (http://creativecommons.org/licenses/by/4.0/)",
      "source": "https://sketchfab.com/3d-models/fork-769b896bc0fd427b9884f287da737a32",
      "title": "Fork"
    },
    "generator": "Sketchfab-14.54.0",
    "version": "2.0"
  },
  "bufferViews": [
    {
      "buffer": 0,
      "byteLength": 153600,
      "name": "floatBufferViews",
      "target": 34963
    },
    {
      "buffer": 0,
      "byteLength": 55312,
      "byteOffset": 153600,
      "byteStride": 8,
      "name": "floatBufferViews",
      "target": 34962
    },
    {
      "buffer": 0,
      "byteLength": 165936,
      "byteOffset": 208912,
      "byteStride": 12,
      "name": "floatBufferViews",
      "target": 34962
    },
    {
      "buffer": 0,
      "byteLength": 110624,
      "byteOffset": 374848,
      "byteStride": 16,
      "name": "floatBufferViews",
      "target": 34962
    }
  ],
  "buffers": [
    {
      "byteLength": 485472,
      "uri": "scene.bin"
    }
  ],
  "images": [
    {
      "uri": "textures/Material.001_normal.png"
    }
  ],
  "materials": [
    {
      "doubleSided": true,
      "name": "Material.001",
      "normalTexture": {
        "index": 0
      },
      "pbrMetallicRoughness": {
        "roughnessFactor": 0.2
      }
    }
  ],
  "meshes": [
    {
      "name": "Object_0",
      "primitives": [
        {
          "attributes": {
            "NORMAL": 1,
            "POSITION": 0,
            "TANGENT": 2,
            "TEXCOORD_0": 3
          },
          "indices": 4,
          "material": 0,
          "mode": 4
        }
      ]
    }
  ],
  "nodes": [
    {
      "children": [
        1
      ],
      "matrix": [
        1.0,
        0.0,
        0.0,
        0.0,
        0.0,
        2.220446049250313e-16,
        -1.0,
        0.0,
        0.0,
        1.0,
        2.220446049250313e-16,
        0.0,
        0.0,
        0.0,
        0.0,
        1.0
      ],
      "name": "Sketchfab_model"
    },
    {
      "children": [
        2
      ],
      "name": "root"
    },
    {
      "children": [
        3
      ],
      "matrix": [
        1.0,
        0.0,
        0.0,
        0.0,
        0.0,
        2.220446049250313e-16,
        1.0,
        0.0,
        0.0,
        -1.0,
        2.220446049250313e-16,
        0.0,
        0.0,
        0.0,
        0.0,
        1.0
      ],
      "name": "GLTF_SceneRootNode"
    },
    {
      "children": [
        4
      ],
      "matrix": [
        0.011031975969672203,
        0.0,
        0.0,
        0.0,
        0.0,
        0.011031975969672203,
        0.0,
        0.0,
        0.0,
        0.0,
        0.011031975969672203,
        0.0,
        0.0,
        0.0,
        0.0,
        1.0
      ],
      "name": "Fork.001_0"
    },
    {
      "mesh": 0,
      "name": "Object_4"
    }
  ],
  "samplers": [
    {
      "magFilter": 9729,
      "minFilter": 9987,
      "wrapS": 10497,
      "wrapT": 10497
    }
  ],
  "scene": 0,
  "scenes": [
    {
      "name": "Sketchfab_Scene",
      "nodes": [
        0
      ]
    }
  ],
  "textures": [
    {
      "sampler": 0,
      "source": 0
    }
  ]
}
