<?xml version="1.0" encoding="utf-8" standalone="no"?>
<!DOCTYPE svg PUBLIC "-//W3C//DTD SVG 1.1//EN"
  "http://www.w3.org/Graphics/SVG/1.1/DTD/svg11.dtd">
<svg xmlns:xlink="http://www.w3.org/1999/xlink" width="1167.59952pt" height="375.59952pt" viewBox="0 0 1167.59952 375.59952" xmlns="http://www.w3.org/2000/svg" version="1.1">
 <metadata>
  <rdf:RDF xmlns:dc="http://purl.org/dc/elements/1.1/" xmlns:cc="http://creativecommons.org/ns#" xmlns:rdf="http://www.w3.org/1999/02/22-rdf-syntax-ns#">
   <cc:Work>
    <dc:type rdf:resource="http://purl.org/dc/dcmitype/StillImage"/>
    <dc:date>2026-05-26T14:32:40.416682</dc:date>
    <dc:format>image/svg+xml</dc:format>
    <dc:creator>
     <cc:Agent>
      <dc:title>Matplotlib v3.10.9, https://matplotlib.org/</dc:title>
     </cc:Agent>
    </dc:creator>
   </cc:Work>
  </rdf:RDF>
 </metadata>
 <defs>
  <style type="text/css">*{stroke-linejoin: round; stroke-linecap: butt}</style>
 </defs>
 <g id="figure_1">
  <g id="patch_1">
   <path d="M 0 375.59952 
L 1167.59952 375.59952 
L 1167.59952 0 
L 0 0 
z
" style="fill: #ffffff"/>
  </g>
  <g id="axes_1">
   <g id="patch_2">
    <path d="M 45.203125 336.841395 
L 400.615257 336.841395 
L 400.615257 46.538449 
L 45.203125 46.538449 
z
" style="fill: #ffffff"/>
   </g>
   <g id="matplotlib.axis_1">
    <g id="xtick_1">
     <g id="line2d_1">
      <path d="M 97.258437 336.841395 
L 97.258437 46.538449 
" clip-path="url(#p6840d37609)" style="fill: none; stroke: #cccccc; stroke-opacity: 0.35; stroke-width: 0.6; stroke-linecap: round"/>
     </g>
     <g id="line2d_2"/>
     <g id="text_1">
      <!-- 0.2 -->
      <g style="fill: #262626" transform="translate(89.306875 347.939832) scale(0.1 -0.1)">
       <defs>
        <path id="DejaVuSans-30" d="M 2034 4250 
Q 1547 4250 1301 3770 
Q 1056 3291 1056 2328 
Q 1056 1369 1301 889 
Q 1547 409 2034 409 
Q 2525 409 2770 889 
Q 3016 1369 3016 2328 
Q 3016 3291 2770 3770 
Q 2525 4250 2034 4250 
z
M 2034 4750 
Q 2819 4750 3233 4129 
Q 3647 3509 3647 2328 
Q 3647 1150 3233 529 
Q 2819 -91 2034 -91 
Q 1250 -91 836 529 
Q 422 1150 422 2328 
Q 422 3509 836 4129 
Q 1250 4750 2034 4750 
z
" transform="scale(0.015625)"/>
        <path id="DejaVuSans-2e" d="M 684 794 
L 1344 794 
L 1344 0 
L 684 0 
L 684 794 
z
" transform="scale(0.015625)"/>
        <path id="DejaVuSans-32" d="M 1228 531 
L 3431 531 
L 3431 0 
L 469 0 
L 469 531 
Q 828 903 1448 1529 
Q 2069 2156 2228 2338 
Q 2531 2678 2651 2914 
Q 2772 3150 2772 3378 
Q 2772 3750 2511 3984 
Q 2250 4219 1831 4219 
Q 1534 4219 1204 4116 
Q 875 4013 500 3803 
L 500 4441 
Q 881 4594 1212 4672 
Q 1544 4750 1819 4750 
Q 2544 4750 2975 4387 
Q 3406 4025 3406 3419 
Q 3406 3131 3298 2873 
Q 3191 2616 2906 2266 
Q 2828 2175 2409 1742 
Q 1991 1309 1228 531 
z
" transform="scale(0.015625)"/>
       </defs>
       <use xlink:href="#DejaVuSans-30"/>
       <use xlink:href="#DejaVuSans-2e" transform="translate(63.623047 0)"/>
       <use xlink:href="#DejaVuSans-32" transform="translate(95.410156 0)"/>
      </g>
     </g>
    </g>
    <g id="xtick_2">
     <g id="line2d_3">
      <path d="M 169.058868 336.841395 
L 169.058868 46.538449 
" clip-path="url(#p6840d37609)" style="fill: none; stroke: #cccccc; stroke-opacity: 0.35; stroke-width: 0.6; stroke-linecap: round"/>
     </g>
     <g id="line2d_4"/>
     <g id="text_2">
      <!-- 0.4 -->
      <g style="fill: #262626" transform="translate(161.107305 347.939832) scale(0.1 -0.1)">
       <defs>
        <path id="DejaVuSans-34" d="M 2419 4116 
L 825 1625 
L 2419 1625 
L 2419 4116 
z
M 2253 4666 
L 3047 4666 
L 3047 1625 
L 3713 1625 
L 3713 1100 
L 3047 1100 
L 3047 0 
L 2419 0 
L 2419 1100 
L 313 1100 
L 313 1709 
L 2253 4666 
z
" transform="scale(0.015625)"/>
       </defs>
       <use xlink:href="#DejaVuSans-30"/>
       <use xlink:href="#DejaVuSans-2e" transform="translate(63.623047 0)"/>
       <use xlink:href="#DejaVuSans-34" transform="translate(95.410156 0)"/>
      </g>
     </g>
    </g>
    <g id="xtick_3">
     <g id="line2d_5">
      <path d="M 240.859298 336.841395 
L 240.859298 46.538449 
" clip-path="url(#p6840d37609)" style="fill: none; stroke: #cccccc; stroke-opacity: 0.35; stroke-width: 0.6; stroke-linecap: round"/>
     </g>
     <g id="line2d_6"/>
     <g id="text_3">
      <!-- 0.6 -->
      <g style="fill: #262626" transform="translate(232.907736 347.939832) scale(0.1 -0.1)">
       <defs>
        <path id="DejaVuSans-36" d="M 2113 2584 
Q 1688 2584 1439 2293 
Q 1191 2003 1191 1497 
Q 1191 994 1439 701 
Q 1688 409 2113 409 
Q 2538 409 2786 701 
Q 3034 994 3034 1497 
Q 3034 2003 2786 2293 
Q 2538 2584 2113 2584 
z
M 3366 4563 
L 3366 3988 
Q 3128 4100 2886 4159 
Q 2644 4219 2406 4219 
Q 1781 4219 1451 3797 
Q 1122 3375 1075 2522 
Q 1259 2794 1537 2939 
Q 1816 3084 2150 3084 
Q 2853 3084 3261 2657 
Q 3669 2231 3669 1497 
Q 3669 778 3244 343 
Q 2819 -91 2113 -91 
Q 1303 -91 875 529 
Q 447 1150 447 2328 
Q 447 3434 972 4092 
Q 1497 4750 2381 4750 
Q 2619 4750 2861 4703 
Q 3103 4656 3366 4563 
z
" transform="scale(0.015625)"/>
       </defs>
       <use xlink:href="#DejaVuSans-30"/>
       <use xlink:href="#DejaVuSans-2e" transform="translate(63.623047 0)"/>
       <use xlink:href="#DejaVuSans-36" transform="translate(95.410156 0)"/>
      </g>
     </g>
    </g>
    <g id="xtick_4">
     <g id="line2d_7">
      <path d="M 312.659729 336.841395 
L 312.659729 46.538449 
" clip-path="url(#p6840d37609)" style="fill: none; stroke: #cccccc; stroke-opacity: 0.35; stroke-width: 0.6; stroke-linecap: round"/>
     </g>
     <g id="line2d_8"/>
     <g id="text_4">
      <!-- 0.8 -->
      <g style="fill: #262626" transform="translate(304.708167 347.939832) scale(0.1 -0.1)">
       <defs>
        <path id="DejaVuSans-38" d="M 2034 2216 
Q 1584 2216 1326 1975 
Q 1069 1734 1069 1313 
Q 1069 891 1326 650 
Q 1584 409 2034 409 
Q 2484 409 2743 651 
Q 3003 894 3003 1313 
Q 3003 1734 2745 1975 
Q 2488 2216 2034 2216 
z
M 1403 2484 
Q 997 2584 770 2862 
Q 544 3141 544 3541 
Q 544 4100 942 4425 
Q 1341 4750 2034 4750 
Q 2731 4750 3128 4425 
Q 3525 4100 3525 3541 
Q 3525 3141 3298 2862 
Q 3072 2584 2669 2484 
Q 3125 2378 3379 2068 
Q 3634 1759 3634 1313 
Q 3634 634 3220 271 
Q 2806 -91 2034 -91 
Q 1263 -91 848 271 
Q 434 634 434 1313 
Q 434 1759 690 2068 
Q 947 2378 1403 2484 
z
M 1172 3481 
Q 1172 3119 1398 2916 
Q 1625 2713 2034 2713 
Q 2441 2713 2670 2916 
Q 2900 3119 2900 3481 
Q 2900 3844 2670 4047 
Q 2441 4250 2034 4250 
Q 1625 4250 1398 4047 
Q 1172 3844 1172 3481 
z
" transform="scale(0.015625)"/>
       </defs>
       <use xlink:href="#DejaVuSans-30"/>
       <use xlink:href="#DejaVuSans-2e" transform="translate(63.623047 0)"/>
       <use xlink:href="#DejaVuSans-38" transform="translate(95.410156 0)"/>
      </g>
     </g>
    </g>
    <g id="xtick_5">
     <g id="line2d_9">
      <path d="M 384.46016 336.841395 
L 384.46016 46.538449 
" clip-path="url(#p6840d37609)" style="fill: none; stroke: #cccccc; stroke-opacity: 0.35; stroke-width: 0.6; stroke-linecap: round"/>
     </g>
     <g id="line2d_10"/>
     <g id="text_5">
      <!-- 1.0 -->
      <g style="fill: #262626" transform="translate(376.508597 347.939832) scale(0.1 -0.1)">
       <defs>
        <path id="DejaVuSans-31" d="M 794 531 
L 1825 531 
L 1825 4091 
L 703 3866 
L 703 4441 
L 1819 4666 
L 2450 4666 
L 2450 531 
L 3481 531 
L 3481 0 
L 794 0 
L 794 531 
z
" transform="scale(0.015625)"/>
       </defs>
       <use xlink:href="#DejaVuSans-31"/>
       <use xlink:href="#DejaVuSans-2e" transform="translate(63.623047 0)"/>
       <use xlink:href="#DejaVuSans-30" transform="translate(95.410156 0)"/>
      </g>
     </g>
    </g>
    <g id="text_6">
     <!-- $\beta$ -->
     <g style="fill: #262626" transform="translate(219.389191 362.48952) scale(0.11 -0.11)">
      <defs>
       <path id="DejaVuSans-Oblique-3b2" d="M 872 216 
L 572 -1331 
L -6 -1331 
L 928 3478 
Q 1206 4903 2538 4903 
Q 3888 4903 3659 3700 
Q 3503 2844 2894 2531 
Q 3713 2250 3553 1416 
Q 3272 -69 1759 -66 
Q 1097 -63 872 216 
z
M 1019 966 
Q 1259 422 1875 425 
Q 2775 425 2966 1406 
Q 3138 2288 1675 2219 
L 1778 2750 
Q 2909 2731 3106 3750 
Q 3241 4438 2509 4434 
Q 1691 4434 1503 3459 
L 1019 966 
z
" transform="scale(0.015625)"/>
      </defs>
      <use xlink:href="#DejaVuSans-Oblique-3b2" transform="translate(0 0.390625)"/>
     </g>
    </g>
   </g>
   <g id="matplotlib.axis_2">
    <g id="ytick_1">
     <g id="line2d_11">
      <path d="M 45.203125 336.841395 
L 400.615257 336.841395 
" clip-path="url(#p6840d37609)" style="fill: none; stroke: #cccccc; stroke-opacity: 0.35; stroke-width: 0.6; stroke-linecap: round"/>
     </g>
     <g id="line2d_12"/>
     <g id="text_7">
      <!-- 0.0 -->
      <g style="fill: #262626" transform="translate(25.8 340.640614) scale(0.1 -0.1)">
       <use xlink:href="#DejaVuSans-30"/>
       <use xlink:href="#DejaVuSans-2e" transform="translate(63.623047 0)"/>
       <use xlink:href="#DejaVuSans-30" transform="translate(95.410156 0)"/>
      </g>
     </g>
    </g>
    <g id="ytick_2">
     <g id="line2d_13">
      <path d="M 45.203125 286.353926 
L 400.615257 286.353926 
" clip-path="url(#p6840d37609)" style="fill: none; stroke: #cccccc; stroke-opacity: 0.35; stroke-width: 0.6; stroke-linecap: round"/>
     </g>
     <g id="line2d_14"/>
     <g id="text_8">
      <!-- 0.2 -->
      <g style="fill: #262626" transform="translate(25.8 290.153145) scale(0.1 -0.1)">
       <use xlink:href="#DejaVuSans-30"/>
       <use xlink:href="#DejaVuSans-2e" transform="translate(63.623047 0)"/>
       <use xlink:href="#DejaVuSans-32" transform="translate(95.410156 0)"/>
      </g>
     </g>
    </g>
    <g id="ytick_3">
     <g id="line2d_15">
      <path d="M 45.203125 235.866457 
L 400.615257 235.866457 
" clip-path="url(#p6840d37609)" style="fill: none; stroke: #cccccc; stroke-opacity: 0.35; stroke-width: 0.6; stroke-linecap: round"/>
     </g>
     <g id="line2d_16"/>
     <g id="text_9">
      <!-- 0.4 -->
      <g style="fill: #262626" transform="translate(25.8 239.665676) scale(0.1 -0.1)">
       <use xlink:href="#DejaVuSans-30"/>
       <use xlink:href="#DejaVuSans-2e" transform="translate(63.623047 0)"/>
       <use xlink:href="#DejaVuSans-34" transform="translate(95.410156 0)"/>
      </g>
     </g>
    </g>
    <g id="ytick_4">
     <g id="line2d_17">
      <path d="M 45.203125 185.378988 
L 400.615257 185.378988 
" clip-path="url(#p6840d37609)" style="fill: none; stroke: #cccccc; stroke-opacity: 0.35; stroke-width: 0.6; stroke-linecap: round"/>
     </g>
     <g id="line2d_18"/>
     <g id="text_10">
      <!-- 0.6 -->
      <g style="fill: #262626" transform="translate(25.8 189.178207) scale(0.1 -0.1)">
       <use xlink:href="#DejaVuSans-30"/>
       <use xlink:href="#DejaVuSans-2e" transform="translate(63.623047 0)"/>
       <use xlink:href="#DejaVuSans-36" transform="translate(95.410156 0)"/>
      </g>
     </g>
    </g>
    <g id="ytick_5">
     <g id="line2d_19">
      <path d="M 45.203125 134.891519 
L 400.615257 134.891519 
" clip-path="url(#p6840d37609)" style="fill: none; stroke: #cccccc; stroke-opacity: 0.35; stroke-width: 0.6; stroke-linecap: round"/>
     </g>
     <g id="line2d_20"/>
     <g id="text_11">
      <!-- 0.8 -->
      <g style="fill: #262626" transform="translate(25.8 138.690738) scale(0.1 -0.1)">
       <use xlink:href="#DejaVuSans-30"/>
       <use xlink:href="#DejaVuSans-2e" transform="translate(63.623047 0)"/>
       <use xlink:href="#DejaVuSans-38" transform="translate(95.410156 0)"/>
      </g>
     </g>
    </g>
    <g id="ytick_6">
     <g id="line2d_21">
      <path d="M 45.203125 84.40405 
L 400.615257 84.40405 
" clip-path="url(#p6840d37609)" style="fill: none; stroke: #cccccc; stroke-opacity: 0.35; stroke-width: 0.6; stroke-linecap: round"/>
     </g>
     <g id="line2d_22"/>
     <g id="text_12">
      <!-- 1.0 -->
      <g style="fill: #262626" transform="translate(25.8 88.203269) scale(0.1 -0.1)">
       <use xlink:href="#DejaVuSans-31"/>
       <use xlink:href="#DejaVuSans-2e" transform="translate(63.623047 0)"/>
       <use xlink:href="#DejaVuSans-30" transform="translate(95.410156 0)"/>
      </g>
     </g>
    </g>
    <g id="text_13">
     <!-- cum_E_injected $/\ (\eta\,\cdot\,$cum_E_loss$)$ -->
     <g style="fill: #262626" transform="translate(19.16 284.859922) rotate(-90) scale(0.11 -0.11)">
      <defs>
       <path id="DejaVuSans-63" d="M 3122 3366 
L 3122 2828 
Q 2878 2963 2633 3030 
Q 2388 3097 2138 3097 
Q 1578 3097 1268 2742 
Q 959 2388 959 1747 
Q 959 1106 1268 751 
Q 1578 397 2138 397 
Q 2388 397 2633 464 
Q 2878 531 3122 666 
L 3122 134 
Q 2881 22 2623 -34 
Q 2366 -91 2075 -91 
Q 1284 -91 818 406 
Q 353 903 353 1747 
Q 353 2603 823 3093 
Q 1294 3584 2113 3584 
Q 2378 3584 2631 3529 
Q 2884 3475 3122 3366 
z
" transform="scale(0.015625)"/>
       <path id="DejaVuSans-75" d="M 544 1381 
L 544 3500 
L 1119 3500 
L 1119 1403 
Q 1119 906 1312 657 
Q 1506 409 1894 409 
Q 2359 409 2629 706 
Q 2900 1003 2900 1516 
L 2900 3500 
L 3475 3500 
L 3475 0 
L 2900 0 
L 2900 538 
Q 2691 219 2414 64 
Q 2138 -91 1772 -91 
Q 1169 -91 856 284 
Q 544 659 544 1381 
z
M 1991 3584 
L 1991 3584 
z
" transform="scale(0.015625)"/>
       <path id="DejaVuSans-6d" d="M 3328 2828 
Q 3544 3216 3844 3400 
Q 4144 3584 4550 3584 
Q 5097 3584 5394 3201 
Q 5691 2819 5691 2113 
L 5691 0 
L 5113 0 
L 5113 2094 
Q 5113 2597 4934 2840 
Q 4756 3084 4391 3084 
Q 3944 3084 3684 2787 
Q 3425 2491 3425 1978 
L 3425 0 
L 2847 0 
L 2847 2094 
Q 2847 2600 2669 2842 
Q 2491 3084 2119 3084 
Q 1678 3084 1418 2786 
Q 1159 2488 1159 1978 
L 1159 0 
L 581 0 
L 581 3500 
L 1159 3500 
L 1159 2956 
Q 1356 3278 1631 3431 
Q 1906 3584 2284 3584 
Q 2666 3584 2933 3390 
Q 3200 3197 3328 2828 
z
" transform="scale(0.015625)"/>
       <path id="DejaVuSans-5f" d="M 3263 -1063 
L 3263 -1509 
L -63 -1509 
L -63 -1063 
L 3263 -1063 
z
" transform="scale(0.015625)"/>
       <path id="DejaVuSans-45" d="M 628 4666 
L 3578 4666 
L 3578 4134 
L 1259 4134 
L 1259 2753 
L 3481 2753 
L 3481 2222 
L 1259 2222 
L 1259 531 
L 3634 531 
L 3634 0 
L 628 0 
L 628 4666 
z
" transform="scale(0.015625)"/>
       <path id="DejaVuSans-69" d="M 603 3500 
L 1178 3500 
L 1178 0 
L 603 0 
L 603 3500 
z
M 603 4863 
L 1178 4863 
L 1178 4134 
L 603 4134 
L 603 4863 
z
" transform="scale(0.015625)"/>
       <path id="DejaVuSans-6e" d="M 3513 2113 
L 3513 0 
L 2938 0 
L 2938 2094 
Q 2938 2591 2744 2837 
Q 2550 3084 2163 3084 
Q 1697 3084 1428 2787 
Q 1159 2491 1159 1978 
L 1159 0 
L 581 0 
L 581 3500 
L 1159 3500 
L 1159 2956 
Q 1366 3272 1645 3428 
Q 1925 3584 2291 3584 
Q 2894 3584 3203 3211 
Q 3513 2838 3513 2113 
z
" transform="scale(0.015625)"/>
       <path id="DejaVuSans-6a" d="M 603 3500 
L 1178 3500 
L 1178 -63 
Q 1178 -731 923 -1031 
Q 669 -1331 103 -1331 
L -116 -1331 
L -116 -844 
L 38 -844 
Q 366 -844 484 -692 
Q 603 -541 603 -63 
L 603 3500 
z
M 603 4863 
L 1178 4863 
L 1178 4134 
L 603 4134 
L 603 4863 
z
" transform="scale(0.015625)"/>
       <path id="DejaVuSans-65" d="M 3597 1894 
L 3597 1613 
L 953 1613 
Q 991 1019 1311 708 
Q 1631 397 2203 397 
Q 2534 397 2845 478 
Q 3156 559 3463 722 
L 3463 178 
Q 3153 47 2828 -22 
Q 2503 -91 2169 -91 
Q 1331 -91 842 396 
Q 353 884 353 1716 
Q 353 2575 817 3079 
Q 1281 3584 2069 3584 
Q 2775 3584 3186 3129 
Q 3597 2675 3597 1894 
z
M 3022 2063 
Q 3016 2534 2758 2815 
Q 2500 3097 2075 3097 
Q 1594 3097 1305 2825 
Q 1016 2553 972 2059 
L 3022 2063 
z
" transform="scale(0.015625)"/>
       <path id="DejaVuSans-74" d="M 1172 4494 
L 1172 3500 
L 2356 3500 
L 2356 3053 
L 1172 3053 
L 1172 1153 
Q 1172 725 1289 603 
Q 1406 481 1766 481 
L 2356 481 
L 2356 0 
L 1766 0 
Q 1100 0 847 248 
Q 594 497 594 1153 
L 594 3053 
L 172 3053 
L 172 3500 
L 594 3500 
L 594 4494 
L 1172 4494 
z
" transform="scale(0.015625)"/>
       <path id="DejaVuSans-64" d="M 2906 2969 
L 2906 4863 
L 3481 4863 
L 3481 0 
L 2906 0 
L 2906 525 
Q 2725 213 2448 61 
Q 2172 -91 1784 -91 
Q 1150 -91 751 415 
Q 353 922 353 1747 
Q 353 2572 751 3078 
Q 1150 3584 1784 3584 
Q 2172 3584 2448 3432 
Q 2725 3281 2906 2969 
z
M 947 1747 
Q 947 1113 1208 752 
Q 1469 391 1925 391 
Q 2381 391 2643 752 
Q 2906 1113 2906 1747 
Q 2906 2381 2643 2742 
Q 2381 3103 1925 3103 
Q 1469 3103 1208 2742 
Q 947 2381 947 1747 
z
" transform="scale(0.015625)"/>
       <path id="DejaVuSans-20" transform="scale(0.015625)"/>
       <path id="DejaVuSans-2f" d="M 1625 4666 
L 2156 4666 
L 531 -594 
L 0 -594 
L 1625 4666 
z
" transform="scale(0.015625)"/>
       <path id="DejaVuSans-28" d="M 1984 4856 
Q 1566 4138 1362 3434 
Q 1159 2731 1159 2009 
Q 1159 1288 1364 580 
Q 1569 -128 1984 -844 
L 1484 -844 
Q 1016 -109 783 600 
Q 550 1309 550 2009 
Q 550 2706 781 3412 
Q 1013 4119 1484 4856 
L 1984 4856 
z
" transform="scale(0.015625)"/>
       <path id="DejaVuSans-Oblique-3b7" d="M 3703 2113 
L 3034 -1331 
L 2459 -1331 
L 3125 2094 
Q 3222 2591 3075 2838 
Q 2931 3084 2544 3084 
Q 2078 3084 1750 2788 
Q 1425 2491 1325 1978 
L 941 0 
L 363 0 
L 1044 3500 
L 1622 3500 
L 1516 2956 
Q 1781 3272 2094 3428 
Q 2403 3584 2769 3584 
Q 3372 3584 3609 3213 
Q 3844 2838 3703 2113 
z
" transform="scale(0.015625)"/>
       <path id="DejaVuSans-22c5" d="M 684 2619 
L 1344 2619 
L 1344 1825 
L 684 1825 
L 684 2619 
z
" transform="scale(0.015625)"/>
       <path id="DejaVuSans-6c" d="M 603 4863 
L 1178 4863 
L 1178 0 
L 603 0 
L 603 4863 
z
" transform="scale(0.015625)"/>
       <path id="DejaVuSans-6f" d="M 1959 3097 
Q 1497 3097 1228 2736 
Q 959 2375 959 1747 
Q 959 1119 1226 758 
Q 1494 397 1959 397 
Q 2419 397 2687 759 
Q 2956 1122 2956 1747 
Q 2956 2369 2687 2733 
Q 2419 3097 1959 3097 
z
M 1959 3584 
Q 2709 3584 3137 3096 
Q 3566 2609 3566 1747 
Q 3566 888 3137 398 
Q 2709 -91 1959 -91 
Q 1206 -91 779 398 
Q 353 888 353 1747 
Q 353 2609 779 3096 
Q 1206 3584 1959 3584 
z
" transform="scale(0.015625)"/>
       <path id="DejaVuSans-73" d="M 2834 3397 
L 2834 2853 
Q 2591 2978 2328 3040 
Q 2066 3103 1784 3103 
Q 1356 3103 1142 2972 
Q 928 2841 928 2578 
Q 928 2378 1081 2264 
Q 1234 2150 1697 2047 
L 1894 2003 
Q 2506 1872 2764 1633 
Q 3022 1394 3022 966 
Q 3022 478 2636 193 
Q 2250 -91 1575 -91 
Q 1294 -91 989 -36 
Q 684 19 347 128 
L 347 722 
Q 666 556 975 473 
Q 1284 391 1588 391 
Q 1994 391 2212 530 
Q 2431 669 2431 922 
Q 2431 1156 2273 1281 
Q 2116 1406 1581 1522 
L 1381 1569 
Q 847 1681 609 1914 
Q 372 2147 372 2553 
Q 372 3047 722 3315 
Q 1072 3584 1716 3584 
Q 2034 3584 2315 3537 
Q 2597 3491 2834 3397 
z
" transform="scale(0.015625)"/>
       <path id="DejaVuSans-29" d="M 513 4856 
L 1013 4856 
Q 1481 4119 1714 3412 
Q 1947 2706 1947 2009 
Q 1947 1309 1714 600 
Q 1481 -109 1013 -844 
L 513 -844 
Q 928 -128 1133 580 
Q 1338 1288 1338 2009 
Q 1338 2731 1133 3434 
Q 928 4138 513 4856 
z
" transform="scale(0.015625)"/>
      </defs>
      <use xlink:href="#DejaVuSans-63" transform="translate(0 0.015625)"/>
      <use xlink:href="#DejaVuSans-75" transform="translate(54.980469 0.015625)"/>
      <use xlink:href="#DejaVuSans-6d" transform="translate(118.359375 0.015625)"/>
      <use xlink:href="#DejaVuSans-5f" transform="translate(215.771484 0.015625)"/>
      <use xlink:href="#DejaVuSans-45" transform="translate(265.771484 0.015625)"/>
      <use xlink:href="#DejaVuSans-5f" transform="translate(328.955078 0.015625)"/>
      <use xlink:href="#DejaVuSans-69" transform="translate(378.955078 0.015625)"/>
      <use xlink:href="#DejaVuSans-6e" transform="translate(406.738281 0.015625)"/>
      <use xlink:href="#DejaVuSans-6a" transform="translate(470.117188 0.015625)"/>
      <use xlink:href="#DejaVuSans-65" transform="translate(497.900391 0.015625)"/>
      <use xlink:href="#DejaVuSans-63" transform="translate(559.423828 0.015625)"/>
      <use xlink:href="#DejaVuSans-74" transform="translate(614.404297 0.015625)"/>
      <use xlink:href="#DejaVuSans-65" transform="translate(653.613281 0.015625)"/>
      <use xlink:href="#DejaVuSans-64" transform="translate(715.136719 0.015625)"/>
      <use xlink:href="#DejaVuSans-20" transform="translate(778.613281 0.015625)"/>
      <use xlink:href="#DejaVuSans-2f" transform="translate(810.400391 0.015625)"/>
      <use xlink:href="#DejaVuSans-28" transform="translate(876.562175 0.015625)"/>
      <use xlink:href="#DejaVuSans-Oblique-3b7" transform="translate(915.575847 0.015625)"/>
      <use xlink:href="#DejaVuSans-22c5" transform="translate(1014.672852 0.015625)"/>
      <use xlink:href="#DejaVuSans-63" transform="translate(1082.178059 0.015625)"/>
      <use xlink:href="#DejaVuSans-75" transform="translate(1137.158528 0.015625)"/>
      <use xlink:href="#DejaVuSans-6d" transform="translate(1200.537434 0.015625)"/>
      <use xlink:href="#DejaVuSans-5f" transform="translate(1297.949543 0.015625)"/>
      <use xlink:href="#DejaVuSans-45" transform="translate(1347.949543 0.015625)"/>
      <use xlink:href="#DejaVuSans-5f" transform="translate(1411.133137 0.015625)"/>
      <use xlink:href="#DejaVuSans-6c" transform="translate(1461.133137 0.015625)"/>
      <use xlink:href="#DejaVuSans-6f" transform="translate(1488.91634 0.015625)"/>
      <use xlink:href="#DejaVuSans-73" transform="translate(1550.097981 0.015625)"/>
      <use xlink:href="#DejaVuSans-73" transform="translate(1602.19759 0.015625)"/>
      <use xlink:href="#DejaVuSans-29" transform="translate(1654.2972 0.015625)"/>
     </g>
    </g>
   </g>
   <g id="patch_3">
    <path d="M 45.203125 84.40405 
L 400.615257 84.40405 
L 400.615257 -16.570887 
L 45.203125 -16.570887 
z
" clip-path="url(#p6840d37609)" style="fill: #d62728; opacity: 0.06; stroke: #d62728; stroke-linejoin: miter"/>
   </g>
   <g id="line2d_23">
    <path d="M 61.358222 102.7112 
L 115.208545 127.040142 
L 204.959083 160.0098 
L 294.709621 276.005179 
L 384.46016 218.221568 
" clip-path="url(#p6840d37609)" style="fill: none; stroke: #1f77b4; stroke-width: 2.2; stroke-linecap: round"/>
    <defs>
     <path id="m0c79935838" d="M 0 3.25 
C 0.86191 3.25 1.688635 2.907559 2.298097 2.298097 
C 2.907559 1.688635 3.25 0.86191 3.25 0 
C 3.25 -0.86191 2.907559 -1.688635 2.298097 -2.298097 
C 1.688635 -2.907559 0.86191 -3.25 0 -3.25 
C -0.86191 -3.25 -1.688635 -2.907559 -2.298097 -2.298097 
C -2.907559 -1.688635 -3.25 -0.86191 -3.25 0 
C -3.25 0.86191 -2.907559 1.688635 -2.298097 2.298097 
C -1.688635 2.907559 -0.86191 3.25 0 3.25 
z
" style="stroke: #ffffff; stroke-width: 0.8"/>
    </defs>
    <g clip-path="url(#p6840d37609)">
     <use xlink:href="#m0c79935838" x="61.358222" y="102.7112" style="fill: #1f77b4; stroke: #ffffff; stroke-width: 0.8"/>
     <use xlink:href="#m0c79935838" x="115.208545" y="127.040142" style="fill: #1f77b4; stroke: #ffffff; stroke-width: 0.8"/>
     <use xlink:href="#m0c79935838" x="204.959083" y="160.0098" style="fill: #1f77b4; stroke: #ffffff; stroke-width: 0.8"/>
     <use xlink:href="#m0c79935838" x="294.709621" y="276.005179" style="fill: #1f77b4; stroke: #ffffff; stroke-width: 0.8"/>
     <use xlink:href="#m0c79935838" x="384.46016" y="218.221568" style="fill: #1f77b4; stroke: #ffffff; stroke-width: 0.8"/>
    </g>
   </g>
   <g id="line2d_24">
    <path d="M 61.358222 105.47074 
L 115.208545 109.636912 
L 204.959083 109.734591 
L 294.709621 109.734349 
L 384.46016 109.731531 
" clip-path="url(#p6840d37609)" style="fill: none; stroke: #d62728; stroke-width: 2.2; stroke-linecap: round"/>
    <defs>
     <path id="m1ab11e58c3" d="M 0 3.25 
C 0.86191 3.25 1.688635 2.907559 2.298097 2.298097 
C 2.907559 1.688635 3.25 0.86191 3.25 0 
C 3.25 -0.86191 2.907559 -1.688635 2.298097 -2.298097 
C 1.688635 -2.907559 0.86191 -3.25 0 -3.25 
C -0.86191 -3.25 -1.688635 -2.907559 -2.298097 -2.298097 
C -2.907559 -1.688635 -3.25 -0.86191 -3.25 0 
C -3.25 0.86191 -2.907559 1.688635 -2.298097 2.298097 
C -1.688635 2.907559 -0.86191 3.25 0 3.25 
z
" style="stroke: #ffffff; stroke-width: 0.8"/>
    </defs>
    <g clip-path="url(#p6840d37609)">
     <use xlink:href="#m1ab11e58c3" x="61.358222" y="105.47074" style="fill: #d62728; stroke: #ffffff; stroke-width: 0.8"/>
     <use xlink:href="#m1ab11e58c3" x="115.208545" y="109.636912" style="fill: #d62728; stroke: #ffffff; stroke-width: 0.8"/>
     <use xlink:href="#m1ab11e58c3" x="204.959083" y="109.734591" style="fill: #d62728; stroke: #ffffff; stroke-width: 0.8"/>
     <use xlink:href="#m1ab11e58c3" x="294.709621" y="109.734349" style="fill: #d62728; stroke: #ffffff; stroke-width: 0.8"/>
     <use xlink:href="#m1ab11e58c3" x="384.46016" y="109.731531" style="fill: #d62728; stroke: #ffffff; stroke-width: 0.8"/>
    </g>
   </g>
   <g id="line2d_25">
    <path d="M 61.358222 105.035739 
L 115.208545 132.946564 
L 204.959083 219.393303 
L 294.709621 238.523213 
L 384.46016 161.645083 
" clip-path="url(#p6840d37609)" style="fill: none; stroke: #2ca02c; stroke-width: 2.2; stroke-linecap: round"/>
    <defs>
     <path id="mcbef48500d" d="M 0 3.25 
C 0.86191 3.25 1.688635 2.907559 2.298097 2.298097 
C 2.907559 1.688635 3.25 0.86191 3.25 0 
C 3.25 -0.86191 2.907559 -1.688635 2.298097 -2.298097 
C 1.688635 -2.907559 0.86191 -3.25 0 -3.25 
C -0.86191 -3.25 -1.688635 -2.907559 -2.298097 -2.298097 
C -2.907559 -1.688635 -3.25 -0.86191 -3.25 0 
C -3.25 0.86191 -2.907559 1.688635 -2.298097 2.298097 
C -1.688635 2.907559 -0.86191 3.25 0 3.25 
z
" style="stroke: #ffffff; stroke-width: 0.8"/>
    </defs>
    <g clip-path="url(#p6840d37609)">
     <use xlink:href="#mcbef48500d" x="61.358222" y="105.035739" style="fill: #2ca02c; stroke: #ffffff; stroke-width: 0.8"/>
     <use xlink:href="#mcbef48500d" x="115.208545" y="132.946564" style="fill: #2ca02c; stroke: #ffffff; stroke-width: 0.8"/>
     <use xlink:href="#mcbef48500d" x="204.959083" y="219.393303" style="fill: #2ca02c; stroke: #ffffff; stroke-width: 0.8"/>
     <use xlink:href="#mcbef48500d" x="294.709621" y="238.523213" style="fill: #2ca02c; stroke: #ffffff; stroke-width: 0.8"/>
     <use xlink:href="#mcbef48500d" x="384.46016" y="161.645083" style="fill: #2ca02c; stroke: #ffffff; stroke-width: 0.8"/>
    </g>
   </g>
   <g id="line2d_26">
    <path d="M 45.203125 84.40405 
L 400.615257 84.40405 
" clip-path="url(#p6840d37609)" style="fill: none; stroke-dasharray: 1.2,1.98; stroke-dashoffset: 0; stroke: #404040; stroke-width: 1.2"/>
   </g>
   <g id="patch_4">
    <path d="M 45.203125 336.841395 
L 45.203125 46.538449 
" style="fill: none; stroke: #cccccc; stroke-linejoin: miter; stroke-linecap: square"/>
   </g>
   <g id="patch_5">
    <path d="M 45.203125 336.841395 
L 400.615257 336.841395 
" style="fill: none; stroke: #cccccc; stroke-linejoin: miter; stroke-linecap: square"/>
   </g>
   <g id="text_14">
    <!-- ledge -->
    <g style="fill: #262626" transform="translate(202.558097 40.538449) scale(0.13 -0.13)">
     <defs>
      <path id="DejaVuSans-Bold-6c" d="M 538 4863 
L 1656 4863 
L 1656 0 
L 538 0 
L 538 4863 
z
" transform="scale(0.015625)"/>
      <path id="DejaVuSans-Bold-65" d="M 4031 1759 
L 4031 1441 
L 1416 1441 
Q 1456 1047 1700 850 
Q 1944 653 2381 653 
Q 2734 653 3104 758 
Q 3475 863 3866 1075 
L 3866 213 
Q 3469 63 3072 -14 
Q 2675 -91 2278 -91 
Q 1328 -91 801 392 
Q 275 875 275 1747 
Q 275 2603 792 3093 
Q 1309 3584 2216 3584 
Q 3041 3584 3536 3087 
Q 4031 2591 4031 1759 
z
M 2881 2131 
Q 2881 2450 2695 2645 
Q 2509 2841 2209 2841 
Q 1884 2841 1681 2658 
Q 1478 2475 1428 2131 
L 2881 2131 
z
" transform="scale(0.015625)"/>
      <path id="DejaVuSans-Bold-64" d="M 2919 2988 
L 2919 4863 
L 4044 4863 
L 4044 0 
L 2919 0 
L 2919 506 
Q 2688 197 2409 53 
Q 2131 -91 1766 -91 
Q 1119 -91 703 423 
Q 288 938 288 1747 
Q 288 2556 703 3070 
Q 1119 3584 1766 3584 
Q 2128 3584 2408 3439 
Q 2688 3294 2919 2988 
z
M 2181 722 
Q 2541 722 2730 984 
Q 2919 1247 2919 1747 
Q 2919 2247 2730 2509 
Q 2541 2772 2181 2772 
Q 1825 2772 1636 2509 
Q 1447 2247 1447 1747 
Q 1447 1247 1636 984 
Q 1825 722 2181 722 
z
" transform="scale(0.015625)"/>
      <path id="DejaVuSans-Bold-67" d="M 2919 594 
Q 2688 288 2409 144 
Q 2131 0 1766 0 
Q 1125 0 706 504 
Q 288 1009 288 1791 
Q 288 2575 706 3076 
Q 1125 3578 1766 3578 
Q 2131 3578 2409 3434 
Q 2688 3291 2919 2981 
L 2919 3500 
L 4044 3500 
L 4044 353 
Q 4044 -491 3511 -936 
Q 2978 -1381 1966 -1381 
Q 1638 -1381 1331 -1331 
Q 1025 -1281 716 -1178 
L 716 -306 
Q 1009 -475 1290 -558 
Q 1572 -641 1856 -641 
Q 2406 -641 2662 -400 
Q 2919 -159 2919 353 
L 2919 594 
z
M 2181 2772 
Q 1834 2772 1640 2515 
Q 1447 2259 1447 1791 
Q 1447 1309 1634 1061 
Q 1822 813 2181 813 
Q 2531 813 2725 1069 
Q 2919 1325 2919 1791 
Q 2919 2259 2725 2515 
Q 2531 2772 2181 2772 
z
" transform="scale(0.015625)"/>
     </defs>
     <use xlink:href="#DejaVuSans-Bold-6c"/>
     <use xlink:href="#DejaVuSans-Bold-65" transform="translate(34.277344 0)"/>
     <use xlink:href="#DejaVuSans-Bold-64" transform="translate(102.099609 0)"/>
     <use xlink:href="#DejaVuSans-Bold-67" transform="translate(173.681641 0)"/>
     <use xlink:href="#DejaVuSans-Bold-65" transform="translate(245.263672 0)"/>
    </g>
   </g>
   <g id="legend_1">
    <g id="patch_6">
     <path d="M 295.905882 332.591395 
L 394.665257 332.591395 
Q 396.365257 332.591395 396.365257 330.891395 
L 396.365257 281.83577 
Q 396.365257 280.13577 394.665257 280.13577 
L 295.905882 280.13577 
Q 294.205882 280.13577 294.205882 281.83577 
L 294.205882 330.891395 
Q 294.205882 332.591395 295.905882 332.591395 
z
" style="fill: #ffffff; opacity: 0.85; stroke: #cccccc; stroke-linejoin: miter"/>
    </g>
    <g id="line2d_27">
     <path d="M 297.605882 287.019442 
L 306.105882 287.019442 
L 314.605882 287.019442 
" style="fill: none; stroke: #1f77b4; stroke-width: 2.2; stroke-linecap: round"/>
     <g>
      <use xlink:href="#m0c79935838" x="306.105882" y="287.019442" style="fill: #1f77b4; stroke: #ffffff; stroke-width: 0.8"/>
     </g>
    </g>
    <g id="text_15">
     <!-- EP-A -->
     <g style="fill: #262626" transform="translate(321.405882 289.994442) scale(0.085 -0.085)">
      <defs>
       <path id="DejaVuSans-50" d="M 1259 4147 
L 1259 2394 
L 2053 2394 
Q 2494 2394 2734 2622 
Q 2975 2850 2975 3272 
Q 2975 3691 2734 3919 
Q 2494 4147 2053 4147 
L 1259 4147 
z
M 628 4666 
L 2053 4666 
Q 2838 4666 3239 4311 
Q 3641 3956 3641 3272 
Q 3641 2581 3239 2228 
Q 2838 1875 2053 1875 
L 1259 1875 
L 1259 0 
L 628 0 
L 628 4666 
z
" transform="scale(0.015625)"/>
       <path id="DejaVuSans-2d" d="M 313 2009 
L 1997 2009 
L 1997 1497 
L 313 1497 
L 313 2009 
z
" transform="scale(0.015625)"/>
       <path id="DejaVuSans-41" d="M 2188 4044 
L 1331 1722 
L 3047 1722 
L 2188 4044 
z
M 1831 4666 
L 2547 4666 
L 4325 0 
L 3669 0 
L 3244 1197 
L 1141 1197 
L 716 0 
L 50 0 
L 1831 4666 
z
" transform="scale(0.015625)"/>
      </defs>
      <use xlink:href="#DejaVuSans-45"/>
      <use xlink:href="#DejaVuSans-50" transform="translate(63.183594 0)"/>
      <use xlink:href="#DejaVuSans-2d" transform="translate(121.236328 0)"/>
      <use xlink:href="#DejaVuSans-41" transform="translate(155.070312 0)"/>
     </g>
    </g>
    <g id="line2d_28">
     <path d="M 297.605882 299.495848 
L 306.105882 299.495848 
L 314.605882 299.495848 
" style="fill: none; stroke: #d62728; stroke-width: 2.2; stroke-linecap: round"/>
     <g>
      <use xlink:href="#m1ab11e58c3" x="306.105882" y="299.495848" style="fill: #d62728; stroke: #ffffff; stroke-width: 0.8"/>
     </g>
    </g>
    <g id="text_16">
     <!-- EP-patch -->
     <g style="fill: #262626" transform="translate(321.405882 302.470848) scale(0.085 -0.085)">
      <defs>
       <path id="DejaVuSans-70" d="M 1159 525 
L 1159 -1331 
L 581 -1331 
L 581 3500 
L 1159 3500 
L 1159 2969 
Q 1341 3281 1617 3432 
Q 1894 3584 2278 3584 
Q 2916 3584 3314 3078 
Q 3713 2572 3713 1747 
Q 3713 922 3314 415 
Q 2916 -91 2278 -91 
Q 1894 -91 1617 61 
Q 1341 213 1159 525 
z
M 3116 1747 
Q 3116 2381 2855 2742 
Q 2594 3103 2138 3103 
Q 1681 3103 1420 2742 
Q 1159 2381 1159 1747 
Q 1159 1113 1420 752 
Q 1681 391 2138 391 
Q 2594 391 2855 752 
Q 3116 1113 3116 1747 
z
" transform="scale(0.015625)"/>
       <path id="DejaVuSans-61" d="M 2194 1759 
Q 1497 1759 1228 1600 
Q 959 1441 959 1056 
Q 959 750 1161 570 
Q 1363 391 1709 391 
Q 2188 391 2477 730 
Q 2766 1069 2766 1631 
L 2766 1759 
L 2194 1759 
z
M 3341 1997 
L 3341 0 
L 2766 0 
L 2766 531 
Q 2569 213 2275 61 
Q 1981 -91 1556 -91 
Q 1019 -91 701 211 
Q 384 513 384 1019 
Q 384 1609 779 1909 
Q 1175 2209 1959 2209 
L 2766 2209 
L 2766 2266 
Q 2766 2663 2505 2880 
Q 2244 3097 1772 3097 
Q 1472 3097 1187 3025 
Q 903 2953 641 2809 
L 641 3341 
Q 956 3463 1253 3523 
Q 1550 3584 1831 3584 
Q 2591 3584 2966 3190 
Q 3341 2797 3341 1997 
z
" transform="scale(0.015625)"/>
       <path id="DejaVuSans-68" d="M 3513 2113 
L 3513 0 
L 2938 0 
L 2938 2094 
Q 2938 2591 2744 2837 
Q 2550 3084 2163 3084 
Q 1697 3084 1428 2787 
Q 1159 2491 1159 1978 
L 1159 0 
L 581 0 
L 581 4863 
L 1159 4863 
L 1159 2956 
Q 1366 3272 1645 3428 
Q 1925 3584 2291 3584 
Q 2894 3584 3203 3211 
Q 3513 2838 3513 2113 
z
" transform="scale(0.015625)"/>
      </defs>
      <use xlink:href="#DejaVuSans-45"/>
      <use xlink:href="#DejaVuSans-50" transform="translate(63.183594 0)"/>
      <use xlink:href="#DejaVuSans-2d" transform="translate(121.236328 0)"/>
      <use xlink:href="#DejaVuSans-70" transform="translate(157.320312 0)"/>
      <use xlink:href="#DejaVuSans-61" transform="translate(220.796875 0)"/>
      <use xlink:href="#DejaVuSans-74" transform="translate(282.076172 0)"/>
      <use xlink:href="#DejaVuSans-63" transform="translate(321.285156 0)"/>
      <use xlink:href="#DejaVuSans-68" transform="translate(376.265625 0)"/>
     </g>
    </g>
    <g id="line2d_29">
     <path d="M 297.605882 311.972254 
L 306.105882 311.972254 
L 314.605882 311.972254 
" style="fill: none; stroke: #2ca02c; stroke-width: 2.2; stroke-linecap: round"/>
     <g>
      <use xlink:href="#mcbef48500d" x="306.105882" y="311.972254" style="fill: #2ca02c; stroke: #ffffff; stroke-width: 0.8"/>
     </g>
    </g>
    <g id="text_17">
     <!-- EP-point-impulse -->
     <g style="fill: #262626" transform="translate(321.405882 314.947254) scale(0.085 -0.085)">
      <use xlink:href="#DejaVuSans-45"/>
      <use xlink:href="#DejaVuSans-50" transform="translate(63.183594 0)"/>
      <use xlink:href="#DejaVuSans-2d" transform="translate(121.236328 0)"/>
      <use xlink:href="#DejaVuSans-70" transform="translate(157.320312 0)"/>
      <use xlink:href="#DejaVuSans-6f" transform="translate(220.796875 0)"/>
      <use xlink:href="#DejaVuSans-69" transform="translate(281.978516 0)"/>
      <use xlink:href="#DejaVuSans-6e" transform="translate(309.761719 0)"/>
      <use xlink:href="#DejaVuSans-74" transform="translate(373.140625 0)"/>
      <use xlink:href="#DejaVuSans-2d" transform="translate(412.349609 0)"/>
      <use xlink:href="#DejaVuSans-69" transform="translate(448.433594 0)"/>
      <use xlink:href="#DejaVuSans-6d" transform="translate(476.216797 0)"/>
      <use xlink:href="#DejaVuSans-70" transform="translate(573.628906 0)"/>
      <use xlink:href="#DejaVuSans-75" transform="translate(637.105469 0)"/>
      <use xlink:href="#DejaVuSans-6c" transform="translate(700.484375 0)"/>
      <use xlink:href="#DejaVuSans-73" transform="translate(728.267578 0)"/>
      <use xlink:href="#DejaVuSans-65" transform="translate(780.367188 0)"/>
     </g>
    </g>
    <g id="line2d_30">
     <path d="M 297.605882 324.448661 
L 306.105882 324.448661 
L 314.605882 324.448661 
" style="fill: none; stroke-dasharray: 1.2,1.98; stroke-dashoffset: 0; stroke: #404040; stroke-width: 1.2"/>
    </g>
    <g id="text_18">
     <!-- §15 ceiling -->
     <g style="fill: #262626" transform="translate(321.405882 327.423661) scale(0.085 -0.085)">
      <defs>
       <path id="DejaVuSans-a7" d="M 1184 2925 
Q 988 2781 891 2640 
Q 794 2500 794 2356 
Q 794 2119 1011 1911 
Q 1228 1703 2009 1281 
Q 2206 1422 2303 1564 
Q 2400 1706 2400 1850 
Q 2400 2084 2176 2296 
Q 1953 2509 1184 2925 
z
M 2591 4569 
L 2591 4056 
Q 2331 4178 2107 4239 
Q 1884 4300 1709 4300 
Q 1406 4300 1237 4175 
Q 1069 4050 1069 3828 
Q 1069 3547 1713 3188 
Q 1794 3141 1838 3116 
Q 2497 2744 2701 2503 
Q 2906 2263 2906 1947 
Q 2906 1666 2762 1447 
Q 2619 1228 2328 1063 
Q 2522 900 2611 729 
Q 2700 559 2700 359 
Q 2700 -84 2381 -346 
Q 2063 -609 1522 -609 
Q 1294 -609 1053 -564 
Q 813 -519 538 -428 
L 538 84 
Q 809 -38 1040 -98 
Q 1272 -159 1453 -159 
Q 1772 -159 1948 -28 
Q 2125 103 2125 341 
Q 2125 659 1434 1044 
L 1356 1088 
Q 688 1463 488 1702 
Q 288 1941 288 2259 
Q 288 2544 433 2767 
Q 578 2991 863 3144 
Q 678 3281 586 3456 
Q 494 3631 494 3847 
Q 494 4253 806 4501 
Q 1119 4750 1638 4750 
Q 1866 4750 2105 4704 
Q 2344 4659 2591 4569 
z
" transform="scale(0.015625)"/>
       <path id="DejaVuSans-35" d="M 691 4666 
L 3169 4666 
L 3169 4134 
L 1269 4134 
L 1269 2991 
Q 1406 3038 1543 3061 
Q 1681 3084 1819 3084 
Q 2600 3084 3056 2656 
Q 3513 2228 3513 1497 
Q 3513 744 3044 326 
Q 2575 -91 1722 -91 
Q 1428 -91 1123 -41 
Q 819 9 494 109 
L 494 744 
Q 775 591 1075 516 
Q 1375 441 1709 441 
Q 2250 441 2565 725 
Q 2881 1009 2881 1497 
Q 2881 1984 2565 2268 
Q 2250 2553 1709 2553 
Q 1456 2553 1204 2497 
Q 953 2441 691 2322 
L 691 4666 
z
" transform="scale(0.015625)"/>
       <path id="DejaVuSans-67" d="M 2906 1791 
Q 2906 2416 2648 2759 
Q 2391 3103 1925 3103 
Q 1463 3103 1205 2759 
Q 947 2416 947 1791 
Q 947 1169 1205 825 
Q 1463 481 1925 481 
Q 2391 481 2648 825 
Q 2906 1169 2906 1791 
z
M 3481 434 
Q 3481 -459 3084 -895 
Q 2688 -1331 1869 -1331 
Q 1566 -1331 1297 -1286 
Q 1028 -1241 775 -1147 
L 775 -588 
Q 1028 -725 1275 -790 
Q 1522 -856 1778 -856 
Q 2344 -856 2625 -561 
Q 2906 -266 2906 331 
L 2906 616 
Q 2728 306 2450 153 
Q 2172 0 1784 0 
Q 1141 0 747 490 
Q 353 981 353 1791 
Q 353 2603 747 3093 
Q 1141 3584 1784 3584 
Q 2172 3584 2450 3431 
Q 2728 3278 2906 2969 
L 2906 3500 
L 3481 3500 
L 3481 434 
z
" transform="scale(0.015625)"/>
      </defs>
      <use xlink:href="#DejaVuSans-a7"/>
      <use xlink:href="#DejaVuSans-31" transform="translate(50 0)"/>
      <use xlink:href="#DejaVuSans-35" transform="translate(113.623047 0)"/>
      <use xlink:href="#DejaVuSans-20" transform="translate(177.246094 0)"/>
      <use xlink:href="#DejaVuSans-63" transform="translate(209.033203 0)"/>
      <use xlink:href="#DejaVuSans-65" transform="translate(264.013672 0)"/>
      <use xlink:href="#DejaVuSans-69" transform="translate(325.537109 0)"/>
      <use xlink:href="#DejaVuSans-6c" transform="translate(353.320312 0)"/>
      <use xlink:href="#DejaVuSans-69" transform="translate(381.103516 0)"/>
      <use xlink:href="#DejaVuSans-6e" transform="translate(408.886719 0)"/>
      <use xlink:href="#DejaVuSans-67" transform="translate(472.265625 0)"/>
     </g>
    </g>
   </g>
  </g>
  <g id="axes_2">
   <g id="patch_7">
    <path d="M 423.295257 336.841395 
L 778.707388 336.841395 
L 778.707388 46.538449 
L 423.295257 46.538449 
z
" style="fill: #ffffff"/>
   </g>
   <g id="matplotlib.axis_3">
    <g id="xtick_6">
     <g id="line2d_31">
      <path d="M 475.350569 336.841395 
L 475.350569 46.538449 
" clip-path="url(#p6db0fb9ac1)" style="fill: none; stroke: #cccccc; stroke-opacity: 0.35; stroke-width: 0.6; stroke-linecap: round"/>
     </g>
     <g id="line2d_32"/>
     <g id="text_19">
      <!-- 0.2 -->
      <g style="fill: #262626" transform="translate(467.399006 347.939832) scale(0.1 -0.1)">
       <use xlink:href="#DejaVuSans-30"/>
       <use xlink:href="#DejaVuSans-2e" transform="translate(63.623047 0)"/>
       <use xlink:href="#DejaVuSans-32" transform="translate(95.410156 0)"/>
      </g>
     </g>
    </g>
    <g id="xtick_7">
     <g id="line2d_33">
      <path d="M 547.151 336.841395 
L 547.151 46.538449 
" clip-path="url(#p6db0fb9ac1)" style="fill: none; stroke: #cccccc; stroke-opacity: 0.35; stroke-width: 0.6; stroke-linecap: round"/>
     </g>
     <g id="line2d_34"/>
     <g id="text_20">
      <!-- 0.4 -->
      <g style="fill: #262626" transform="translate(539.199437 347.939832) scale(0.1 -0.1)">
       <use xlink:href="#DejaVuSans-30"/>
       <use xlink:href="#DejaVuSans-2e" transform="translate(63.623047 0)"/>
       <use xlink:href="#DejaVuSans-34" transform="translate(95.410156 0)"/>
      </g>
     </g>
    </g>
    <g id="xtick_8">
     <g id="line2d_35">
      <path d="M 618.95143 336.841395 
L 618.95143 46.538449 
" clip-path="url(#p6db0fb9ac1)" style="fill: none; stroke: #cccccc; stroke-opacity: 0.35; stroke-width: 0.6; stroke-linecap: round"/>
     </g>
     <g id="line2d_36"/>
     <g id="text_21">
      <!-- 0.6 -->
      <g style="fill: #262626" transform="translate(610.999868 347.939832) scale(0.1 -0.1)">
       <use xlink:href="#DejaVuSans-30"/>
       <use xlink:href="#DejaVuSans-2e" transform="translate(63.623047 0)"/>
       <use xlink:href="#DejaVuSans-36" transform="translate(95.410156 0)"/>
      </g>
     </g>
    </g>
    <g id="xtick_9">
     <g id="line2d_37">
      <path d="M 690.751861 336.841395 
L 690.751861 46.538449 
" clip-path="url(#p6db0fb9ac1)" style="fill: none; stroke: #cccccc; stroke-opacity: 0.35; stroke-width: 0.6; stroke-linecap: round"/>
     </g>
     <g id="line2d_38"/>
     <g id="text_22">
      <!-- 0.8 -->
      <g style="fill: #262626" transform="translate(682.800298 347.939832) scale(0.1 -0.1)">
       <use xlink:href="#DejaVuSans-30"/>
       <use xlink:href="#DejaVuSans-2e" transform="translate(63.623047 0)"/>
       <use xlink:href="#DejaVuSans-38" transform="translate(95.410156 0)"/>
      </g>
     </g>
    </g>
    <g id="xtick_10">
     <g id="line2d_39">
      <path d="M 762.552291 336.841395 
L 762.552291 46.538449 
" clip-path="url(#p6db0fb9ac1)" style="fill: none; stroke: #cccccc; stroke-opacity: 0.35; stroke-width: 0.6; stroke-linecap: round"/>
     </g>
     <g id="line2d_40"/>
     <g id="text_23">
      <!-- 1.0 -->
      <g style="fill: #262626" transform="translate(754.600729 347.939832) scale(0.1 -0.1)">
       <use xlink:href="#DejaVuSans-31"/>
       <use xlink:href="#DejaVuSans-2e" transform="translate(63.623047 0)"/>
       <use xlink:href="#DejaVuSans-30" transform="translate(95.410156 0)"/>
      </g>
     </g>
    </g>
    <g id="text_24">
     <!-- $\beta$ -->
     <g style="fill: #262626" transform="translate(597.481323 362.48952) scale(0.11 -0.11)">
      <use xlink:href="#DejaVuSans-Oblique-3b2" transform="translate(0 0.390625)"/>
     </g>
    </g>
   </g>
   <g id="matplotlib.axis_4">
    <g id="ytick_7">
     <g id="line2d_41">
      <path d="M 423.295257 336.841395 
L 778.707388 336.841395 
" clip-path="url(#p6db0fb9ac1)" style="fill: none; stroke: #cccccc; stroke-opacity: 0.35; stroke-width: 0.6; stroke-linecap: round"/>
     </g>
     <g id="line2d_42"/>
    </g>
    <g id="ytick_8">
     <g id="line2d_43">
      <path d="M 423.295257 286.353926 
L 778.707388 286.353926 
" clip-path="url(#p6db0fb9ac1)" style="fill: none; stroke: #cccccc; stroke-opacity: 0.35; stroke-width: 0.6; stroke-linecap: round"/>
     </g>
     <g id="line2d_44"/>
    </g>
    <g id="ytick_9">
     <g id="line2d_45">
      <path d="M 423.295257 235.866457 
L 778.707388 235.866457 
" clip-path="url(#p6db0fb9ac1)" style="fill: none; stroke: #cccccc; stroke-opacity: 0.35; stroke-width: 0.6; stroke-linecap: round"/>
     </g>
     <g id="line2d_46"/>
    </g>
    <g id="ytick_10">
     <g id="line2d_47">
      <path d="M 423.295257 185.378988 
L 778.707388 185.378988 
" clip-path="url(#p6db0fb9ac1)" style="fill: none; stroke: #cccccc; stroke-opacity: 0.35; stroke-width: 0.6; stroke-linecap: round"/>
     </g>
     <g id="line2d_48"/>
    </g>
    <g id="ytick_11">
     <g id="line2d_49">
      <path d="M 423.295257 134.891519 
L 778.707388 134.891519 
" clip-path="url(#p6db0fb9ac1)" style="fill: none; stroke: #cccccc; stroke-opacity: 0.35; stroke-width: 0.6; stroke-linecap: round"/>
     </g>
     <g id="line2d_50"/>
    </g>
    <g id="ytick_12">
     <g id="line2d_51">
      <path d="M 423.295257 84.40405 
L 778.707388 84.40405 
" clip-path="url(#p6db0fb9ac1)" style="fill: none; stroke: #cccccc; stroke-opacity: 0.35; stroke-width: 0.6; stroke-linecap: round"/>
     </g>
     <g id="line2d_52"/>
    </g>
    <g id="text_25">
     <!-- cum_E_injected $/\ (\eta\,\cdot\,$cum_E_loss$)$ -->
     <g style="fill: #262626" transform="translate(416.655257 284.859922) rotate(-90) scale(0.11 -0.11)">
      <use xlink:href="#DejaVuSans-63" transform="translate(0 0.015625)"/>
      <use xlink:href="#DejaVuSans-75" transform="translate(54.980469 0.015625)"/>
      <use xlink:href="#DejaVuSans-6d" transform="translate(118.359375 0.015625)"/>
      <use xlink:href="#DejaVuSans-5f" transform="translate(215.771484 0.015625)"/>
      <use xlink:href="#DejaVuSans-45" transform="translate(265.771484 0.015625)"/>
      <use xlink:href="#DejaVuSans-5f" transform="translate(328.955078 0.015625)"/>
      <use xlink:href="#DejaVuSans-69" transform="translate(378.955078 0.015625)"/>
      <use xlink:href="#DejaVuSans-6e" transform="translate(406.738281 0.015625)"/>
      <use xlink:href="#DejaVuSans-6a" transform="translate(470.117188 0.015625)"/>
      <use xlink:href="#DejaVuSans-65" transform="translate(497.900391 0.015625)"/>
      <use xlink:href="#DejaVuSans-63" transform="translate(559.423828 0.015625)"/>
      <use xlink:href="#DejaVuSans-74" transform="translate(614.404297 0.015625)"/>
      <use xlink:href="#DejaVuSans-65" transform="translate(653.613281 0.015625)"/>
      <use xlink:href="#DejaVuSans-64" transform="translate(715.136719 0.015625)"/>
      <use xlink:href="#DejaVuSans-20" transform="translate(778.613281 0.015625)"/>
      <use xlink:href="#DejaVuSans-2f" transform="translate(810.400391 0.015625)"/>
      <use xlink:href="#DejaVuSans-28" transform="translate(876.562175 0.015625)"/>
      <use xlink:href="#DejaVuSans-Oblique-3b7" transform="translate(915.575847 0.015625)"/>
      <use xlink:href="#DejaVuSans-22c5" transform="translate(1014.672852 0.015625)"/>
      <use xlink:href="#DejaVuSans-63" transform="translate(1082.178059 0.015625)"/>
      <use xlink:href="#DejaVuSans-75" transform="translate(1137.158528 0.015625)"/>
      <use xlink:href="#DejaVuSans-6d" transform="translate(1200.537434 0.015625)"/>
      <use xlink:href="#DejaVuSans-5f" transform="translate(1297.949543 0.015625)"/>
      <use xlink:href="#DejaVuSans-45" transform="translate(1347.949543 0.015625)"/>
      <use xlink:href="#DejaVuSans-5f" transform="translate(1411.133137 0.015625)"/>
      <use xlink:href="#DejaVuSans-6c" transform="translate(1461.133137 0.015625)"/>
      <use xlink:href="#DejaVuSans-6f" transform="translate(1488.91634 0.015625)"/>
      <use xlink:href="#DejaVuSans-73" transform="translate(1550.097981 0.015625)"/>
      <use xlink:href="#DejaVuSans-73" transform="translate(1602.19759 0.015625)"/>
      <use xlink:href="#DejaVuSans-29" transform="translate(1654.2972 0.015625)"/>
     </g>
    </g>
   </g>
   <g id="patch_8">
    <path d="M 423.295257 84.40405 
L 778.707388 84.40405 
L 778.707388 -16.570887 
L 423.295257 -16.570887 
z
" clip-path="url(#p6db0fb9ac1)" style="fill: #d62728; opacity: 0.06; stroke: #d62728; stroke-linejoin: miter"/>
   </g>
   <g id="line2d_53">
    <path d="M 439.450354 186.859947 
L 493.300677 142.945847 
L 583.051215 133.682108 
L 672.801753 137.339416 
L 762.552291 163.673912 
" clip-path="url(#p6db0fb9ac1)" style="fill: none; stroke: #1f77b4; stroke-width: 2.2; stroke-linecap: round"/>
    <g clip-path="url(#p6db0fb9ac1)">
     <use xlink:href="#m0c79935838" x="439.450354" y="186.859947" style="fill: #1f77b4; stroke: #ffffff; stroke-width: 0.8"/>
     <use xlink:href="#m0c79935838" x="493.300677" y="142.945847" style="fill: #1f77b4; stroke: #ffffff; stroke-width: 0.8"/>
     <use xlink:href="#m0c79935838" x="583.051215" y="133.682108" style="fill: #1f77b4; stroke: #ffffff; stroke-width: 0.8"/>
     <use xlink:href="#m0c79935838" x="672.801753" y="137.339416" style="fill: #1f77b4; stroke: #ffffff; stroke-width: 0.8"/>
     <use xlink:href="#m0c79935838" x="762.552291" y="163.673912" style="fill: #1f77b4; stroke: #ffffff; stroke-width: 0.8"/>
    </g>
   </g>
   <g id="line2d_54">
    <path d="M 439.450354 121.307648 
L 493.300677 132.14203 
L 583.051215 136.920052 
L 672.801753 137.406766 
L 762.552291 147.98983 
" clip-path="url(#p6db0fb9ac1)" style="fill: none; stroke: #d62728; stroke-width: 2.2; stroke-linecap: round"/>
    <g clip-path="url(#p6db0fb9ac1)">
     <use xlink:href="#m1ab11e58c3" x="439.450354" y="121.307648" style="fill: #d62728; stroke: #ffffff; stroke-width: 0.8"/>
     <use xlink:href="#m1ab11e58c3" x="493.300677" y="132.14203" style="fill: #d62728; stroke: #ffffff; stroke-width: 0.8"/>
     <use xlink:href="#m1ab11e58c3" x="583.051215" y="136.920052" style="fill: #d62728; stroke: #ffffff; stroke-width: 0.8"/>
     <use xlink:href="#m1ab11e58c3" x="672.801753" y="137.406766" style="fill: #d62728; stroke: #ffffff; stroke-width: 0.8"/>
     <use xlink:href="#m1ab11e58c3" x="762.552291" y="147.98983" style="fill: #d62728; stroke: #ffffff; stroke-width: 0.8"/>
    </g>
   </g>
   <g id="line2d_55">
    <path d="M 439.450354 157.789923 
L 493.300677 162.916328 
L 583.051215 161.953026 
L 672.801753 177.817649 
L 762.552291 167.768759 
" clip-path="url(#p6db0fb9ac1)" style="fill: none; stroke: #2ca02c; stroke-width: 2.2; stroke-linecap: round"/>
    <g clip-path="url(#p6db0fb9ac1)">
     <use xlink:href="#mcbef48500d" x="439.450354" y="157.789923" style="fill: #2ca02c; stroke: #ffffff; stroke-width: 0.8"/>
     <use xlink:href="#mcbef48500d" x="493.300677" y="162.916328" style="fill: #2ca02c; stroke: #ffffff; stroke-width: 0.8"/>
     <use xlink:href="#mcbef48500d" x="583.051215" y="161.953026" style="fill: #2ca02c; stroke: #ffffff; stroke-width: 0.8"/>
     <use xlink:href="#mcbef48500d" x="672.801753" y="177.817649" style="fill: #2ca02c; stroke: #ffffff; stroke-width: 0.8"/>
     <use xlink:href="#mcbef48500d" x="762.552291" y="167.768759" style="fill: #2ca02c; stroke: #ffffff; stroke-width: 0.8"/>
    </g>
   </g>
   <g id="line2d_56">
    <path d="M 423.295257 84.40405 
L 778.707388 84.40405 
" clip-path="url(#p6db0fb9ac1)" style="fill: none; stroke-dasharray: 1.2,1.98; stroke-dashoffset: 0; stroke: #404040; stroke-width: 1.2"/>
   </g>
   <g id="patch_9">
    <path d="M 423.295257 336.841395 
L 423.295257 46.538449 
" style="fill: none; stroke: #cccccc; stroke-linejoin: miter; stroke-linecap: square"/>
   </g>
   <g id="patch_10">
    <path d="M 423.295257 336.841395 
L 778.707388 336.841395 
" style="fill: none; stroke: #cccccc; stroke-linejoin: miter; stroke-linecap: square"/>
   </g>
   <g id="text_26">
    <!-- truck -->
    <g style="fill: #262626" transform="translate(581.886244 40.538449) scale(0.13 -0.13)">
     <defs>
      <path id="DejaVuSans-Bold-74" d="M 1759 4494 
L 1759 3500 
L 2913 3500 
L 2913 2700 
L 1759 2700 
L 1759 1216 
Q 1759 972 1856 886 
Q 1953 800 2241 800 
L 2816 800 
L 2816 0 
L 1856 0 
Q 1194 0 917 276 
Q 641 553 641 1216 
L 641 2700 
L 84 2700 
L 84 3500 
L 641 3500 
L 641 4494 
L 1759 4494 
z
" transform="scale(0.015625)"/>
      <path id="DejaVuSans-Bold-72" d="M 3138 2547 
Q 2991 2616 2845 2648 
Q 2700 2681 2553 2681 
Q 2122 2681 1889 2404 
Q 1656 2128 1656 1613 
L 1656 0 
L 538 0 
L 538 3500 
L 1656 3500 
L 1656 2925 
Q 1872 3269 2151 3426 
Q 2431 3584 2822 3584 
Q 2878 3584 2943 3579 
Q 3009 3575 3134 3559 
L 3138 2547 
z
" transform="scale(0.015625)"/>
      <path id="DejaVuSans-Bold-75" d="M 500 1363 
L 500 3500 
L 1625 3500 
L 1625 3150 
Q 1625 2866 1622 2436 
Q 1619 2006 1619 1863 
Q 1619 1441 1641 1255 
Q 1663 1069 1716 984 
Q 1784 875 1895 815 
Q 2006 756 2150 756 
Q 2500 756 2700 1025 
Q 2900 1294 2900 1772 
L 2900 3500 
L 4019 3500 
L 4019 0 
L 2900 0 
L 2900 506 
Q 2647 200 2364 54 
Q 2081 -91 1741 -91 
Q 1134 -91 817 281 
Q 500 653 500 1363 
z
" transform="scale(0.015625)"/>
      <path id="DejaVuSans-Bold-63" d="M 3366 3391 
L 3366 2478 
Q 3138 2634 2908 2709 
Q 2678 2784 2431 2784 
Q 1963 2784 1702 2511 
Q 1441 2238 1441 1747 
Q 1441 1256 1702 982 
Q 1963 709 2431 709 
Q 2694 709 2930 787 
Q 3166 866 3366 1019 
L 3366 103 
Q 3103 6 2833 -42 
Q 2563 -91 2291 -91 
Q 1344 -91 809 395 
Q 275 881 275 1747 
Q 275 2613 809 3098 
Q 1344 3584 2291 3584 
Q 2566 3584 2833 3536 
Q 3100 3488 3366 3391 
z
" transform="scale(0.015625)"/>
      <path id="DejaVuSans-Bold-6b" d="M 538 4863 
L 1656 4863 
L 1656 2216 
L 2944 3500 
L 4244 3500 
L 2534 1894 
L 4378 0 
L 3022 0 
L 1656 1459 
L 1656 0 
L 538 0 
L 538 4863 
z
" transform="scale(0.015625)"/>
     </defs>
     <use xlink:href="#DejaVuSans-Bold-74"/>
     <use xlink:href="#DejaVuSans-Bold-72" transform="translate(47.802734 0)"/>
     <use xlink:href="#DejaVuSans-Bold-75" transform="translate(97.119141 0)"/>
     <use xlink:href="#DejaVuSans-Bold-63" transform="translate(168.310547 0)"/>
     <use xlink:href="#DejaVuSans-Bold-6b" transform="translate(227.587891 0)"/>
    </g>
   </g>
  </g>
  <g id="axes_3">
   <g id="patch_11">
    <path d="M 801.387388 336.841395 
L 1156.79952 336.841395 
L 1156.79952 46.538449 
L 801.387388 46.538449 
z
" style="fill: #ffffff"/>
   </g>
   <g id="matplotlib.axis_5">
    <g id="xtick_11">
     <g id="line2d_57">
      <path d="M 853.442701 336.841395 
L 853.442701 46.538449 
" clip-path="url(#p153a108a6c)" style="fill: none; stroke: #cccccc; stroke-opacity: 0.35; stroke-width: 0.6; stroke-linecap: round"/>
     </g>
     <g id="line2d_58"/>
     <g id="text_27">
      <!-- 0.2 -->
      <g style="fill: #262626" transform="translate(845.491138 347.939832) scale(0.1 -0.1)">
       <use xlink:href="#DejaVuSans-30"/>
       <use xlink:href="#DejaVuSans-2e" transform="translate(63.623047 0)"/>
       <use xlink:href="#DejaVuSans-32" transform="translate(95.410156 0)"/>
      </g>
     </g>
    </g>
    <g id="xtick_12">
     <g id="line2d_59">
      <path d="M 925.243131 336.841395 
L 925.243131 46.538449 
" clip-path="url(#p153a108a6c)" style="fill: none; stroke: #cccccc; stroke-opacity: 0.35; stroke-width: 0.6; stroke-linecap: round"/>
     </g>
     <g id="line2d_60"/>
     <g id="text_28">
      <!-- 0.4 -->
      <g style="fill: #262626" transform="translate(917.291569 347.939832) scale(0.1 -0.1)">
       <use xlink:href="#DejaVuSans-30"/>
       <use xlink:href="#DejaVuSans-2e" transform="translate(63.623047 0)"/>
       <use xlink:href="#DejaVuSans-34" transform="translate(95.410156 0)"/>
      </g>
     </g>
    </g>
    <g id="xtick_13">
     <g id="line2d_61">
      <path d="M 997.043562 336.841395 
L 997.043562 46.538449 
" clip-path="url(#p153a108a6c)" style="fill: none; stroke: #cccccc; stroke-opacity: 0.35; stroke-width: 0.6; stroke-linecap: round"/>
     </g>
     <g id="line2d_62"/>
     <g id="text_29">
      <!-- 0.6 -->
      <g style="fill: #262626" transform="translate(989.091999 347.939832) scale(0.1 -0.1)">
       <use xlink:href="#DejaVuSans-30"/>
       <use xlink:href="#DejaVuSans-2e" transform="translate(63.623047 0)"/>
       <use xlink:href="#DejaVuSans-36" transform="translate(95.410156 0)"/>
      </g>
     </g>
    </g>
    <g id="xtick_14">
     <g id="line2d_63">
      <path d="M 1068.843992 336.841395 
L 1068.843992 46.538449 
" clip-path="url(#p153a108a6c)" style="fill: none; stroke: #cccccc; stroke-opacity: 0.35; stroke-width: 0.6; stroke-linecap: round"/>
     </g>
     <g id="line2d_64"/>
     <g id="text_30">
      <!-- 0.8 -->
      <g style="fill: #262626" transform="translate(1060.89243 347.939832) scale(0.1 -0.1)">
       <use xlink:href="#DejaVuSans-30"/>
       <use xlink:href="#DejaVuSans-2e" transform="translate(63.623047 0)"/>
       <use xlink:href="#DejaVuSans-38" transform="translate(95.410156 0)"/>
      </g>
     </g>
    </g>
    <g id="xtick_15">
     <g id="line2d_65">
      <path d="M 1140.644423 336.841395 
L 1140.644423 46.538449 
" clip-path="url(#p153a108a6c)" style="fill: none; stroke: #cccccc; stroke-opacity: 0.35; stroke-width: 0.6; stroke-linecap: round"/>
     </g>
     <g id="line2d_66"/>
     <g id="text_31">
      <!-- 1.0 -->
      <g style="fill: #262626" transform="translate(1132.692861 347.939832) scale(0.1 -0.1)">
       <use xlink:href="#DejaVuSans-31"/>
       <use xlink:href="#DejaVuSans-2e" transform="translate(63.623047 0)"/>
       <use xlink:href="#DejaVuSans-30" transform="translate(95.410156 0)"/>
      </g>
     </g>
    </g>
    <g id="text_32">
     <!-- $\beta$ -->
     <g style="fill: #262626" transform="translate(975.573454 362.48952) scale(0.11 -0.11)">
      <use xlink:href="#DejaVuSans-Oblique-3b2" transform="translate(0 0.390625)"/>
     </g>
    </g>
   </g>
   <g id="matplotlib.axis_6">
    <g id="ytick_13">
     <g id="line2d_67">
      <path d="M 801.387388 336.841395 
L 1156.79952 336.841395 
" clip-path="url(#p153a108a6c)" style="fill: none; stroke: #cccccc; stroke-opacity: 0.35; stroke-width: 0.6; stroke-linecap: round"/>
     </g>
     <g id="line2d_68"/>
    </g>
    <g id="ytick_14">
     <g id="line2d_69">
      <path d="M 801.387388 286.353926 
L 1156.79952 286.353926 
" clip-path="url(#p153a108a6c)" style="fill: none; stroke: #cccccc; stroke-opacity: 0.35; stroke-width: 0.6; stroke-linecap: round"/>
     </g>
     <g id="line2d_70"/>
    </g>
    <g id="ytick_15">
     <g id="line2d_71">
      <path d="M 801.387388 235.866457 
L 1156.79952 235.866457 
" clip-path="url(#p153a108a6c)" style="fill: none; stroke: #cccccc; stroke-opacity: 0.35; stroke-width: 0.6; stroke-linecap: round"/>
     </g>
     <g id="line2d_72"/>
    </g>
    <g id="ytick_16">
     <g id="line2d_73">
      <path d="M 801.387388 185.378988 
L 1156.79952 185.378988 
" clip-path="url(#p153a108a6c)" style="fill: none; stroke: #cccccc; stroke-opacity: 0.35; stroke-width: 0.6; stroke-linecap: round"/>
     </g>
     <g id="line2d_74"/>
    </g>
    <g id="ytick_17">
     <g id="line2d_75">
      <path d="M 801.387388 134.891519 
L 1156.79952 134.891519 
" clip-path="url(#p153a108a6c)" style="fill: none; stroke: #cccccc; stroke-opacity: 0.35; stroke-width: 0.6; stroke-linecap: round"/>
     </g>
     <g id="line2d_76"/>
    </g>
    <g id="ytick_18">
     <g id="line2d_77">
      <path d="M 801.387388 84.40405 
L 1156.79952 84.40405 
" clip-path="url(#p153a108a6c)" style="fill: none; stroke: #cccccc; stroke-opacity: 0.35; stroke-width: 0.6; stroke-linecap: round"/>
     </g>
     <g id="line2d_78"/>
    </g>
    <g id="text_33">
     <!-- cum_E_injected $/\ (\eta\,\cdot\,$cum_E_loss$)$ -->
     <g style="fill: #262626" transform="translate(794.747388 284.859922) rotate(-90) scale(0.11 -0.11)">
      <use xlink:href="#DejaVuSans-63" transform="translate(0 0.015625)"/>
      <use xlink:href="#DejaVuSans-75" transform="translate(54.980469 0.015625)"/>
      <use xlink:href="#DejaVuSans-6d" transform="translate(118.359375 0.015625)"/>
      <use xlink:href="#DejaVuSans-5f" transform="translate(215.771484 0.015625)"/>
      <use xlink:href="#DejaVuSans-45" transform="translate(265.771484 0.015625)"/>
      <use xlink:href="#DejaVuSans-5f" transform="translate(328.955078 0.015625)"/>
      <use xlink:href="#DejaVuSans-69" transform="translate(378.955078 0.015625)"/>
      <use xlink:href="#DejaVuSans-6e" transform="translate(406.738281 0.015625)"/>
      <use xlink:href="#DejaVuSans-6a" transform="translate(470.117188 0.015625)"/>
      <use xlink:href="#DejaVuSans-65" transform="translate(497.900391 0.015625)"/>
      <use xlink:href="#DejaVuSans-63" transform="translate(559.423828 0.015625)"/>
      <use xlink:href="#DejaVuSans-74" transform="translate(614.404297 0.015625)"/>
      <use xlink:href="#DejaVuSans-65" transform="translate(653.613281 0.015625)"/>
      <use xlink:href="#DejaVuSans-64" transform="translate(715.136719 0.015625)"/>
      <use xlink:href="#DejaVuSans-20" transform="translate(778.613281 0.015625)"/>
      <use xlink:href="#DejaVuSans-2f" transform="translate(810.400391 0.015625)"/>
      <use xlink:href="#DejaVuSans-28" transform="translate(876.562175 0.015625)"/>
      <use xlink:href="#DejaVuSans-Oblique-3b7" transform="translate(915.575847 0.015625)"/>
      <use xlink:href="#DejaVuSans-22c5" transform="translate(1014.672852 0.015625)"/>
      <use xlink:href="#DejaVuSans-63" transform="translate(1082.178059 0.015625)"/>
      <use xlink:href="#DejaVuSans-75" transform="translate(1137.158528 0.015625)"/>
      <use xlink:href="#DejaVuSans-6d" transform="translate(1200.537434 0.015625)"/>
      <use xlink:href="#DejaVuSans-5f" transform="translate(1297.949543 0.015625)"/>
      <use xlink:href="#DejaVuSans-45" transform="translate(1347.949543 0.015625)"/>
      <use xlink:href="#DejaVuSans-5f" transform="translate(1411.133137 0.015625)"/>
      <use xlink:href="#DejaVuSans-6c" transform="translate(1461.133137 0.015625)"/>
      <use xlink:href="#DejaVuSans-6f" transform="translate(1488.91634 0.015625)"/>
      <use xlink:href="#DejaVuSans-73" transform="translate(1550.097981 0.015625)"/>
      <use xlink:href="#DejaVuSans-73" transform="translate(1602.19759 0.015625)"/>
      <use xlink:href="#DejaVuSans-29" transform="translate(1654.2972 0.015625)"/>
     </g>
    </g>
   </g>
   <g id="patch_12">
    <path d="M 801.387388 84.40405 
L 1156.79952 84.40405 
L 1156.79952 -16.570887 
L 801.387388 -16.570887 
z
" clip-path="url(#p153a108a6c)" style="fill: #d62728; opacity: 0.06; stroke: #d62728; stroke-linejoin: miter"/>
   </g>
   <g id="line2d_79">
    <path d="M 817.542485 158.626436 
L 871.392808 211.820419 
L 961.143347 150.990267 
L 1050.893885 109.840606 
L 1140.644423 105.526997 
" clip-path="url(#p153a108a6c)" style="fill: none; stroke: #1f77b4; stroke-width: 2.2; stroke-linecap: round"/>
    <g clip-path="url(#p153a108a6c)">
     <use xlink:href="#m0c79935838" x="817.542485" y="158.626436" style="fill: #1f77b4; stroke: #ffffff; stroke-width: 0.8"/>
     <use xlink:href="#m0c79935838" x="871.392808" y="211.820419" style="fill: #1f77b4; stroke: #ffffff; stroke-width: 0.8"/>
     <use xlink:href="#m0c79935838" x="961.143347" y="150.990267" style="fill: #1f77b4; stroke: #ffffff; stroke-width: 0.8"/>
     <use xlink:href="#m0c79935838" x="1050.893885" y="109.840606" style="fill: #1f77b4; stroke: #ffffff; stroke-width: 0.8"/>
     <use xlink:href="#m0c79935838" x="1140.644423" y="105.526997" style="fill: #1f77b4; stroke: #ffffff; stroke-width: 0.8"/>
    </g>
   </g>
   <g id="line2d_80">
    <path d="M 817.542485 132.824775 
L 871.392808 156.208928 
L 961.143347 138.898887 
L 1050.893885 147.269365 
L 1140.644423 154.662014 
" clip-path="url(#p153a108a6c)" style="fill: none; stroke: #d62728; stroke-width: 2.2; stroke-linecap: round"/>
    <g clip-path="url(#p153a108a6c)">
     <use xlink:href="#m1ab11e58c3" x="817.542485" y="132.824775" style="fill: #d62728; stroke: #ffffff; stroke-width: 0.8"/>
     <use xlink:href="#m1ab11e58c3" x="871.392808" y="156.208928" style="fill: #d62728; stroke: #ffffff; stroke-width: 0.8"/>
     <use xlink:href="#m1ab11e58c3" x="961.143347" y="138.898887" style="fill: #d62728; stroke: #ffffff; stroke-width: 0.8"/>
     <use xlink:href="#m1ab11e58c3" x="1050.893885" y="147.269365" style="fill: #d62728; stroke: #ffffff; stroke-width: 0.8"/>
     <use xlink:href="#m1ab11e58c3" x="1140.644423" y="154.662014" style="fill: #d62728; stroke: #ffffff; stroke-width: 0.8"/>
    </g>
   </g>
   <g id="line2d_81">
    <path d="M 817.542485 107.679348 
L 871.392808 125.918707 
L 961.143347 162.691626 
L 1050.893885 103.057305 
L 1140.644423 114.788806 
" clip-path="url(#p153a108a6c)" style="fill: none; stroke: #2ca02c; stroke-width: 2.2; stroke-linecap: round"/>
    <g clip-path="url(#p153a108a6c)">
     <use xlink:href="#mcbef48500d" x="817.542485" y="107.679348" style="fill: #2ca02c; stroke: #ffffff; stroke-width: 0.8"/>
     <use xlink:href="#mcbef48500d" x="871.392808" y="125.918707" style="fill: #2ca02c; stroke: #ffffff; stroke-width: 0.8"/>
     <use xlink:href="#mcbef48500d" x="961.143347" y="162.691626" style="fill: #2ca02c; stroke: #ffffff; stroke-width: 0.8"/>
     <use xlink:href="#mcbef48500d" x="1050.893885" y="103.057305" style="fill: #2ca02c; stroke: #ffffff; stroke-width: 0.8"/>
     <use xlink:href="#mcbef48500d" x="1140.644423" y="114.788806" style="fill: #2ca02c; stroke: #ffffff; stroke-width: 0.8"/>
    </g>
   </g>
   <g id="line2d_82">
    <path d="M 801.387388 84.40405 
L 1156.79952 84.40405 
" clip-path="url(#p153a108a6c)" style="fill: none; stroke-dasharray: 1.2,1.98; stroke-dashoffset: 0; stroke: #404040; stroke-width: 1.2"/>
   </g>
   <g id="patch_13">
    <path d="M 801.387388 336.841395 
L 801.387388 46.538449 
" style="fill: none; stroke: #cccccc; stroke-linejoin: miter; stroke-linecap: square"/>
   </g>
   <g id="patch_14">
    <path d="M 801.387388 336.841395 
L 1156.79952 336.841395 
" style="fill: none; stroke: #cccccc; stroke-linejoin: miter; stroke-linecap: square"/>
   </g>
   <g id="text_34">
    <!-- shelf -->
    <g style="fill: #262626" transform="translate(961.133142 40.538449) scale(0.13 -0.13)">
     <defs>
      <path id="DejaVuSans-Bold-73" d="M 3272 3391 
L 3272 2541 
Q 2913 2691 2578 2766 
Q 2244 2841 1947 2841 
Q 1628 2841 1473 2761 
Q 1319 2681 1319 2516 
Q 1319 2381 1436 2309 
Q 1553 2238 1856 2203 
L 2053 2175 
Q 2913 2066 3209 1816 
Q 3506 1566 3506 1031 
Q 3506 472 3093 190 
Q 2681 -91 1863 -91 
Q 1516 -91 1145 -36 
Q 775 19 384 128 
L 384 978 
Q 719 816 1070 734 
Q 1422 653 1784 653 
Q 2113 653 2278 743 
Q 2444 834 2444 1013 
Q 2444 1163 2330 1236 
Q 2216 1309 1875 1350 
L 1678 1375 
Q 931 1469 631 1722 
Q 331 1975 331 2491 
Q 331 3047 712 3315 
Q 1094 3584 1881 3584 
Q 2191 3584 2531 3537 
Q 2872 3491 3272 3391 
z
" transform="scale(0.015625)"/>
      <path id="DejaVuSans-Bold-68" d="M 4056 2131 
L 4056 0 
L 2931 0 
L 2931 347 
L 2931 1625 
Q 2931 2084 2911 2256 
Q 2891 2428 2841 2509 
Q 2775 2619 2662 2680 
Q 2550 2741 2406 2741 
Q 2056 2741 1856 2470 
Q 1656 2200 1656 1722 
L 1656 0 
L 538 0 
L 538 4863 
L 1656 4863 
L 1656 2988 
Q 1909 3294 2193 3439 
Q 2478 3584 2822 3584 
Q 3428 3584 3742 3212 
Q 4056 2841 4056 2131 
z
" transform="scale(0.015625)"/>
      <path id="DejaVuSans-Bold-66" d="M 2841 4863 
L 2841 4128 
L 2222 4128 
Q 1984 4128 1890 4042 
Q 1797 3956 1797 3744 
L 1797 3500 
L 2753 3500 
L 2753 2700 
L 1797 2700 
L 1797 0 
L 678 0 
L 678 2700 
L 122 2700 
L 122 3500 
L 678 3500 
L 678 3744 
Q 678 4316 997 4589 
Q 1316 4863 1984 4863 
L 2841 4863 
z
" transform="scale(0.015625)"/>
     </defs>
     <use xlink:href="#DejaVuSans-Bold-73"/>
     <use xlink:href="#DejaVuSans-Bold-68" transform="translate(59.521484 0)"/>
     <use xlink:href="#DejaVuSans-Bold-65" transform="translate(130.712891 0)"/>
     <use xlink:href="#DejaVuSans-Bold-6c" transform="translate(198.535156 0)"/>
     <use xlink:href="#DejaVuSans-Bold-66" transform="translate(232.8125 0)"/>
    </g>
   </g>
  </g>
  <g id="text_35">
   <!-- B3 — $\beta$ sweep: passive paths stay $\leq$ 1; patch mode is $\beta$-insensitive -->
   <g style="fill: #262626" transform="translate(318.91976 21.58) scale(0.14 -0.14)">
    <defs>
     <path id="DejaVuSans-Bold-42" d="M 2456 2859 
Q 2741 2859 2887 2984 
Q 3034 3109 3034 3353 
Q 3034 3594 2887 3720 
Q 2741 3847 2456 3847 
L 1791 3847 
L 1791 2859 
L 2456 2859 
z
M 2497 819 
Q 2859 819 3042 972 
Q 3225 1125 3225 1434 
Q 3225 1738 3044 1889 
Q 2863 2041 2497 2041 
L 1791 2041 
L 1791 819 
L 2497 819 
z
M 3616 2497 
Q 4003 2384 4215 2081 
Q 4428 1778 4428 1338 
Q 4428 663 3972 331 
Q 3516 0 2584 0 
L 588 0 
L 588 4666 
L 2394 4666 
Q 3366 4666 3802 4372 
Q 4238 4078 4238 3431 
Q 4238 3091 4078 2852 
Q 3919 2613 3616 2497 
z
" transform="scale(0.015625)"/>
     <path id="DejaVuSans-Bold-33" d="M 2981 2516 
Q 3453 2394 3698 2092 
Q 3944 1791 3944 1325 
Q 3944 631 3412 270 
Q 2881 -91 1863 -91 
Q 1503 -91 1142 -33 
Q 781 25 428 141 
L 428 1069 
Q 766 900 1098 814 
Q 1431 728 1753 728 
Q 2231 728 2486 893 
Q 2741 1059 2741 1369 
Q 2741 1688 2480 1852 
Q 2219 2016 1709 2016 
L 1228 2016 
L 1228 2791 
L 1734 2791 
Q 2188 2791 2409 2933 
Q 2631 3075 2631 3366 
Q 2631 3634 2415 3781 
Q 2200 3928 1806 3928 
Q 1516 3928 1219 3862 
Q 922 3797 628 3669 
L 628 4550 
Q 984 4650 1334 4700 
Q 1684 4750 2022 4750 
Q 2931 4750 3382 4451 
Q 3834 4153 3834 3553 
Q 3834 3144 3618 2883 
Q 3403 2622 2981 2516 
z
" transform="scale(0.015625)"/>
     <path id="DejaVuSans-Bold-20" transform="scale(0.015625)"/>
     <path id="DejaVuSansDisplay-2014" d="M 313 1978 
L 6088 1978 
L 6088 1528 
L 313 1528 
L 313 1978 
z
" transform="scale(0.015625)"/>
     <path id="DejaVuSans-Bold-77" d="M 225 3500 
L 1313 3500 
L 1900 1088 
L 2491 3500 
L 3425 3500 
L 4013 1113 
L 4603 3500 
L 5691 3500 
L 4769 0 
L 3547 0 
L 2956 2406 
L 2369 0 
L 1147 0 
L 225 3500 
z
" transform="scale(0.015625)"/>
     <path id="DejaVuSans-Bold-70" d="M 1656 506 
L 1656 -1331 
L 538 -1331 
L 538 3500 
L 1656 3500 
L 1656 2988 
Q 1888 3294 2169 3439 
Q 2450 3584 2816 3584 
Q 3463 3584 3878 3070 
Q 4294 2556 4294 1747 
Q 4294 938 3878 423 
Q 3463 -91 2816 -91 
Q 2450 -91 2169 54 
Q 1888 200 1656 506 
z
M 2400 2772 
Q 2041 2772 1848 2508 
Q 1656 2244 1656 1747 
Q 1656 1250 1848 986 
Q 2041 722 2400 722 
Q 2759 722 2948 984 
Q 3138 1247 3138 1747 
Q 3138 2247 2948 2509 
Q 2759 2772 2400 2772 
z
" transform="scale(0.015625)"/>
     <path id="DejaVuSans-Bold-3a" d="M 716 3500 
L 1844 3500 
L 1844 2291 
L 716 2291 
L 716 3500 
z
M 716 1209 
L 1844 1209 
L 1844 0 
L 716 0 
L 716 1209 
z
" transform="scale(0.015625)"/>
     <path id="DejaVuSans-Bold-61" d="M 2106 1575 
Q 1756 1575 1579 1456 
Q 1403 1338 1403 1106 
Q 1403 894 1545 773 
Q 1688 653 1941 653 
Q 2256 653 2472 879 
Q 2688 1106 2688 1447 
L 2688 1575 
L 2106 1575 
z
M 3816 1997 
L 3816 0 
L 2688 0 
L 2688 519 
Q 2463 200 2181 54 
Q 1900 -91 1497 -91 
Q 953 -91 614 226 
Q 275 544 275 1050 
Q 275 1666 698 1953 
Q 1122 2241 2028 2241 
L 2688 2241 
L 2688 2328 
Q 2688 2594 2478 2717 
Q 2269 2841 1825 2841 
Q 1466 2841 1156 2769 
Q 847 2697 581 2553 
L 581 3406 
Q 941 3494 1303 3539 
Q 1666 3584 2028 3584 
Q 2975 3584 3395 3211 
Q 3816 2838 3816 1997 
z
" transform="scale(0.015625)"/>
     <path id="DejaVuSans-Bold-69" d="M 538 3500 
L 1656 3500 
L 1656 0 
L 538 0 
L 538 3500 
z
M 538 4863 
L 1656 4863 
L 1656 3950 
L 538 3950 
L 538 4863 
z
" transform="scale(0.015625)"/>
     <path id="DejaVuSans-Bold-76" d="M 97 3500 
L 1216 3500 
L 2088 1081 
L 2956 3500 
L 4078 3500 
L 2700 0 
L 1472 0 
L 97 3500 
z
" transform="scale(0.015625)"/>
     <path id="DejaVuSans-Bold-79" d="M 78 3500 
L 1197 3500 
L 2138 1125 
L 2938 3500 
L 4056 3500 
L 2584 -331 
Q 2363 -916 2067 -1148 
Q 1772 -1381 1288 -1381 
L 641 -1381 
L 641 -647 
L 991 -647 
Q 1275 -647 1404 -556 
Q 1534 -466 1606 -231 
L 1638 -134 
L 78 3500 
z
" transform="scale(0.015625)"/>
     <path id="DejaVuSans-2264" d="M 4684 3175 
L 1684 2309 
L 4684 1453 
L 4684 897 
L 678 2047 
L 678 2578 
L 4684 3725 
L 4684 3175 
z
M 678 531 
L 4684 531 
L 4684 0 
L 678 0 
L 678 531 
z
" transform="scale(0.015625)"/>
     <path id="DejaVuSans-Bold-31" d="M 750 831 
L 1813 831 
L 1813 3847 
L 722 3622 
L 722 4441 
L 1806 4666 
L 2950 4666 
L 2950 831 
L 4013 831 
L 4013 0 
L 750 0 
L 750 831 
z
" transform="scale(0.015625)"/>
     <path id="DejaVuSans-Bold-3b" d="M 716 1209 
L 1844 1209 
L 1844 256 
L 1069 -909 
L 403 -909 
L 716 256 
L 716 1209 
z
M 716 3500 
L 1844 3500 
L 1844 2291 
L 716 2291 
L 716 3500 
z
" transform="scale(0.015625)"/>
     <path id="DejaVuSans-Bold-6d" d="M 3781 2919 
Q 3994 3244 4286 3414 
Q 4578 3584 4928 3584 
Q 5531 3584 5847 3212 
Q 6163 2841 6163 2131 
L 6163 0 
L 5038 0 
L 5038 1825 
Q 5041 1866 5042 1909 
Q 5044 1953 5044 2034 
Q 5044 2406 4934 2573 
Q 4825 2741 4581 2741 
Q 4263 2741 4089 2478 
Q 3916 2216 3909 1719 
L 3909 0 
L 2784 0 
L 2784 1825 
Q 2784 2406 2684 2573 
Q 2584 2741 2328 2741 
Q 2006 2741 1831 2477 
Q 1656 2213 1656 1722 
L 1656 0 
L 531 0 
L 531 3500 
L 1656 3500 
L 1656 2988 
Q 1863 3284 2130 3434 
Q 2397 3584 2719 3584 
Q 3081 3584 3359 3409 
Q 3638 3234 3781 2919 
z
" transform="scale(0.015625)"/>
     <path id="DejaVuSans-Bold-6f" d="M 2203 2784 
Q 1831 2784 1636 2517 
Q 1441 2250 1441 1747 
Q 1441 1244 1636 976 
Q 1831 709 2203 709 
Q 2569 709 2762 976 
Q 2956 1244 2956 1747 
Q 2956 2250 2762 2517 
Q 2569 2784 2203 2784 
z
M 2203 3584 
Q 3106 3584 3614 3096 
Q 4122 2609 4122 1747 
Q 4122 884 3614 396 
Q 3106 -91 2203 -91 
Q 1297 -91 786 396 
Q 275 884 275 1747 
Q 275 2609 786 3096 
Q 1297 3584 2203 3584 
z
" transform="scale(0.015625)"/>
     <path id="DejaVuSans-Bold-2d" d="M 347 2297 
L 2309 2297 
L 2309 1388 
L 347 1388 
L 347 2297 
z
" transform="scale(0.015625)"/>
     <path id="DejaVuSans-Bold-6e" d="M 4056 2131 
L 4056 0 
L 2931 0 
L 2931 347 
L 2931 1631 
Q 2931 2084 2911 2256 
Q 2891 2428 2841 2509 
Q 2775 2619 2662 2680 
Q 2550 2741 2406 2741 
Q 2056 2741 1856 2470 
Q 1656 2200 1656 1722 
L 1656 0 
L 538 0 
L 538 3500 
L 1656 3500 
L 1656 2988 
Q 1909 3294 2193 3439 
Q 2478 3584 2822 3584 
Q 3428 3584 3742 3212 
Q 4056 2841 4056 2131 
z
" transform="scale(0.015625)"/>
    </defs>
    <use xlink:href="#DejaVuSans-Bold-42" transform="translate(0 0.390625)"/>
    <use xlink:href="#DejaVuSans-Bold-33" transform="translate(76.220703 0.390625)"/>
    <use xlink:href="#DejaVuSans-Bold-20" transform="translate(145.800781 0.390625)"/>
    <use xlink:href="#DejaVuSansDisplay-2014" transform="translate(180.615234 0.390625)"/>
    <use xlink:href="#DejaVuSans-Bold-20" transform="translate(280.615234 0.390625)"/>
    <use xlink:href="#DejaVuSans-Oblique-3b2" transform="translate(315.429688 0.390625)"/>
    <use xlink:href="#DejaVuSans-Bold-20" transform="translate(379.248047 0.390625)"/>
    <use xlink:href="#DejaVuSans-Bold-73" transform="translate(414.0625 0.390625)"/>
    <use xlink:href="#DejaVuSans-Bold-77" transform="translate(473.583984 0.390625)"/>
    <use xlink:href="#DejaVuSans-Bold-65" transform="translate(565.966797 0.390625)"/>
    <use xlink:href="#DejaVuSans-Bold-65" transform="translate(633.789062 0.390625)"/>
    <use xlink:href="#DejaVuSans-Bold-70" transform="translate(701.611328 0.390625)"/>
    <use xlink:href="#DejaVuSans-Bold-3a" transform="translate(773.193359 0.390625)"/>
    <use xlink:href="#DejaVuSans-Bold-20" transform="translate(813.183594 0.390625)"/>
    <use xlink:href="#DejaVuSans-Bold-70" transform="translate(847.998047 0.390625)"/>
    <use xlink:href="#DejaVuSans-Bold-61" transform="translate(919.580078 0.390625)"/>
    <use xlink:href="#DejaVuSans-Bold-73" transform="translate(987.060547 0.390625)"/>
    <use xlink:href="#DejaVuSans-Bold-73" transform="translate(1046.582031 0.390625)"/>
    <use xlink:href="#DejaVuSans-Bold-69" transform="translate(1106.103516 0.390625)"/>
    <use xlink:href="#DejaVuSans-Bold-76" transform="translate(1140.380859 0.390625)"/>
    <use xlink:href="#DejaVuSans-Bold-65" transform="translate(1205.566406 0.390625)"/>
    <use xlink:href="#DejaVuSans-Bold-20" transform="translate(1273.388672 0.390625)"/>
    <use xlink:href="#DejaVuSans-Bold-70" transform="translate(1308.203125 0.390625)"/>
    <use xlink:href="#DejaVuSans-Bold-61" transform="translate(1379.785156 0.390625)"/>
    <use xlink:href="#DejaVuSans-Bold-74" transform="translate(1447.265625 0.390625)"/>
    <use xlink:href="#DejaVuSans-Bold-68" transform="translate(1495.068359 0.390625)"/>
    <use xlink:href="#DejaVuSans-Bold-73" transform="translate(1566.259766 0.390625)"/>
    <use xlink:href="#DejaVuSans-Bold-20" transform="translate(1625.78125 0.390625)"/>
    <use xlink:href="#DejaVuSans-Bold-73" transform="translate(1660.595703 0.390625)"/>
    <use xlink:href="#DejaVuSans-Bold-74" transform="translate(1720.117188 0.390625)"/>
    <use xlink:href="#DejaVuSans-Bold-61" transform="translate(1767.919922 0.390625)"/>
    <use xlink:href="#DejaVuSans-Bold-79" transform="translate(1835.400391 0.390625)"/>
    <use xlink:href="#DejaVuSans-Bold-20" transform="translate(1900.585938 0.390625)"/>
    <use xlink:href="#DejaVuSans-2264" transform="translate(1954.882812 0.390625)"/>
    <use xlink:href="#DejaVuSans-Bold-20" transform="translate(2058.154297 0.390625)"/>
    <use xlink:href="#DejaVuSans-Bold-31" transform="translate(2092.96875 0.390625)"/>
    <use xlink:href="#DejaVuSans-Bold-3b" transform="translate(2162.548828 0.390625)"/>
    <use xlink:href="#DejaVuSans-Bold-20" transform="translate(2202.539062 0.390625)"/>
    <use xlink:href="#DejaVuSans-Bold-70" transform="translate(2237.353516 0.390625)"/>
    <use xlink:href="#DejaVuSans-Bold-61" transform="translate(2308.935547 0.390625)"/>
    <use xlink:href="#DejaVuSans-Bold-74" transform="translate(2376.416016 0.390625)"/>
    <use xlink:href="#DejaVuSans-Bold-63" transform="translate(2424.21875 0.390625)"/>
    <use xlink:href="#DejaVuSans-Bold-68" transform="translate(2483.496094 0.390625)"/>
    <use xlink:href="#DejaVuSans-Bold-20" transform="translate(2554.6875 0.390625)"/>
    <use xlink:href="#DejaVuSans-Bold-6d" transform="translate(2589.501953 0.390625)"/>
    <use xlink:href="#DejaVuSans-Bold-6f" transform="translate(2693.701172 0.390625)"/>
    <use xlink:href="#DejaVuSans-Bold-64" transform="translate(2762.402344 0.390625)"/>
    <use xlink:href="#DejaVuSans-Bold-65" transform="translate(2833.984375 0.390625)"/>
    <use xlink:href="#DejaVuSans-Bold-20" transform="translate(2901.806641 0.390625)"/>
    <use xlink:href="#DejaVuSans-Bold-69" transform="translate(2936.621094 0.390625)"/>
    <use xlink:href="#DejaVuSans-Bold-73" transform="translate(2970.898438 0.390625)"/>
    <use xlink:href="#DejaVuSans-Bold-20" transform="translate(3030.419922 0.390625)"/>
    <use xlink:href="#DejaVuSans-Oblique-3b2" transform="translate(3065.234375 0.390625)"/>
    <use xlink:href="#DejaVuSans-Bold-2d" transform="translate(3129.052734 0.390625)"/>
    <use xlink:href="#DejaVuSans-Bold-69" transform="translate(3170.556641 0.390625)"/>
    <use xlink:href="#DejaVuSans-Bold-6e" transform="translate(3204.833984 0.390625)"/>
    <use xlink:href="#DejaVuSans-Bold-73" transform="translate(3276.025391 0.390625)"/>
    <use xlink:href="#DejaVuSans-Bold-65" transform="translate(3335.546875 0.390625)"/>
    <use xlink:href="#DejaVuSans-Bold-6e" transform="translate(3403.369141 0.390625)"/>
    <use xlink:href="#DejaVuSans-Bold-73" transform="translate(3474.560547 0.390625)"/>
    <use xlink:href="#DejaVuSans-Bold-69" transform="translate(3534.082031 0.390625)"/>
    <use xlink:href="#DejaVuSans-Bold-74" transform="translate(3568.359375 0.390625)"/>
    <use xlink:href="#DejaVuSans-Bold-69" transform="translate(3616.162109 0.390625)"/>
    <use xlink:href="#DejaVuSans-Bold-76" transform="translate(3650.439453 0.390625)"/>
    <use xlink:href="#DejaVuSans-Bold-65" transform="translate(3715.625 0.390625)"/>
   </g>
  </g>
 </g>
 <defs>
  <clipPath id="p6840d37609">
   <rect x="45.203125" y="46.538449" width="355.412132" height="290.302946"/>
  </clipPath>
  <clipPath id="p6db0fb9ac1">
   <rect x="423.295257" y="46.538449" width="355.412132" height="290.302946"/>
  </clipPath>
  <clipPath id="p153a108a6c">
   <rect x="801.387388" y="46.538449" width="355.412132" height="290.302946"/>
  </clipPath>
 </defs>
</svg>
