<?xml version="1.0" encoding="utf-8" standalone="no"?>
<!DOCTYPE svg PUBLIC "-//W3C//DTD SVG 1.1//EN"
  "http://www.w3.org/Graphics/SVG/1.1/DTD/svg11.dtd">
<svg xmlns:xlink="http://www.w3.org/1999/xlink" width="951.59952pt" height="361.19952pt" viewBox="0 0 951.59952 361.19952" xmlns="http://www.w3.org/2000/svg" version="1.1">
 <metadata>
  <rdf:RDF xmlns:dc="http://purl.org/dc/elements/1.1/" xmlns:cc="http://creativecommons.org/ns#" xmlns:rdf="http://www.w3.org/1999/02/22-rdf-syntax-ns#">
   <cc:Work>
    <dc:type rdf:resource="http://purl.org/dc/dcmitype/StillImage"/>
    <dc:date>2026-05-26T14:32:40.624489</dc:date>
    <dc:format>image/svg+xml</dc:format>
    <dc:creator>
     <cc:Agent>
      <dc:title>Matplotlib v3.10.9, https://matplotlib.org/</dc:title>
     </cc:Agent>
    </dc:creator>
   </cc:Work>
  </rdf:RDF>
 </metadata>
 <defs>
  <style type="text/css">*{stroke-linejoin: round; stroke-linecap: butt}</style>
 </defs>
 <g id="figure_1">
  <g id="patch_1">
   <path d="M 0 361.19952 
L 951.59952 361.19952 
L 951.59952 0 
L 0 0 
z
" style="fill: #ffffff"/>
  </g>
  <g id="axes_1">
   <g id="patch_2">
    <path d="M 54.395938 322.575458 
L 475.716166 322.575458 
L 475.716166 46.33923 
L 54.395938 46.33923 
z
" style="fill: #ffffff"/>
   </g>
   <g id="matplotlib.axis_1">
    <g id="xtick_1">
     <g id="line2d_1">
      <path d="M 116.104456 322.575458 
L 116.104456 46.33923 
" clip-path="url(#p93c92615eb)" style="fill: none; stroke: #cccccc; stroke-opacity: 0.35; stroke-width: 0.6; stroke-linecap: round"/>
     </g>
     <g id="line2d_2"/>
     <g id="text_1">
      <!-- 0.2 -->
      <g style="fill: #262626" transform="translate(108.152893 333.673895) scale(0.1 -0.1)">
       <defs>
        <path id="DejaVuSans-30" d="M 2034 4250 
Q 1547 4250 1301 3770 
Q 1056 3291 1056 2328 
Q 1056 1369 1301 889 
Q 1547 409 2034 409 
Q 2525 409 2770 889 
Q 3016 1369 3016 2328 
Q 3016 3291 2770 3770 
Q 2525 4250 2034 4250 
z
M 2034 4750 
Q 2819 4750 3233 4129 
Q 3647 3509 3647 2328 
Q 3647 1150 3233 529 
Q 2819 -91 2034 -91 
Q 1250 -91 836 529 
Q 422 1150 422 2328 
Q 422 3509 836 4129 
Q 1250 4750 2034 4750 
z
" transform="scale(0.015625)"/>
        <path id="DejaVuSans-2e" d="M 684 794 
L 1344 794 
L 1344 0 
L 684 0 
L 684 794 
z
" transform="scale(0.015625)"/>
        <path id="DejaVuSans-32" d="M 1228 531 
L 3431 531 
L 3431 0 
L 469 0 
L 469 531 
Q 828 903 1448 1529 
Q 2069 2156 2228 2338 
Q 2531 2678 2651 2914 
Q 2772 3150 2772 3378 
Q 2772 3750 2511 3984 
Q 2250 4219 1831 4219 
Q 1534 4219 1204 4116 
Q 875 4013 500 3803 
L 500 4441 
Q 881 4594 1212 4672 
Q 1544 4750 1819 4750 
Q 2544 4750 2975 4387 
Q 3406 4025 3406 3419 
Q 3406 3131 3298 2873 
Q 3191 2616 2906 2266 
Q 2828 2175 2409 1742 
Q 1991 1309 1228 531 
z
" transform="scale(0.015625)"/>
       </defs>
       <use xlink:href="#DejaVuSans-30"/>
       <use xlink:href="#DejaVuSans-2e" transform="translate(63.623047 0)"/>
       <use xlink:href="#DejaVuSans-32" transform="translate(95.410156 0)"/>
      </g>
     </g>
    </g>
    <g id="xtick_2">
     <g id="line2d_3">
      <path d="M 201.219654 322.575458 
L 201.219654 46.33923 
" clip-path="url(#p93c92615eb)" style="fill: none; stroke: #cccccc; stroke-opacity: 0.35; stroke-width: 0.6; stroke-linecap: round"/>
     </g>
     <g id="line2d_4"/>
     <g id="text_2">
      <!-- 0.4 -->
      <g style="fill: #262626" transform="translate(193.268091 333.673895) scale(0.1 -0.1)">
       <defs>
        <path id="DejaVuSans-34" d="M 2419 4116 
L 825 1625 
L 2419 1625 
L 2419 4116 
z
M 2253 4666 
L 3047 4666 
L 3047 1625 
L 3713 1625 
L 3713 1100 
L 3047 1100 
L 3047 0 
L 2419 0 
L 2419 1100 
L 313 1100 
L 313 1709 
L 2253 4666 
z
" transform="scale(0.015625)"/>
       </defs>
       <use xlink:href="#DejaVuSans-30"/>
       <use xlink:href="#DejaVuSans-2e" transform="translate(63.623047 0)"/>
       <use xlink:href="#DejaVuSans-34" transform="translate(95.410156 0)"/>
      </g>
     </g>
    </g>
    <g id="xtick_3">
     <g id="line2d_5">
      <path d="M 286.334851 322.575458 
L 286.334851 46.33923 
" clip-path="url(#p93c92615eb)" style="fill: none; stroke: #cccccc; stroke-opacity: 0.35; stroke-width: 0.6; stroke-linecap: round"/>
     </g>
     <g id="line2d_6"/>
     <g id="text_3">
      <!-- 0.6 -->
      <g style="fill: #262626" transform="translate(278.383289 333.673895) scale(0.1 -0.1)">
       <defs>
        <path id="DejaVuSans-36" d="M 2113 2584 
Q 1688 2584 1439 2293 
Q 1191 2003 1191 1497 
Q 1191 994 1439 701 
Q 1688 409 2113 409 
Q 2538 409 2786 701 
Q 3034 994 3034 1497 
Q 3034 2003 2786 2293 
Q 2538 2584 2113 2584 
z
M 3366 4563 
L 3366 3988 
Q 3128 4100 2886 4159 
Q 2644 4219 2406 4219 
Q 1781 4219 1451 3797 
Q 1122 3375 1075 2522 
Q 1259 2794 1537 2939 
Q 1816 3084 2150 3084 
Q 2853 3084 3261 2657 
Q 3669 2231 3669 1497 
Q 3669 778 3244 343 
Q 2819 -91 2113 -91 
Q 1303 -91 875 529 
Q 447 1150 447 2328 
Q 447 3434 972 4092 
Q 1497 4750 2381 4750 
Q 2619 4750 2861 4703 
Q 3103 4656 3366 4563 
z
" transform="scale(0.015625)"/>
       </defs>
       <use xlink:href="#DejaVuSans-30"/>
       <use xlink:href="#DejaVuSans-2e" transform="translate(63.623047 0)"/>
       <use xlink:href="#DejaVuSans-36" transform="translate(95.410156 0)"/>
      </g>
     </g>
    </g>
    <g id="xtick_4">
     <g id="line2d_7">
      <path d="M 371.450049 322.575458 
L 371.450049 46.33923 
" clip-path="url(#p93c92615eb)" style="fill: none; stroke: #cccccc; stroke-opacity: 0.35; stroke-width: 0.6; stroke-linecap: round"/>
     </g>
     <g id="line2d_8"/>
     <g id="text_4">
      <!-- 0.8 -->
      <g style="fill: #262626" transform="translate(363.498487 333.673895) scale(0.1 -0.1)">
       <defs>
        <path id="DejaVuSans-38" d="M 2034 2216 
Q 1584 2216 1326 1975 
Q 1069 1734 1069 1313 
Q 1069 891 1326 650 
Q 1584 409 2034 409 
Q 2484 409 2743 651 
Q 3003 894 3003 1313 
Q 3003 1734 2745 1975 
Q 2488 2216 2034 2216 
z
M 1403 2484 
Q 997 2584 770 2862 
Q 544 3141 544 3541 
Q 544 4100 942 4425 
Q 1341 4750 2034 4750 
Q 2731 4750 3128 4425 
Q 3525 4100 3525 3541 
Q 3525 3141 3298 2862 
Q 3072 2584 2669 2484 
Q 3125 2378 3379 2068 
Q 3634 1759 3634 1313 
Q 3634 634 3220 271 
Q 2806 -91 2034 -91 
Q 1263 -91 848 271 
Q 434 634 434 1313 
Q 434 1759 690 2068 
Q 947 2378 1403 2484 
z
M 1172 3481 
Q 1172 3119 1398 2916 
Q 1625 2713 2034 2713 
Q 2441 2713 2670 2916 
Q 2900 3119 2900 3481 
Q 2900 3844 2670 4047 
Q 2441 4250 2034 4250 
Q 1625 4250 1398 4047 
Q 1172 3844 1172 3481 
z
" transform="scale(0.015625)"/>
       </defs>
       <use xlink:href="#DejaVuSans-30"/>
       <use xlink:href="#DejaVuSans-2e" transform="translate(63.623047 0)"/>
       <use xlink:href="#DejaVuSans-38" transform="translate(95.410156 0)"/>
      </g>
     </g>
    </g>
    <g id="xtick_5">
     <g id="line2d_9">
      <path d="M 456.565247 322.575458 
L 456.565247 46.33923 
" clip-path="url(#p93c92615eb)" style="fill: none; stroke: #cccccc; stroke-opacity: 0.35; stroke-width: 0.6; stroke-linecap: round"/>
     </g>
     <g id="line2d_10"/>
     <g id="text_5">
      <!-- 1.0 -->
      <g style="fill: #262626" transform="translate(448.613684 333.673895) scale(0.1 -0.1)">
       <defs>
        <path id="DejaVuSans-31" d="M 794 531 
L 1825 531 
L 1825 4091 
L 703 3866 
L 703 4441 
L 1819 4666 
L 2450 4666 
L 2450 531 
L 3481 531 
L 3481 0 
L 794 0 
L 794 531 
z
" transform="scale(0.015625)"/>
       </defs>
       <use xlink:href="#DejaVuSans-31"/>
       <use xlink:href="#DejaVuSans-2e" transform="translate(63.623047 0)"/>
       <use xlink:href="#DejaVuSans-30" transform="translate(95.410156 0)"/>
      </g>
     </g>
    </g>
    <g id="text_6">
     <!-- $\eta$ -->
     <g style="fill: #262626" transform="translate(261.536052 348.08952) scale(0.11 -0.11)">
      <defs>
       <path id="DejaVuSans-Oblique-3b7" d="M 3703 2113 
L 3034 -1331 
L 2459 -1331 
L 3125 2094 
Q 3222 2591 3075 2838 
Q 2931 3084 2544 3084 
Q 2078 3084 1750 2788 
Q 1425 2491 1325 1978 
L 941 0 
L 363 0 
L 1044 3500 
L 1622 3500 
L 1516 2956 
Q 1781 3272 2094 3428 
Q 2403 3584 2769 3584 
Q 3372 3584 3609 3213 
Q 3844 2838 3703 2113 
z
" transform="scale(0.015625)"/>
      </defs>
      <use xlink:href="#DejaVuSans-Oblique-3b7"/>
     </g>
    </g>
   </g>
   <g id="matplotlib.axis_2">
    <g id="ytick_1">
     <g id="line2d_11">
      <path d="M 54.395938 294.592562 
L 475.716166 294.592562 
" clip-path="url(#p93c92615eb)" style="fill: none; stroke: #cccccc; stroke-opacity: 0.35; stroke-width: 0.6; stroke-linecap: round"/>
     </g>
     <g id="line2d_12"/>
     <g id="text_7">
      <!-- 500 -->
      <g style="fill: #262626" transform="translate(31.808438 298.391781) scale(0.1 -0.1)">
       <defs>
        <path id="DejaVuSans-35" d="M 691 4666 
L 3169 4666 
L 3169 4134 
L 1269 4134 
L 1269 2991 
Q 1406 3038 1543 3061 
Q 1681 3084 1819 3084 
Q 2600 3084 3056 2656 
Q 3513 2228 3513 1497 
Q 3513 744 3044 326 
Q 2575 -91 1722 -91 
Q 1428 -91 1123 -41 
Q 819 9 494 109 
L 494 744 
Q 775 591 1075 516 
Q 1375 441 1709 441 
Q 2250 441 2565 725 
Q 2881 1009 2881 1497 
Q 2881 1984 2565 2268 
Q 2250 2553 1709 2553 
Q 1456 2553 1204 2497 
Q 953 2441 691 2322 
L 691 4666 
z
" transform="scale(0.015625)"/>
       </defs>
       <use xlink:href="#DejaVuSans-35"/>
       <use xlink:href="#DejaVuSans-30" transform="translate(63.623047 0)"/>
       <use xlink:href="#DejaVuSans-30" transform="translate(127.246094 0)"/>
      </g>
     </g>
    </g>
    <g id="ytick_2">
     <g id="line2d_13">
      <path d="M 54.395938 258.344826 
L 475.716166 258.344826 
" clip-path="url(#p93c92615eb)" style="fill: none; stroke: #cccccc; stroke-opacity: 0.35; stroke-width: 0.6; stroke-linecap: round"/>
     </g>
     <g id="line2d_14"/>
     <g id="text_8">
      <!-- 1000 -->
      <g style="fill: #262626" transform="translate(25.445938 262.144045) scale(0.1 -0.1)">
       <use xlink:href="#DejaVuSans-31"/>
       <use xlink:href="#DejaVuSans-30" transform="translate(63.623047 0)"/>
       <use xlink:href="#DejaVuSans-30" transform="translate(127.246094 0)"/>
       <use xlink:href="#DejaVuSans-30" transform="translate(190.869141 0)"/>
      </g>
     </g>
    </g>
    <g id="ytick_3">
     <g id="line2d_15">
      <path d="M 54.395938 222.097091 
L 475.716166 222.097091 
" clip-path="url(#p93c92615eb)" style="fill: none; stroke: #cccccc; stroke-opacity: 0.35; stroke-width: 0.6; stroke-linecap: round"/>
     </g>
     <g id="line2d_16"/>
     <g id="text_9">
      <!-- 1500 -->
      <g style="fill: #262626" transform="translate(25.445938 225.89631) scale(0.1 -0.1)">
       <use xlink:href="#DejaVuSans-31"/>
       <use xlink:href="#DejaVuSans-35" transform="translate(63.623047 0)"/>
       <use xlink:href="#DejaVuSans-30" transform="translate(127.246094 0)"/>
       <use xlink:href="#DejaVuSans-30" transform="translate(190.869141 0)"/>
      </g>
     </g>
    </g>
    <g id="ytick_4">
     <g id="line2d_17">
      <path d="M 54.395938 185.849355 
L 475.716166 185.849355 
" clip-path="url(#p93c92615eb)" style="fill: none; stroke: #cccccc; stroke-opacity: 0.35; stroke-width: 0.6; stroke-linecap: round"/>
     </g>
     <g id="line2d_18"/>
     <g id="text_10">
      <!-- 2000 -->
      <g style="fill: #262626" transform="translate(25.445938 189.648574) scale(0.1 -0.1)">
       <use xlink:href="#DejaVuSans-32"/>
       <use xlink:href="#DejaVuSans-30" transform="translate(63.623047 0)"/>
       <use xlink:href="#DejaVuSans-30" transform="translate(127.246094 0)"/>
       <use xlink:href="#DejaVuSans-30" transform="translate(190.869141 0)"/>
      </g>
     </g>
    </g>
    <g id="ytick_5">
     <g id="line2d_19">
      <path d="M 54.395938 149.60162 
L 475.716166 149.60162 
" clip-path="url(#p93c92615eb)" style="fill: none; stroke: #cccccc; stroke-opacity: 0.35; stroke-width: 0.6; stroke-linecap: round"/>
     </g>
     <g id="line2d_20"/>
     <g id="text_11">
      <!-- 2500 -->
      <g style="fill: #262626" transform="translate(25.445938 153.400839) scale(0.1 -0.1)">
       <use xlink:href="#DejaVuSans-32"/>
       <use xlink:href="#DejaVuSans-35" transform="translate(63.623047 0)"/>
       <use xlink:href="#DejaVuSans-30" transform="translate(127.246094 0)"/>
       <use xlink:href="#DejaVuSans-30" transform="translate(190.869141 0)"/>
      </g>
     </g>
    </g>
    <g id="ytick_6">
     <g id="line2d_21">
      <path d="M 54.395938 113.353884 
L 475.716166 113.353884 
" clip-path="url(#p93c92615eb)" style="fill: none; stroke: #cccccc; stroke-opacity: 0.35; stroke-width: 0.6; stroke-linecap: round"/>
     </g>
     <g id="line2d_22"/>
     <g id="text_12">
      <!-- 3000 -->
      <g style="fill: #262626" transform="translate(25.445938 117.153103) scale(0.1 -0.1)">
       <defs>
        <path id="DejaVuSans-33" d="M 2597 2516 
Q 3050 2419 3304 2112 
Q 3559 1806 3559 1356 
Q 3559 666 3084 287 
Q 2609 -91 1734 -91 
Q 1441 -91 1130 -33 
Q 819 25 488 141 
L 488 750 
Q 750 597 1062 519 
Q 1375 441 1716 441 
Q 2309 441 2620 675 
Q 2931 909 2931 1356 
Q 2931 1769 2642 2001 
Q 2353 2234 1838 2234 
L 1294 2234 
L 1294 2753 
L 1863 2753 
Q 2328 2753 2575 2939 
Q 2822 3125 2822 3475 
Q 2822 3834 2567 4026 
Q 2313 4219 1838 4219 
Q 1578 4219 1281 4162 
Q 984 4106 628 3988 
L 628 4550 
Q 988 4650 1302 4700 
Q 1616 4750 1894 4750 
Q 2613 4750 3031 4423 
Q 3450 4097 3450 3541 
Q 3450 3153 3228 2886 
Q 3006 2619 2597 2516 
z
" transform="scale(0.015625)"/>
       </defs>
       <use xlink:href="#DejaVuSans-33"/>
       <use xlink:href="#DejaVuSans-30" transform="translate(63.623047 0)"/>
       <use xlink:href="#DejaVuSans-30" transform="translate(127.246094 0)"/>
       <use xlink:href="#DejaVuSans-30" transform="translate(190.869141 0)"/>
      </g>
     </g>
    </g>
    <g id="ytick_7">
     <g id="line2d_23">
      <path d="M 54.395938 77.106149 
L 475.716166 77.106149 
" clip-path="url(#p93c92615eb)" style="fill: none; stroke: #cccccc; stroke-opacity: 0.35; stroke-width: 0.6; stroke-linecap: round"/>
     </g>
     <g id="line2d_24"/>
     <g id="text_13">
      <!-- 3500 -->
      <g style="fill: #262626" transform="translate(25.445938 80.905368) scale(0.1 -0.1)">
       <use xlink:href="#DejaVuSans-33"/>
       <use xlink:href="#DejaVuSans-35" transform="translate(63.623047 0)"/>
       <use xlink:href="#DejaVuSans-30" transform="translate(127.246094 0)"/>
       <use xlink:href="#DejaVuSans-30" transform="translate(190.869141 0)"/>
      </g>
     </g>
    </g>
    <g id="text_14">
     <!-- cumulative energy (J) -->
     <g style="fill: #262626" transform="translate(19.158281 243.608125) rotate(-90) scale(0.11 -0.11)">
      <defs>
       <path id="DejaVuSans-63" d="M 3122 3366 
L 3122 2828 
Q 2878 2963 2633 3030 
Q 2388 3097 2138 3097 
Q 1578 3097 1268 2742 
Q 959 2388 959 1747 
Q 959 1106 1268 751 
Q 1578 397 2138 397 
Q 2388 397 2633 464 
Q 2878 531 3122 666 
L 3122 134 
Q 2881 22 2623 -34 
Q 2366 -91 2075 -91 
Q 1284 -91 818 406 
Q 353 903 353 1747 
Q 353 2603 823 3093 
Q 1294 3584 2113 3584 
Q 2378 3584 2631 3529 
Q 2884 3475 3122 3366 
z
" transform="scale(0.015625)"/>
       <path id="DejaVuSans-75" d="M 544 1381 
L 544 3500 
L 1119 3500 
L 1119 1403 
Q 1119 906 1312 657 
Q 1506 409 1894 409 
Q 2359 409 2629 706 
Q 2900 1003 2900 1516 
L 2900 3500 
L 3475 3500 
L 3475 0 
L 2900 0 
L 2900 538 
Q 2691 219 2414 64 
Q 2138 -91 1772 -91 
Q 1169 -91 856 284 
Q 544 659 544 1381 
z
M 1991 3584 
L 1991 3584 
z
" transform="scale(0.015625)"/>
       <path id="DejaVuSans-6d" d="M 3328 2828 
Q 3544 3216 3844 3400 
Q 4144 3584 4550 3584 
Q 5097 3584 5394 3201 
Q 5691 2819 5691 2113 
L 5691 0 
L 5113 0 
L 5113 2094 
Q 5113 2597 4934 2840 
Q 4756 3084 4391 3084 
Q 3944 3084 3684 2787 
Q 3425 2491 3425 1978 
L 3425 0 
L 2847 0 
L 2847 2094 
Q 2847 2600 2669 2842 
Q 2491 3084 2119 3084 
Q 1678 3084 1418 2786 
Q 1159 2488 1159 1978 
L 1159 0 
L 581 0 
L 581 3500 
L 1159 3500 
L 1159 2956 
Q 1356 3278 1631 3431 
Q 1906 3584 2284 3584 
Q 2666 3584 2933 3390 
Q 3200 3197 3328 2828 
z
" transform="scale(0.015625)"/>
       <path id="DejaVuSans-6c" d="M 603 4863 
L 1178 4863 
L 1178 0 
L 603 0 
L 603 4863 
z
" transform="scale(0.015625)"/>
       <path id="DejaVuSans-61" d="M 2194 1759 
Q 1497 1759 1228 1600 
Q 959 1441 959 1056 
Q 959 750 1161 570 
Q 1363 391 1709 391 
Q 2188 391 2477 730 
Q 2766 1069 2766 1631 
L 2766 1759 
L 2194 1759 
z
M 3341 1997 
L 3341 0 
L 2766 0 
L 2766 531 
Q 2569 213 2275 61 
Q 1981 -91 1556 -91 
Q 1019 -91 701 211 
Q 384 513 384 1019 
Q 384 1609 779 1909 
Q 1175 2209 1959 2209 
L 2766 2209 
L 2766 2266 
Q 2766 2663 2505 2880 
Q 2244 3097 1772 3097 
Q 1472 3097 1187 3025 
Q 903 2953 641 2809 
L 641 3341 
Q 956 3463 1253 3523 
Q 1550 3584 1831 3584 
Q 2591 3584 2966 3190 
Q 3341 2797 3341 1997 
z
" transform="scale(0.015625)"/>
       <path id="DejaVuSans-74" d="M 1172 4494 
L 1172 3500 
L 2356 3500 
L 2356 3053 
L 1172 3053 
L 1172 1153 
Q 1172 725 1289 603 
Q 1406 481 1766 481 
L 2356 481 
L 2356 0 
L 1766 0 
Q 1100 0 847 248 
Q 594 497 594 1153 
L 594 3053 
L 172 3053 
L 172 3500 
L 594 3500 
L 594 4494 
L 1172 4494 
z
" transform="scale(0.015625)"/>
       <path id="DejaVuSans-69" d="M 603 3500 
L 1178 3500 
L 1178 0 
L 603 0 
L 603 3500 
z
M 603 4863 
L 1178 4863 
L 1178 4134 
L 603 4134 
L 603 4863 
z
" transform="scale(0.015625)"/>
       <path id="DejaVuSans-76" d="M 191 3500 
L 800 3500 
L 1894 563 
L 2988 3500 
L 3597 3500 
L 2284 0 
L 1503 0 
L 191 3500 
z
" transform="scale(0.015625)"/>
       <path id="DejaVuSans-65" d="M 3597 1894 
L 3597 1613 
L 953 1613 
Q 991 1019 1311 708 
Q 1631 397 2203 397 
Q 2534 397 2845 478 
Q 3156 559 3463 722 
L 3463 178 
Q 3153 47 2828 -22 
Q 2503 -91 2169 -91 
Q 1331 -91 842 396 
Q 353 884 353 1716 
Q 353 2575 817 3079 
Q 1281 3584 2069 3584 
Q 2775 3584 3186 3129 
Q 3597 2675 3597 1894 
z
M 3022 2063 
Q 3016 2534 2758 2815 
Q 2500 3097 2075 3097 
Q 1594 3097 1305 2825 
Q 1016 2553 972 2059 
L 3022 2063 
z
" transform="scale(0.015625)"/>
       <path id="DejaVuSans-20" transform="scale(0.015625)"/>
       <path id="DejaVuSans-6e" d="M 3513 2113 
L 3513 0 
L 2938 0 
L 2938 2094 
Q 2938 2591 2744 2837 
Q 2550 3084 2163 3084 
Q 1697 3084 1428 2787 
Q 1159 2491 1159 1978 
L 1159 0 
L 581 0 
L 581 3500 
L 1159 3500 
L 1159 2956 
Q 1366 3272 1645 3428 
Q 1925 3584 2291 3584 
Q 2894 3584 3203 3211 
Q 3513 2838 3513 2113 
z
" transform="scale(0.015625)"/>
       <path id="DejaVuSans-72" d="M 2631 2963 
Q 2534 3019 2420 3045 
Q 2306 3072 2169 3072 
Q 1681 3072 1420 2755 
Q 1159 2438 1159 1844 
L 1159 0 
L 581 0 
L 581 3500 
L 1159 3500 
L 1159 2956 
Q 1341 3275 1631 3429 
Q 1922 3584 2338 3584 
Q 2397 3584 2469 3576 
Q 2541 3569 2628 3553 
L 2631 2963 
z
" transform="scale(0.015625)"/>
       <path id="DejaVuSans-67" d="M 2906 1791 
Q 2906 2416 2648 2759 
Q 2391 3103 1925 3103 
Q 1463 3103 1205 2759 
Q 947 2416 947 1791 
Q 947 1169 1205 825 
Q 1463 481 1925 481 
Q 2391 481 2648 825 
Q 2906 1169 2906 1791 
z
M 3481 434 
Q 3481 -459 3084 -895 
Q 2688 -1331 1869 -1331 
Q 1566 -1331 1297 -1286 
Q 1028 -1241 775 -1147 
L 775 -588 
Q 1028 -725 1275 -790 
Q 1522 -856 1778 -856 
Q 2344 -856 2625 -561 
Q 2906 -266 2906 331 
L 2906 616 
Q 2728 306 2450 153 
Q 2172 0 1784 0 
Q 1141 0 747 490 
Q 353 981 353 1791 
Q 353 2603 747 3093 
Q 1141 3584 1784 3584 
Q 2172 3584 2450 3431 
Q 2728 3278 2906 2969 
L 2906 3500 
L 3481 3500 
L 3481 434 
z
" transform="scale(0.015625)"/>
       <path id="DejaVuSans-79" d="M 2059 -325 
Q 1816 -950 1584 -1140 
Q 1353 -1331 966 -1331 
L 506 -1331 
L 506 -850 
L 844 -850 
Q 1081 -850 1212 -737 
Q 1344 -625 1503 -206 
L 1606 56 
L 191 3500 
L 800 3500 
L 1894 763 
L 2988 3500 
L 3597 3500 
L 2059 -325 
z
" transform="scale(0.015625)"/>
       <path id="DejaVuSans-28" d="M 1984 4856 
Q 1566 4138 1362 3434 
Q 1159 2731 1159 2009 
Q 1159 1288 1364 580 
Q 1569 -128 1984 -844 
L 1484 -844 
Q 1016 -109 783 600 
Q 550 1309 550 2009 
Q 550 2706 781 3412 
Q 1013 4119 1484 4856 
L 1984 4856 
z
" transform="scale(0.015625)"/>
       <path id="DejaVuSans-4a" d="M 628 4666 
L 1259 4666 
L 1259 325 
Q 1259 -519 939 -900 
Q 619 -1281 -91 -1281 
L -331 -1281 
L -331 -750 
L -134 -750 
Q 284 -750 456 -515 
Q 628 -281 628 325 
L 628 4666 
z
" transform="scale(0.015625)"/>
       <path id="DejaVuSans-29" d="M 513 4856 
L 1013 4856 
Q 1481 4119 1714 3412 
Q 1947 2706 1947 2009 
Q 1947 1309 1714 600 
Q 1481 -109 1013 -844 
L 513 -844 
Q 928 -128 1133 580 
Q 1338 1288 1338 2009 
Q 1338 2731 1133 3434 
Q 928 4138 513 4856 
z
" transform="scale(0.015625)"/>
      </defs>
      <use xlink:href="#DejaVuSans-63"/>
      <use xlink:href="#DejaVuSans-75" transform="translate(54.980469 0)"/>
      <use xlink:href="#DejaVuSans-6d" transform="translate(118.359375 0)"/>
      <use xlink:href="#DejaVuSans-75" transform="translate(215.771484 0)"/>
      <use xlink:href="#DejaVuSans-6c" transform="translate(279.150391 0)"/>
      <use xlink:href="#DejaVuSans-61" transform="translate(306.933594 0)"/>
      <use xlink:href="#DejaVuSans-74" transform="translate(368.212891 0)"/>
      <use xlink:href="#DejaVuSans-69" transform="translate(407.421875 0)"/>
      <use xlink:href="#DejaVuSans-76" transform="translate(435.205078 0)"/>
      <use xlink:href="#DejaVuSans-65" transform="translate(494.384766 0)"/>
      <use xlink:href="#DejaVuSans-20" transform="translate(555.908203 0)"/>
      <use xlink:href="#DejaVuSans-65" transform="translate(587.695312 0)"/>
      <use xlink:href="#DejaVuSans-6e" transform="translate(649.21875 0)"/>
      <use xlink:href="#DejaVuSans-65" transform="translate(712.597656 0)"/>
      <use xlink:href="#DejaVuSans-72" transform="translate(774.121094 0)"/>
      <use xlink:href="#DejaVuSans-67" transform="translate(813.484375 0)"/>
      <use xlink:href="#DejaVuSans-79" transform="translate(876.960938 0)"/>
      <use xlink:href="#DejaVuSans-20" transform="translate(936.140625 0)"/>
      <use xlink:href="#DejaVuSans-28" transform="translate(967.927734 0)"/>
      <use xlink:href="#DejaVuSans-4a" transform="translate(1006.941406 0)"/>
      <use xlink:href="#DejaVuSans-29" transform="translate(1036.433594 0)"/>
     </g>
    </g>
   </g>
   <g id="line2d_25">
    <path d="M 73.546857 310.019265 
L 137.383255 276.646318 
L 243.777252 218.001889 
L 350.17125 173.213418 
L 435.286447 128.266633 
L 456.565247 114.323438 
" clip-path="url(#p93c92615eb)" style="fill: none; stroke: #1f77b4; stroke-width: 2.2; stroke-linecap: round"/>
    <defs>
     <path id="md5264fcdae" d="M 0 3.25 
C 0.86191 3.25 1.688635 2.907559 2.298097 2.298097 
C 2.907559 1.688635 3.25 0.86191 3.25 0 
C 3.25 -0.86191 2.907559 -1.688635 2.298097 -2.298097 
C 1.688635 -2.907559 0.86191 -3.25 0 -3.25 
C -0.86191 -3.25 -1.688635 -2.907559 -2.298097 -2.298097 
C -2.907559 -1.688635 -3.25 -0.86191 -3.25 0 
C -3.25 0.86191 -2.907559 1.688635 -2.298097 2.298097 
C -1.688635 2.907559 -0.86191 3.25 0 3.25 
z
" style="stroke: #ffffff; stroke-width: 0.8"/>
    </defs>
    <g clip-path="url(#p93c92615eb)">
     <use xlink:href="#md5264fcdae" x="73.546857" y="310.019265" style="fill: #1f77b4; stroke: #ffffff; stroke-width: 0.8"/>
     <use xlink:href="#md5264fcdae" x="137.383255" y="276.646318" style="fill: #1f77b4; stroke: #ffffff; stroke-width: 0.8"/>
     <use xlink:href="#md5264fcdae" x="243.777252" y="218.001889" style="fill: #1f77b4; stroke: #ffffff; stroke-width: 0.8"/>
     <use xlink:href="#md5264fcdae" x="350.17125" y="173.213418" style="fill: #1f77b4; stroke: #ffffff; stroke-width: 0.8"/>
     <use xlink:href="#md5264fcdae" x="435.286447" y="128.266633" style="fill: #1f77b4; stroke: #ffffff; stroke-width: 0.8"/>
     <use xlink:href="#md5264fcdae" x="456.565247" y="114.323438" style="fill: #1f77b4; stroke: #ffffff; stroke-width: 0.8"/>
    </g>
   </g>
   <g id="line2d_26">
    <path d="M 73.546857 307.47431 
L 137.383255 268.423922 
L 243.777252 195.467238 
L 350.17125 136.87448 
L 435.286447 78.197156 
L 456.565247 58.895422 
" clip-path="url(#p93c92615eb)" style="fill: none; stroke-dasharray: 8.14,3.52; stroke-dashoffset: 0; stroke: #d62728; stroke-width: 2.2"/>
    <defs>
     <path id="m45fec54b37" d="M -3.25 3.25 
L 3.25 3.25 
L 3.25 -3.25 
L -3.25 -3.25 
z
" style="stroke: #ffffff; stroke-width: 0.8; stroke-linejoin: miter"/>
    </defs>
    <g clip-path="url(#p93c92615eb)">
     <use xlink:href="#m45fec54b37" x="73.546857" y="307.47431" style="fill: #d62728; stroke: #ffffff; stroke-width: 0.8; stroke-linejoin: miter"/>
     <use xlink:href="#m45fec54b37" x="137.383255" y="268.423922" style="fill: #d62728; stroke: #ffffff; stroke-width: 0.8; stroke-linejoin: miter"/>
     <use xlink:href="#m45fec54b37" x="243.777252" y="195.467238" style="fill: #d62728; stroke: #ffffff; stroke-width: 0.8; stroke-linejoin: miter"/>
     <use xlink:href="#m45fec54b37" x="350.17125" y="136.87448" style="fill: #d62728; stroke: #ffffff; stroke-width: 0.8; stroke-linejoin: miter"/>
     <use xlink:href="#m45fec54b37" x="435.286447" y="78.197156" style="fill: #d62728; stroke: #ffffff; stroke-width: 0.8; stroke-linejoin: miter"/>
     <use xlink:href="#m45fec54b37" x="456.565247" y="58.895422" style="fill: #d62728; stroke: #ffffff; stroke-width: 0.8; stroke-linejoin: miter"/>
    </g>
   </g>
   <g id="patch_3">
    <path d="M 54.395938 322.575458 
L 54.395938 46.33923 
" style="fill: none; stroke: #cccccc; stroke-linejoin: miter; stroke-linecap: square"/>
   </g>
   <g id="patch_4">
    <path d="M 54.395938 322.575458 
L 475.716166 322.575458 
" style="fill: none; stroke: #cccccc; stroke-linejoin: miter; stroke-linecap: square"/>
   </g>
   <g id="text_15">
    <!-- Injection vs §15 ceiling across η -->
    <g style="fill: #262626" transform="translate(148.875661 40.33923) scale(0.13 -0.13)">
     <defs>
      <path id="DejaVuSans-Bold-49" d="M 588 4666 
L 1791 4666 
L 1791 0 
L 588 0 
L 588 4666 
z
" transform="scale(0.015625)"/>
      <path id="DejaVuSans-Bold-6e" d="M 4056 2131 
L 4056 0 
L 2931 0 
L 2931 347 
L 2931 1631 
Q 2931 2084 2911 2256 
Q 2891 2428 2841 2509 
Q 2775 2619 2662 2680 
Q 2550 2741 2406 2741 
Q 2056 2741 1856 2470 
Q 1656 2200 1656 1722 
L 1656 0 
L 538 0 
L 538 3500 
L 1656 3500 
L 1656 2988 
Q 1909 3294 2193 3439 
Q 2478 3584 2822 3584 
Q 3428 3584 3742 3212 
Q 4056 2841 4056 2131 
z
" transform="scale(0.015625)"/>
      <path id="DejaVuSans-Bold-6a" d="M 538 3500 
L 1656 3500 
L 1656 63 
Q 1656 -641 1318 -1011 
Q 981 -1381 341 -1381 
L -213 -1381 
L -213 -647 
L -19 -647 
Q 300 -647 419 -503 
Q 538 -359 538 63 
L 538 3500 
z
M 538 4863 
L 1656 4863 
L 1656 3950 
L 538 3950 
L 538 4863 
z
" transform="scale(0.015625)"/>
      <path id="DejaVuSans-Bold-65" d="M 4031 1759 
L 4031 1441 
L 1416 1441 
Q 1456 1047 1700 850 
Q 1944 653 2381 653 
Q 2734 653 3104 758 
Q 3475 863 3866 1075 
L 3866 213 
Q 3469 63 3072 -14 
Q 2675 -91 2278 -91 
Q 1328 -91 801 392 
Q 275 875 275 1747 
Q 275 2603 792 3093 
Q 1309 3584 2216 3584 
Q 3041 3584 3536 3087 
Q 4031 2591 4031 1759 
z
M 2881 2131 
Q 2881 2450 2695 2645 
Q 2509 2841 2209 2841 
Q 1884 2841 1681 2658 
Q 1478 2475 1428 2131 
L 2881 2131 
z
" transform="scale(0.015625)"/>
      <path id="DejaVuSans-Bold-63" d="M 3366 3391 
L 3366 2478 
Q 3138 2634 2908 2709 
Q 2678 2784 2431 2784 
Q 1963 2784 1702 2511 
Q 1441 2238 1441 1747 
Q 1441 1256 1702 982 
Q 1963 709 2431 709 
Q 2694 709 2930 787 
Q 3166 866 3366 1019 
L 3366 103 
Q 3103 6 2833 -42 
Q 2563 -91 2291 -91 
Q 1344 -91 809 395 
Q 275 881 275 1747 
Q 275 2613 809 3098 
Q 1344 3584 2291 3584 
Q 2566 3584 2833 3536 
Q 3100 3488 3366 3391 
z
" transform="scale(0.015625)"/>
      <path id="DejaVuSans-Bold-74" d="M 1759 4494 
L 1759 3500 
L 2913 3500 
L 2913 2700 
L 1759 2700 
L 1759 1216 
Q 1759 972 1856 886 
Q 1953 800 2241 800 
L 2816 800 
L 2816 0 
L 1856 0 
Q 1194 0 917 276 
Q 641 553 641 1216 
L 641 2700 
L 84 2700 
L 84 3500 
L 641 3500 
L 641 4494 
L 1759 4494 
z
" transform="scale(0.015625)"/>
      <path id="DejaVuSans-Bold-69" d="M 538 3500 
L 1656 3500 
L 1656 0 
L 538 0 
L 538 3500 
z
M 538 4863 
L 1656 4863 
L 1656 3950 
L 538 3950 
L 538 4863 
z
" transform="scale(0.015625)"/>
      <path id="DejaVuSans-Bold-6f" d="M 2203 2784 
Q 1831 2784 1636 2517 
Q 1441 2250 1441 1747 
Q 1441 1244 1636 976 
Q 1831 709 2203 709 
Q 2569 709 2762 976 
Q 2956 1244 2956 1747 
Q 2956 2250 2762 2517 
Q 2569 2784 2203 2784 
z
M 2203 3584 
Q 3106 3584 3614 3096 
Q 4122 2609 4122 1747 
Q 4122 884 3614 396 
Q 3106 -91 2203 -91 
Q 1297 -91 786 396 
Q 275 884 275 1747 
Q 275 2609 786 3096 
Q 1297 3584 2203 3584 
z
" transform="scale(0.015625)"/>
      <path id="DejaVuSans-Bold-20" transform="scale(0.015625)"/>
      <path id="DejaVuSans-Bold-76" d="M 97 3500 
L 1216 3500 
L 2088 1081 
L 2956 3500 
L 4078 3500 
L 2700 0 
L 1472 0 
L 97 3500 
z
" transform="scale(0.015625)"/>
      <path id="DejaVuSans-Bold-73" d="M 3272 3391 
L 3272 2541 
Q 2913 2691 2578 2766 
Q 2244 2841 1947 2841 
Q 1628 2841 1473 2761 
Q 1319 2681 1319 2516 
Q 1319 2381 1436 2309 
Q 1553 2238 1856 2203 
L 2053 2175 
Q 2913 2066 3209 1816 
Q 3506 1566 3506 1031 
Q 3506 472 3093 190 
Q 2681 -91 1863 -91 
Q 1516 -91 1145 -36 
Q 775 19 384 128 
L 384 978 
Q 719 816 1070 734 
Q 1422 653 1784 653 
Q 2113 653 2278 743 
Q 2444 834 2444 1013 
Q 2444 1163 2330 1236 
Q 2216 1309 1875 1350 
L 1678 1375 
Q 931 1469 631 1722 
Q 331 1975 331 2491 
Q 331 3047 712 3315 
Q 1094 3584 1881 3584 
Q 2191 3584 2531 3537 
Q 2872 3491 3272 3391 
z
" transform="scale(0.015625)"/>
      <path id="DejaVuSans-Bold-a7" d="M 2766 4569 
L 2766 3859 
Q 2456 3981 2209 4042 
Q 1963 4103 1784 4103 
Q 1550 4103 1431 4026 
Q 1313 3950 1313 3803 
Q 1313 3594 1900 3347 
Q 1981 3313 2022 3297 
Q 2678 3019 2926 2748 
Q 3175 2478 3175 2088 
Q 3175 1722 2998 1473 
Q 2822 1225 2456 1075 
Q 2697 947 2814 770 
Q 2931 594 2931 366 
Q 2931 -88 2553 -348 
Q 2175 -609 1509 -609 
Q 1244 -609 961 -564 
Q 678 -519 359 -428 
L 359 313 
Q 719 184 1003 117 
Q 1288 50 1466 50 
Q 1669 50 1791 128 
Q 1913 206 1913 331 
Q 1913 550 1350 781 
Q 1238 825 1178 850 
Q 544 1122 294 1401 
Q 44 1681 44 2088 
Q 44 2413 217 2653 
Q 391 2894 744 3053 
Q 509 3213 407 3386 
Q 306 3559 306 3794 
Q 306 4244 664 4497 
Q 1022 4750 1650 4750 
Q 1913 4750 2194 4704 
Q 2475 4659 2766 4569 
z
M 1356 2675 
Q 1144 2588 1039 2469 
Q 934 2350 934 2194 
Q 934 1984 1126 1831 
Q 1319 1678 1888 1472 
Q 2091 1544 2200 1667 
Q 2309 1791 2309 1953 
Q 2309 2163 2093 2328 
Q 1878 2494 1356 2675 
z
" transform="scale(0.015625)"/>
      <path id="DejaVuSans-Bold-31" d="M 750 831 
L 1813 831 
L 1813 3847 
L 722 3622 
L 722 4441 
L 1806 4666 
L 2950 4666 
L 2950 831 
L 4013 831 
L 4013 0 
L 750 0 
L 750 831 
z
" transform="scale(0.015625)"/>
      <path id="DejaVuSans-Bold-35" d="M 678 4666 
L 3669 4666 
L 3669 3781 
L 1638 3781 
L 1638 3059 
Q 1775 3097 1914 3117 
Q 2053 3138 2203 3138 
Q 3056 3138 3531 2711 
Q 4006 2284 4006 1522 
Q 4006 766 3489 337 
Q 2972 -91 2053 -91 
Q 1656 -91 1267 -14 
Q 878 63 494 219 
L 494 1166 
Q 875 947 1217 837 
Q 1559 728 1863 728 
Q 2300 728 2551 942 
Q 2803 1156 2803 1522 
Q 2803 1891 2551 2103 
Q 2300 2316 1863 2316 
Q 1603 2316 1309 2248 
Q 1016 2181 678 2041 
L 678 4666 
z
" transform="scale(0.015625)"/>
      <path id="DejaVuSans-Bold-6c" d="M 538 4863 
L 1656 4863 
L 1656 0 
L 538 0 
L 538 4863 
z
" transform="scale(0.015625)"/>
      <path id="DejaVuSans-Bold-67" d="M 2919 594 
Q 2688 288 2409 144 
Q 2131 0 1766 0 
Q 1125 0 706 504 
Q 288 1009 288 1791 
Q 288 2575 706 3076 
Q 1125 3578 1766 3578 
Q 2131 3578 2409 3434 
Q 2688 3291 2919 2981 
L 2919 3500 
L 4044 3500 
L 4044 353 
Q 4044 -491 3511 -936 
Q 2978 -1381 1966 -1381 
Q 1638 -1381 1331 -1331 
Q 1025 -1281 716 -1178 
L 716 -306 
Q 1009 -475 1290 -558 
Q 1572 -641 1856 -641 
Q 2406 -641 2662 -400 
Q 2919 -159 2919 353 
L 2919 594 
z
M 2181 2772 
Q 1834 2772 1640 2515 
Q 1447 2259 1447 1791 
Q 1447 1309 1634 1061 
Q 1822 813 2181 813 
Q 2531 813 2725 1069 
Q 2919 1325 2919 1791 
Q 2919 2259 2725 2515 
Q 2531 2772 2181 2772 
z
" transform="scale(0.015625)"/>
      <path id="DejaVuSans-Bold-61" d="M 2106 1575 
Q 1756 1575 1579 1456 
Q 1403 1338 1403 1106 
Q 1403 894 1545 773 
Q 1688 653 1941 653 
Q 2256 653 2472 879 
Q 2688 1106 2688 1447 
L 2688 1575 
L 2106 1575 
z
M 3816 1997 
L 3816 0 
L 2688 0 
L 2688 519 
Q 2463 200 2181 54 
Q 1900 -91 1497 -91 
Q 953 -91 614 226 
Q 275 544 275 1050 
Q 275 1666 698 1953 
Q 1122 2241 2028 2241 
L 2688 2241 
L 2688 2328 
Q 2688 2594 2478 2717 
Q 2269 2841 1825 2841 
Q 1466 2841 1156 2769 
Q 847 2697 581 2553 
L 581 3406 
Q 941 3494 1303 3539 
Q 1666 3584 2028 3584 
Q 2975 3584 3395 3211 
Q 3816 2838 3816 1997 
z
" transform="scale(0.015625)"/>
      <path id="DejaVuSans-Bold-72" d="M 3138 2547 
Q 2991 2616 2845 2648 
Q 2700 2681 2553 2681 
Q 2122 2681 1889 2404 
Q 1656 2128 1656 1613 
L 1656 0 
L 538 0 
L 538 3500 
L 1656 3500 
L 1656 2925 
Q 1872 3269 2151 3426 
Q 2431 3584 2822 3584 
Q 2878 3584 2943 3579 
Q 3009 3575 3134 3559 
L 3138 2547 
z
" transform="scale(0.015625)"/>
      <path id="DejaVuSans-Bold-3b7" d="M 4056 2131 
L 4056 -1331 
L 2931 -1331 
L 2931 347 
L 2931 1631 
Q 2931 2084 2911 2256 
Q 2891 2428 2841 2509 
Q 2775 2619 2662 2680 
Q 2550 2741 2406 2741 
Q 2056 2741 1856 2470 
Q 1656 2200 1656 1722 
L 1656 0 
L 538 0 
L 538 3500 
L 1656 3500 
L 1656 2988 
Q 1909 3294 2193 3439 
Q 2478 3584 2822 3584 
Q 3428 3584 3742 3212 
Q 4056 2841 4056 2131 
z
" transform="scale(0.015625)"/>
     </defs>
     <use xlink:href="#DejaVuSans-Bold-49"/>
     <use xlink:href="#DejaVuSans-Bold-6e" transform="translate(37.207031 0)"/>
     <use xlink:href="#DejaVuSans-Bold-6a" transform="translate(108.398438 0)"/>
     <use xlink:href="#DejaVuSans-Bold-65" transform="translate(142.675781 0)"/>
     <use xlink:href="#DejaVuSans-Bold-63" transform="translate(210.498047 0)"/>
     <use xlink:href="#DejaVuSans-Bold-74" transform="translate(269.775391 0)"/>
     <use xlink:href="#DejaVuSans-Bold-69" transform="translate(317.578125 0)"/>
     <use xlink:href="#DejaVuSans-Bold-6f" transform="translate(351.855469 0)"/>
     <use xlink:href="#DejaVuSans-Bold-6e" transform="translate(420.556641 0)"/>
     <use xlink:href="#DejaVuSans-Bold-20" transform="translate(491.748047 0)"/>
     <use xlink:href="#DejaVuSans-Bold-76" transform="translate(526.5625 0)"/>
     <use xlink:href="#DejaVuSans-Bold-73" transform="translate(591.748047 0)"/>
     <use xlink:href="#DejaVuSans-Bold-20" transform="translate(651.269531 0)"/>
     <use xlink:href="#DejaVuSans-Bold-a7" transform="translate(686.083984 0)"/>
     <use xlink:href="#DejaVuSans-Bold-31" transform="translate(736.083984 0)"/>
     <use xlink:href="#DejaVuSans-Bold-35" transform="translate(805.664062 0)"/>
     <use xlink:href="#DejaVuSans-Bold-20" transform="translate(875.244141 0)"/>
     <use xlink:href="#DejaVuSans-Bold-63" transform="translate(910.058594 0)"/>
     <use xlink:href="#DejaVuSans-Bold-65" transform="translate(969.335938 0)"/>
     <use xlink:href="#DejaVuSans-Bold-69" transform="translate(1037.158203 0)"/>
     <use xlink:href="#DejaVuSans-Bold-6c" transform="translate(1071.435547 0)"/>
     <use xlink:href="#DejaVuSans-Bold-69" transform="translate(1105.712891 0)"/>
     <use xlink:href="#DejaVuSans-Bold-6e" transform="translate(1139.990234 0)"/>
     <use xlink:href="#DejaVuSans-Bold-67" transform="translate(1211.181641 0)"/>
     <use xlink:href="#DejaVuSans-Bold-20" transform="translate(1282.763672 0)"/>
     <use xlink:href="#DejaVuSans-Bold-61" transform="translate(1317.578125 0)"/>
     <use xlink:href="#DejaVuSans-Bold-63" transform="translate(1385.058594 0)"/>
     <use xlink:href="#DejaVuSans-Bold-72" transform="translate(1444.335938 0)"/>
     <use xlink:href="#DejaVuSans-Bold-6f" transform="translate(1493.652344 0)"/>
     <use xlink:href="#DejaVuSans-Bold-73" transform="translate(1562.353516 0)"/>
     <use xlink:href="#DejaVuSans-Bold-73" transform="translate(1621.875 0)"/>
     <use xlink:href="#DejaVuSans-Bold-20" transform="translate(1681.396484 0)"/>
     <use xlink:href="#DejaVuSans-Bold-3b7" transform="translate(1716.210938 0)"/>
    </g>
   </g>
   <g id="legend_1">
    <g id="patch_5">
     <path d="M 60.695938 80.499855 
L 217.025937 80.499855 
Q 218.825938 80.499855 218.825938 78.699855 
L 218.825938 52.63923 
Q 218.825938 50.83923 217.025937 50.83923 
L 60.695938 50.83923 
Q 58.895938 50.83923 58.895938 52.63923 
L 58.895938 78.699855 
Q 58.895938 80.499855 60.695938 80.499855 
z
" style="fill: #ffffff; opacity: 0.85; stroke: #cccccc; stroke-linejoin: miter"/>
    </g>
    <g id="line2d_27">
     <path d="M 62.495938 58.127824 
L 71.495938 58.127824 
L 80.495938 58.127824 
" style="fill: none; stroke: #1f77b4; stroke-width: 2.2; stroke-linecap: round"/>
     <g>
      <use xlink:href="#md5264fcdae" x="71.495938" y="58.127824" style="fill: #1f77b4; stroke: #ffffff; stroke-width: 0.8"/>
     </g>
    </g>
    <g id="text_16">
     <!-- cum_E_injected (actual) -->
     <g style="fill: #262626" transform="translate(87.695938 61.277824) scale(0.09 -0.09)">
      <defs>
       <path id="DejaVuSans-5f" d="M 3263 -1063 
L 3263 -1509 
L -63 -1509 
L -63 -1063 
L 3263 -1063 
z
" transform="scale(0.015625)"/>
       <path id="DejaVuSans-45" d="M 628 4666 
L 3578 4666 
L 3578 4134 
L 1259 4134 
L 1259 2753 
L 3481 2753 
L 3481 2222 
L 1259 2222 
L 1259 531 
L 3634 531 
L 3634 0 
L 628 0 
L 628 4666 
z
" transform="scale(0.015625)"/>
       <path id="DejaVuSans-6a" d="M 603 3500 
L 1178 3500 
L 1178 -63 
Q 1178 -731 923 -1031 
Q 669 -1331 103 -1331 
L -116 -1331 
L -116 -844 
L 38 -844 
Q 366 -844 484 -692 
Q 603 -541 603 -63 
L 603 3500 
z
M 603 4863 
L 1178 4863 
L 1178 4134 
L 603 4134 
L 603 4863 
z
" transform="scale(0.015625)"/>
       <path id="DejaVuSans-64" d="M 2906 2969 
L 2906 4863 
L 3481 4863 
L 3481 0 
L 2906 0 
L 2906 525 
Q 2725 213 2448 61 
Q 2172 -91 1784 -91 
Q 1150 -91 751 415 
Q 353 922 353 1747 
Q 353 2572 751 3078 
Q 1150 3584 1784 3584 
Q 2172 3584 2448 3432 
Q 2725 3281 2906 2969 
z
M 947 1747 
Q 947 1113 1208 752 
Q 1469 391 1925 391 
Q 2381 391 2643 752 
Q 2906 1113 2906 1747 
Q 2906 2381 2643 2742 
Q 2381 3103 1925 3103 
Q 1469 3103 1208 2742 
Q 947 2381 947 1747 
z
" transform="scale(0.015625)"/>
      </defs>
      <use xlink:href="#DejaVuSans-63"/>
      <use xlink:href="#DejaVuSans-75" transform="translate(54.980469 0)"/>
      <use xlink:href="#DejaVuSans-6d" transform="translate(118.359375 0)"/>
      <use xlink:href="#DejaVuSans-5f" transform="translate(215.771484 0)"/>
      <use xlink:href="#DejaVuSans-45" transform="translate(265.771484 0)"/>
      <use xlink:href="#DejaVuSans-5f" transform="translate(328.955078 0)"/>
      <use xlink:href="#DejaVuSans-69" transform="translate(378.955078 0)"/>
      <use xlink:href="#DejaVuSans-6e" transform="translate(406.738281 0)"/>
      <use xlink:href="#DejaVuSans-6a" transform="translate(470.117188 0)"/>
      <use xlink:href="#DejaVuSans-65" transform="translate(497.900391 0)"/>
      <use xlink:href="#DejaVuSans-63" transform="translate(559.423828 0)"/>
      <use xlink:href="#DejaVuSans-74" transform="translate(614.404297 0)"/>
      <use xlink:href="#DejaVuSans-65" transform="translate(653.613281 0)"/>
      <use xlink:href="#DejaVuSans-64" transform="translate(715.136719 0)"/>
      <use xlink:href="#DejaVuSans-20" transform="translate(778.613281 0)"/>
      <use xlink:href="#DejaVuSans-28" transform="translate(810.400391 0)"/>
      <use xlink:href="#DejaVuSans-61" transform="translate(849.414062 0)"/>
      <use xlink:href="#DejaVuSans-63" transform="translate(910.693359 0)"/>
      <use xlink:href="#DejaVuSans-74" transform="translate(965.673828 0)"/>
      <use xlink:href="#DejaVuSans-75" transform="translate(1004.882812 0)"/>
      <use xlink:href="#DejaVuSans-61" transform="translate(1068.261719 0)"/>
      <use xlink:href="#DejaVuSans-6c" transform="translate(1129.541016 0)"/>
      <use xlink:href="#DejaVuSans-29" transform="translate(1157.324219 0)"/>
     </g>
    </g>
    <g id="line2d_28">
     <path d="M 62.495938 71.589855 
L 71.495938 71.589855 
L 80.495938 71.589855 
" style="fill: none; stroke-dasharray: 8.14,3.52; stroke-dashoffset: 0; stroke: #d62728; stroke-width: 2.2"/>
     <g>
      <use xlink:href="#m45fec54b37" x="71.495938" y="71.589855" style="fill: #d62728; stroke: #ffffff; stroke-width: 0.8; stroke-linejoin: miter"/>
     </g>
    </g>
    <g id="text_17">
     <!-- $\eta\,\cdot\,$cum_E_loss  (§15 ceiling) -->
     <g style="fill: #262626" transform="translate(87.695938 74.739855) scale(0.09 -0.09)">
      <defs>
       <path id="DejaVuSans-22c5" d="M 684 2619 
L 1344 2619 
L 1344 1825 
L 684 1825 
L 684 2619 
z
" transform="scale(0.015625)"/>
       <path id="DejaVuSans-6f" d="M 1959 3097 
Q 1497 3097 1228 2736 
Q 959 2375 959 1747 
Q 959 1119 1226 758 
Q 1494 397 1959 397 
Q 2419 397 2687 759 
Q 2956 1122 2956 1747 
Q 2956 2369 2687 2733 
Q 2419 3097 1959 3097 
z
M 1959 3584 
Q 2709 3584 3137 3096 
Q 3566 2609 3566 1747 
Q 3566 888 3137 398 
Q 2709 -91 1959 -91 
Q 1206 -91 779 398 
Q 353 888 353 1747 
Q 353 2609 779 3096 
Q 1206 3584 1959 3584 
z
" transform="scale(0.015625)"/>
       <path id="DejaVuSans-73" d="M 2834 3397 
L 2834 2853 
Q 2591 2978 2328 3040 
Q 2066 3103 1784 3103 
Q 1356 3103 1142 2972 
Q 928 2841 928 2578 
Q 928 2378 1081 2264 
Q 1234 2150 1697 2047 
L 1894 2003 
Q 2506 1872 2764 1633 
Q 3022 1394 3022 966 
Q 3022 478 2636 193 
Q 2250 -91 1575 -91 
Q 1294 -91 989 -36 
Q 684 19 347 128 
L 347 722 
Q 666 556 975 473 
Q 1284 391 1588 391 
Q 1994 391 2212 530 
Q 2431 669 2431 922 
Q 2431 1156 2273 1281 
Q 2116 1406 1581 1522 
L 1381 1569 
Q 847 1681 609 1914 
Q 372 2147 372 2553 
Q 372 3047 722 3315 
Q 1072 3584 1716 3584 
Q 2034 3584 2315 3537 
Q 2597 3491 2834 3397 
z
" transform="scale(0.015625)"/>
       <path id="DejaVuSans-a7" d="M 1184 2925 
Q 988 2781 891 2640 
Q 794 2500 794 2356 
Q 794 2119 1011 1911 
Q 1228 1703 2009 1281 
Q 2206 1422 2303 1564 
Q 2400 1706 2400 1850 
Q 2400 2084 2176 2296 
Q 1953 2509 1184 2925 
z
M 2591 4569 
L 2591 4056 
Q 2331 4178 2107 4239 
Q 1884 4300 1709 4300 
Q 1406 4300 1237 4175 
Q 1069 4050 1069 3828 
Q 1069 3547 1713 3188 
Q 1794 3141 1838 3116 
Q 2497 2744 2701 2503 
Q 2906 2263 2906 1947 
Q 2906 1666 2762 1447 
Q 2619 1228 2328 1063 
Q 2522 900 2611 729 
Q 2700 559 2700 359 
Q 2700 -84 2381 -346 
Q 2063 -609 1522 -609 
Q 1294 -609 1053 -564 
Q 813 -519 538 -428 
L 538 84 
Q 809 -38 1040 -98 
Q 1272 -159 1453 -159 
Q 1772 -159 1948 -28 
Q 2125 103 2125 341 
Q 2125 659 1434 1044 
L 1356 1088 
Q 688 1463 488 1702 
Q 288 1941 288 2259 
Q 288 2544 433 2767 
Q 578 2991 863 3144 
Q 678 3281 586 3456 
Q 494 3631 494 3847 
Q 494 4253 806 4501 
Q 1119 4750 1638 4750 
Q 1866 4750 2105 4704 
Q 2344 4659 2591 4569 
z
" transform="scale(0.015625)"/>
      </defs>
      <use xlink:href="#DejaVuSans-Oblique-3b7" transform="translate(0 0.015625)"/>
      <use xlink:href="#DejaVuSans-22c5" transform="translate(99.097004 0.015625)"/>
      <use xlink:href="#DejaVuSans-63" transform="translate(166.602212 0.015625)"/>
      <use xlink:href="#DejaVuSans-75" transform="translate(221.582681 0.015625)"/>
      <use xlink:href="#DejaVuSans-6d" transform="translate(284.961587 0.015625)"/>
      <use xlink:href="#DejaVuSans-5f" transform="translate(382.373696 0.015625)"/>
      <use xlink:href="#DejaVuSans-45" transform="translate(432.373696 0.015625)"/>
      <use xlink:href="#DejaVuSans-5f" transform="translate(495.55729 0.015625)"/>
      <use xlink:href="#DejaVuSans-6c" transform="translate(545.55729 0.015625)"/>
      <use xlink:href="#DejaVuSans-6f" transform="translate(573.340493 0.015625)"/>
      <use xlink:href="#DejaVuSans-73" transform="translate(634.522134 0.015625)"/>
      <use xlink:href="#DejaVuSans-73" transform="translate(686.621743 0.015625)"/>
      <use xlink:href="#DejaVuSans-20" transform="translate(738.721353 0.015625)"/>
      <use xlink:href="#DejaVuSans-20" transform="translate(770.508462 0.015625)"/>
      <use xlink:href="#DejaVuSans-28" transform="translate(802.295571 0.015625)"/>
      <use xlink:href="#DejaVuSans-a7" transform="translate(841.309243 0.015625)"/>
      <use xlink:href="#DejaVuSans-31" transform="translate(891.309243 0.015625)"/>
      <use xlink:href="#DejaVuSans-35" transform="translate(954.93229 0.015625)"/>
      <use xlink:href="#DejaVuSans-20" transform="translate(1018.555337 0.015625)"/>
      <use xlink:href="#DejaVuSans-63" transform="translate(1050.342446 0.015625)"/>
      <use xlink:href="#DejaVuSans-65" transform="translate(1105.322915 0.015625)"/>
      <use xlink:href="#DejaVuSans-69" transform="translate(1166.846353 0.015625)"/>
      <use xlink:href="#DejaVuSans-6c" transform="translate(1194.629556 0.015625)"/>
      <use xlink:href="#DejaVuSans-69" transform="translate(1222.412759 0.015625)"/>
      <use xlink:href="#DejaVuSans-6e" transform="translate(1250.195962 0.015625)"/>
      <use xlink:href="#DejaVuSans-67" transform="translate(1313.574868 0.015625)"/>
      <use xlink:href="#DejaVuSans-29" transform="translate(1377.051431 0.015625)"/>
     </g>
    </g>
   </g>
  </g>
  <g id="axes_2">
   <g id="patch_6">
    <path d="M 519.479291 322.575458 
L 940.79952 322.575458 
L 940.79952 46.33923 
L 519.479291 46.33923 
z
" style="fill: #ffffff"/>
   </g>
   <g id="matplotlib.axis_3">
    <g id="xtick_6">
     <g id="line2d_29">
      <path d="M 581.18781 322.575458 
L 581.18781 46.33923 
" clip-path="url(#p7633357b51)" style="fill: none; stroke: #cccccc; stroke-opacity: 0.35; stroke-width: 0.6; stroke-linecap: round"/>
     </g>
     <g id="line2d_30"/>
     <g id="text_18">
      <!-- 0.2 -->
      <g style="fill: #262626" transform="translate(573.236247 333.673895) scale(0.1 -0.1)">
       <use xlink:href="#DejaVuSans-30"/>
       <use xlink:href="#DejaVuSans-2e" transform="translate(63.623047 0)"/>
       <use xlink:href="#DejaVuSans-32" transform="translate(95.410156 0)"/>
      </g>
     </g>
    </g>
    <g id="xtick_7">
     <g id="line2d_31">
      <path d="M 666.303007 322.575458 
L 666.303007 46.33923 
" clip-path="url(#p7633357b51)" style="fill: none; stroke: #cccccc; stroke-opacity: 0.35; stroke-width: 0.6; stroke-linecap: round"/>
     </g>
     <g id="line2d_32"/>
     <g id="text_19">
      <!-- 0.4 -->
      <g style="fill: #262626" transform="translate(658.351445 333.673895) scale(0.1 -0.1)">
       <use xlink:href="#DejaVuSans-30"/>
       <use xlink:href="#DejaVuSans-2e" transform="translate(63.623047 0)"/>
       <use xlink:href="#DejaVuSans-34" transform="translate(95.410156 0)"/>
      </g>
     </g>
    </g>
    <g id="xtick_8">
     <g id="line2d_33">
      <path d="M 751.418205 322.575458 
L 751.418205 46.33923 
" clip-path="url(#p7633357b51)" style="fill: none; stroke: #cccccc; stroke-opacity: 0.35; stroke-width: 0.6; stroke-linecap: round"/>
     </g>
     <g id="line2d_34"/>
     <g id="text_20">
      <!-- 0.6 -->
      <g style="fill: #262626" transform="translate(743.466643 333.673895) scale(0.1 -0.1)">
       <use xlink:href="#DejaVuSans-30"/>
       <use xlink:href="#DejaVuSans-2e" transform="translate(63.623047 0)"/>
       <use xlink:href="#DejaVuSans-36" transform="translate(95.410156 0)"/>
      </g>
     </g>
    </g>
    <g id="xtick_9">
     <g id="line2d_35">
      <path d="M 836.533403 322.575458 
L 836.533403 46.33923 
" clip-path="url(#p7633357b51)" style="fill: none; stroke: #cccccc; stroke-opacity: 0.35; stroke-width: 0.6; stroke-linecap: round"/>
     </g>
     <g id="line2d_36"/>
     <g id="text_21">
      <!-- 0.8 -->
      <g style="fill: #262626" transform="translate(828.58184 333.673895) scale(0.1 -0.1)">
       <use xlink:href="#DejaVuSans-30"/>
       <use xlink:href="#DejaVuSans-2e" transform="translate(63.623047 0)"/>
       <use xlink:href="#DejaVuSans-38" transform="translate(95.410156 0)"/>
      </g>
     </g>
    </g>
    <g id="xtick_10">
     <g id="line2d_37">
      <path d="M 921.648601 322.575458 
L 921.648601 46.33923 
" clip-path="url(#p7633357b51)" style="fill: none; stroke: #cccccc; stroke-opacity: 0.35; stroke-width: 0.6; stroke-linecap: round"/>
     </g>
     <g id="line2d_38"/>
     <g id="text_22">
      <!-- 1.0 -->
      <g style="fill: #262626" transform="translate(913.697038 333.673895) scale(0.1 -0.1)">
       <use xlink:href="#DejaVuSans-31"/>
       <use xlink:href="#DejaVuSans-2e" transform="translate(63.623047 0)"/>
       <use xlink:href="#DejaVuSans-30" transform="translate(95.410156 0)"/>
      </g>
     </g>
    </g>
    <g id="text_23">
     <!-- $\eta$ -->
     <g style="fill: #262626" transform="translate(726.619406 348.08952) scale(0.11 -0.11)">
      <use xlink:href="#DejaVuSans-Oblique-3b7"/>
     </g>
    </g>
   </g>
   <g id="matplotlib.axis_4">
    <g id="ytick_8">
     <g id="line2d_39">
      <path d="M 519.479291 322.575458 
L 940.79952 322.575458 
" clip-path="url(#p7633357b51)" style="fill: none; stroke: #cccccc; stroke-opacity: 0.35; stroke-width: 0.6; stroke-linecap: round"/>
     </g>
     <g id="line2d_40"/>
     <g id="text_24">
      <!-- 0.0 -->
      <g style="fill: #262626" transform="translate(500.076166 326.374676) scale(0.1 -0.1)">
       <use xlink:href="#DejaVuSans-30"/>
       <use xlink:href="#DejaVuSans-2e" transform="translate(63.623047 0)"/>
       <use xlink:href="#DejaVuSans-30" transform="translate(95.410156 0)"/>
      </g>
     </g>
    </g>
    <g id="ytick_9">
     <g id="line2d_41">
      <path d="M 519.479291 274.534374 
L 940.79952 274.534374 
" clip-path="url(#p7633357b51)" style="fill: none; stroke: #cccccc; stroke-opacity: 0.35; stroke-width: 0.6; stroke-linecap: round"/>
     </g>
     <g id="line2d_42"/>
     <g id="text_25">
      <!-- 0.2 -->
      <g style="fill: #262626" transform="translate(500.076166 278.333593) scale(0.1 -0.1)">
       <use xlink:href="#DejaVuSans-30"/>
       <use xlink:href="#DejaVuSans-2e" transform="translate(63.623047 0)"/>
       <use xlink:href="#DejaVuSans-32" transform="translate(95.410156 0)"/>
      </g>
     </g>
    </g>
    <g id="ytick_10">
     <g id="line2d_43">
      <path d="M 519.479291 226.493291 
L 940.79952 226.493291 
" clip-path="url(#p7633357b51)" style="fill: none; stroke: #cccccc; stroke-opacity: 0.35; stroke-width: 0.6; stroke-linecap: round"/>
     </g>
     <g id="line2d_44"/>
     <g id="text_26">
      <!-- 0.4 -->
      <g style="fill: #262626" transform="translate(500.076166 230.29251) scale(0.1 -0.1)">
       <use xlink:href="#DejaVuSans-30"/>
       <use xlink:href="#DejaVuSans-2e" transform="translate(63.623047 0)"/>
       <use xlink:href="#DejaVuSans-34" transform="translate(95.410156 0)"/>
      </g>
     </g>
    </g>
    <g id="ytick_11">
     <g id="line2d_45">
      <path d="M 519.479291 178.452208 
L 940.79952 178.452208 
" clip-path="url(#p7633357b51)" style="fill: none; stroke: #cccccc; stroke-opacity: 0.35; stroke-width: 0.6; stroke-linecap: round"/>
     </g>
     <g id="line2d_46"/>
     <g id="text_27">
      <!-- 0.6 -->
      <g style="fill: #262626" transform="translate(500.076166 182.251427) scale(0.1 -0.1)">
       <use xlink:href="#DejaVuSans-30"/>
       <use xlink:href="#DejaVuSans-2e" transform="translate(63.623047 0)"/>
       <use xlink:href="#DejaVuSans-36" transform="translate(95.410156 0)"/>
      </g>
     </g>
    </g>
    <g id="ytick_12">
     <g id="line2d_47">
      <path d="M 519.479291 130.411125 
L 940.79952 130.411125 
" clip-path="url(#p7633357b51)" style="fill: none; stroke: #cccccc; stroke-opacity: 0.35; stroke-width: 0.6; stroke-linecap: round"/>
     </g>
     <g id="line2d_48"/>
     <g id="text_28">
      <!-- 0.8 -->
      <g style="fill: #262626" transform="translate(500.076166 134.210344) scale(0.1 -0.1)">
       <use xlink:href="#DejaVuSans-30"/>
       <use xlink:href="#DejaVuSans-2e" transform="translate(63.623047 0)"/>
       <use xlink:href="#DejaVuSans-38" transform="translate(95.410156 0)"/>
      </g>
     </g>
    </g>
    <g id="ytick_13">
     <g id="line2d_49">
      <path d="M 519.479291 82.370042 
L 940.79952 82.370042 
" clip-path="url(#p7633357b51)" style="fill: none; stroke: #cccccc; stroke-opacity: 0.35; stroke-width: 0.6; stroke-linecap: round"/>
     </g>
     <g id="line2d_50"/>
     <g id="text_29">
      <!-- 1.0 -->
      <g style="fill: #262626" transform="translate(500.076166 86.169261) scale(0.1 -0.1)">
       <use xlink:href="#DejaVuSans-31"/>
       <use xlink:href="#DejaVuSans-2e" transform="translate(63.623047 0)"/>
       <use xlink:href="#DejaVuSans-30" transform="translate(95.410156 0)"/>
      </g>
     </g>
    </g>
    <g id="text_30">
     <!-- cum_E_injected $/\ (\eta\,\cdot\,$cum_E_loss$)$ -->
     <g style="fill: #262626" transform="translate(493.436166 277.627344) rotate(-90) scale(0.11 -0.11)">
      <defs>
       <path id="DejaVuSans-2f" d="M 1625 4666 
L 2156 4666 
L 531 -594 
L 0 -594 
L 1625 4666 
z
" transform="scale(0.015625)"/>
      </defs>
      <use xlink:href="#DejaVuSans-63" transform="translate(0 0.015625)"/>
      <use xlink:href="#DejaVuSans-75" transform="translate(54.980469 0.015625)"/>
      <use xlink:href="#DejaVuSans-6d" transform="translate(118.359375 0.015625)"/>
      <use xlink:href="#DejaVuSans-5f" transform="translate(215.771484 0.015625)"/>
      <use xlink:href="#DejaVuSans-45" transform="translate(265.771484 0.015625)"/>
      <use xlink:href="#DejaVuSans-5f" transform="translate(328.955078 0.015625)"/>
      <use xlink:href="#DejaVuSans-69" transform="translate(378.955078 0.015625)"/>
      <use xlink:href="#DejaVuSans-6e" transform="translate(406.738281 0.015625)"/>
      <use xlink:href="#DejaVuSans-6a" transform="translate(470.117188 0.015625)"/>
      <use xlink:href="#DejaVuSans-65" transform="translate(497.900391 0.015625)"/>
      <use xlink:href="#DejaVuSans-63" transform="translate(559.423828 0.015625)"/>
      <use xlink:href="#DejaVuSans-74" transform="translate(614.404297 0.015625)"/>
      <use xlink:href="#DejaVuSans-65" transform="translate(653.613281 0.015625)"/>
      <use xlink:href="#DejaVuSans-64" transform="translate(715.136719 0.015625)"/>
      <use xlink:href="#DejaVuSans-20" transform="translate(778.613281 0.015625)"/>
      <use xlink:href="#DejaVuSans-2f" transform="translate(810.400391 0.015625)"/>
      <use xlink:href="#DejaVuSans-28" transform="translate(876.562175 0.015625)"/>
      <use xlink:href="#DejaVuSans-Oblique-3b7" transform="translate(915.575847 0.015625)"/>
      <use xlink:href="#DejaVuSans-22c5" transform="translate(1014.672852 0.015625)"/>
      <use xlink:href="#DejaVuSans-63" transform="translate(1082.178059 0.015625)"/>
      <use xlink:href="#DejaVuSans-75" transform="translate(1137.158528 0.015625)"/>
      <use xlink:href="#DejaVuSans-6d" transform="translate(1200.537434 0.015625)"/>
      <use xlink:href="#DejaVuSans-5f" transform="translate(1297.949543 0.015625)"/>
      <use xlink:href="#DejaVuSans-45" transform="translate(1347.949543 0.015625)"/>
      <use xlink:href="#DejaVuSans-5f" transform="translate(1411.133137 0.015625)"/>
      <use xlink:href="#DejaVuSans-6c" transform="translate(1461.133137 0.015625)"/>
      <use xlink:href="#DejaVuSans-6f" transform="translate(1488.91634 0.015625)"/>
      <use xlink:href="#DejaVuSans-73" transform="translate(1550.097981 0.015625)"/>
      <use xlink:href="#DejaVuSans-73" transform="translate(1602.19759 0.015625)"/>
      <use xlink:href="#DejaVuSans-29" transform="translate(1654.2972 0.015625)"/>
     </g>
    </g>
   </g>
   <g id="patch_7">
    <path d="M 519.479291 82.370042 
L 940.79952 82.370042 
L 940.79952 46.33923 
L 519.479291 46.33923 
z
" clip-path="url(#p7633357b51)" style="fill: #d62728; opacity: 0.06; stroke: #d62728; stroke-linejoin: miter"/>
   </g>
   <g id="line2d_51">
    <path d="M 538.630211 108.532518 
L 602.466609 114.013404 
L 708.860606 122.355438 
L 815.254603 127.371836 
L 900.369801 129.974578 
L 921.648601 131.328897 
" clip-path="url(#p7633357b51)" style="fill: none; stroke: #2ca02c; stroke-width: 2.2; stroke-linecap: round"/>
    <defs>
     <path id="m0b5a7b0b35" d="M 0 3.25 
C 0.86191 3.25 1.688635 2.907559 2.298097 2.298097 
C 2.907559 1.688635 3.25 0.86191 3.25 0 
C 3.25 -0.86191 2.907559 -1.688635 2.298097 -2.298097 
C 1.688635 -2.907559 0.86191 -3.25 0 -3.25 
C -0.86191 -3.25 -1.688635 -2.907559 -2.298097 -2.298097 
C -2.907559 -1.688635 -3.25 -0.86191 -3.25 0 
C -3.25 0.86191 -2.907559 1.688635 -2.298097 2.298097 
C -1.688635 2.907559 -0.86191 3.25 0 3.25 
z
" style="stroke: #ffffff; stroke-width: 0.8"/>
    </defs>
    <g clip-path="url(#p7633357b51)">
     <use xlink:href="#m0b5a7b0b35" x="538.630211" y="108.532518" style="fill: #2ca02c; stroke: #ffffff; stroke-width: 0.8"/>
     <use xlink:href="#m0b5a7b0b35" x="602.466609" y="114.013404" style="fill: #2ca02c; stroke: #ffffff; stroke-width: 0.8"/>
     <use xlink:href="#m0b5a7b0b35" x="708.860606" y="122.355438" style="fill: #2ca02c; stroke: #ffffff; stroke-width: 0.8"/>
     <use xlink:href="#m0b5a7b0b35" x="815.254603" y="127.371836" style="fill: #2ca02c; stroke: #ffffff; stroke-width: 0.8"/>
     <use xlink:href="#m0b5a7b0b35" x="900.369801" y="129.974578" style="fill: #2ca02c; stroke: #ffffff; stroke-width: 0.8"/>
     <use xlink:href="#m0b5a7b0b35" x="921.648601" y="131.328897" style="fill: #2ca02c; stroke: #ffffff; stroke-width: 0.8"/>
    </g>
   </g>
   <g id="line2d_52">
    <path d="M 519.479291 82.370042 
L 940.79952 82.370042 
" clip-path="url(#p7633357b51)" style="fill: none; stroke-dasharray: 1.2,1.98; stroke-dashoffset: 0; stroke: #404040; stroke-width: 1.2"/>
   </g>
   <g id="patch_8">
    <path d="M 519.479291 322.575458 
L 519.479291 46.33923 
" style="fill: none; stroke: #cccccc; stroke-linejoin: miter; stroke-linecap: square"/>
   </g>
   <g id="patch_9">
    <path d="M 519.479291 322.575458 
L 940.79952 322.575458 
" style="fill: none; stroke: #cccccc; stroke-linejoin: miter; stroke-linecap: square"/>
   </g>
   <g id="text_31">
    <!-- Ratio remains $\leq 1$ for every η -->
    <g style="fill: #262626" transform="translate(622.369406 40.33923) scale(0.13 -0.13)">
     <defs>
      <path id="DejaVuSans-Bold-52" d="M 2297 2597 
Q 2675 2597 2839 2737 
Q 3003 2878 3003 3200 
Q 3003 3519 2839 3656 
Q 2675 3794 2297 3794 
L 1791 3794 
L 1791 2597 
L 2297 2597 
z
M 1791 1766 
L 1791 0 
L 588 0 
L 588 4666 
L 2425 4666 
Q 3347 4666 3776 4356 
Q 4206 4047 4206 3378 
Q 4206 2916 3982 2619 
Q 3759 2322 3309 2181 
Q 3556 2125 3751 1926 
Q 3947 1728 4147 1325 
L 4800 0 
L 3519 0 
L 2950 1159 
Q 2778 1509 2601 1637 
Q 2425 1766 2131 1766 
L 1791 1766 
z
" transform="scale(0.015625)"/>
      <path id="DejaVuSans-Bold-6d" d="M 3781 2919 
Q 3994 3244 4286 3414 
Q 4578 3584 4928 3584 
Q 5531 3584 5847 3212 
Q 6163 2841 6163 2131 
L 6163 0 
L 5038 0 
L 5038 1825 
Q 5041 1866 5042 1909 
Q 5044 1953 5044 2034 
Q 5044 2406 4934 2573 
Q 4825 2741 4581 2741 
Q 4263 2741 4089 2478 
Q 3916 2216 3909 1719 
L 3909 0 
L 2784 0 
L 2784 1825 
Q 2784 2406 2684 2573 
Q 2584 2741 2328 2741 
Q 2006 2741 1831 2477 
Q 1656 2213 1656 1722 
L 1656 0 
L 531 0 
L 531 3500 
L 1656 3500 
L 1656 2988 
Q 1863 3284 2130 3434 
Q 2397 3584 2719 3584 
Q 3081 3584 3359 3409 
Q 3638 3234 3781 2919 
z
" transform="scale(0.015625)"/>
      <path id="DejaVuSans-2264" d="M 4684 3175 
L 1684 2309 
L 4684 1453 
L 4684 897 
L 678 2047 
L 678 2578 
L 4684 3725 
L 4684 3175 
z
M 678 531 
L 4684 531 
L 4684 0 
L 678 0 
L 678 531 
z
" transform="scale(0.015625)"/>
      <path id="DejaVuSans-Bold-66" d="M 2841 4863 
L 2841 4128 
L 2222 4128 
Q 1984 4128 1890 4042 
Q 1797 3956 1797 3744 
L 1797 3500 
L 2753 3500 
L 2753 2700 
L 1797 2700 
L 1797 0 
L 678 0 
L 678 2700 
L 122 2700 
L 122 3500 
L 678 3500 
L 678 3744 
Q 678 4316 997 4589 
Q 1316 4863 1984 4863 
L 2841 4863 
z
" transform="scale(0.015625)"/>
      <path id="DejaVuSans-Bold-79" d="M 78 3500 
L 1197 3500 
L 2138 1125 
L 2938 3500 
L 4056 3500 
L 2584 -331 
Q 2363 -916 2067 -1148 
Q 1772 -1381 1288 -1381 
L 641 -1381 
L 641 -647 
L 991 -647 
Q 1275 -647 1404 -556 
Q 1534 -466 1606 -231 
L 1638 -134 
L 78 3500 
z
" transform="scale(0.015625)"/>
     </defs>
     <use xlink:href="#DejaVuSans-Bold-52" transform="translate(0 0.015625)"/>
     <use xlink:href="#DejaVuSans-Bold-61" transform="translate(77.001953 0.015625)"/>
     <use xlink:href="#DejaVuSans-Bold-74" transform="translate(144.482422 0.015625)"/>
     <use xlink:href="#DejaVuSans-Bold-69" transform="translate(192.285156 0.015625)"/>
     <use xlink:href="#DejaVuSans-Bold-6f" transform="translate(226.5625 0.015625)"/>
     <use xlink:href="#DejaVuSans-Bold-20" transform="translate(295.263672 0.015625)"/>
     <use xlink:href="#DejaVuSans-Bold-72" transform="translate(330.078125 0.015625)"/>
     <use xlink:href="#DejaVuSans-Bold-65" transform="translate(379.394531 0.015625)"/>
     <use xlink:href="#DejaVuSans-Bold-6d" transform="translate(447.216797 0.015625)"/>
     <use xlink:href="#DejaVuSans-Bold-61" transform="translate(551.416016 0.015625)"/>
     <use xlink:href="#DejaVuSans-Bold-69" transform="translate(618.896484 0.015625)"/>
     <use xlink:href="#DejaVuSans-Bold-6e" transform="translate(653.173828 0.015625)"/>
     <use xlink:href="#DejaVuSans-Bold-73" transform="translate(724.365234 0.015625)"/>
     <use xlink:href="#DejaVuSans-Bold-20" transform="translate(783.886719 0.015625)"/>
     <use xlink:href="#DejaVuSans-2264" transform="translate(838.183594 0.015625)"/>
     <use xlink:href="#DejaVuSans-31" transform="translate(941.455078 0.015625)"/>
     <use xlink:href="#DejaVuSans-Bold-20" transform="translate(1005.078125 0.015625)"/>
     <use xlink:href="#DejaVuSans-Bold-66" transform="translate(1039.892578 0.015625)"/>
     <use xlink:href="#DejaVuSans-Bold-6f" transform="translate(1083.398438 0.015625)"/>
     <use xlink:href="#DejaVuSans-Bold-72" transform="translate(1152.099609 0.015625)"/>
     <use xlink:href="#DejaVuSans-Bold-20" transform="translate(1201.416016 0.015625)"/>
     <use xlink:href="#DejaVuSans-Bold-65" transform="translate(1236.230469 0.015625)"/>
     <use xlink:href="#DejaVuSans-Bold-76" transform="translate(1304.052734 0.015625)"/>
     <use xlink:href="#DejaVuSans-Bold-65" transform="translate(1369.238281 0.015625)"/>
     <use xlink:href="#DejaVuSans-Bold-72" transform="translate(1437.060547 0.015625)"/>
     <use xlink:href="#DejaVuSans-Bold-79" transform="translate(1486.376953 0.015625)"/>
     <use xlink:href="#DejaVuSans-Bold-20" transform="translate(1551.5625 0.015625)"/>
     <use xlink:href="#DejaVuSans-Bold-3b7" transform="translate(1586.376953 0.015625)"/>
    </g>
   </g>
   <g id="legend_2">
    <g id="patch_10">
     <path d="M 525.779291 318.075458 
L 602.796791 318.075458 
Q 604.596791 318.075458 604.596791 316.275458 
L 604.596791 303.965145 
Q 604.596791 302.165145 602.796791 302.165145 
L 525.779291 302.165145 
Q 523.979291 302.165145 523.979291 303.965145 
L 523.979291 316.275458 
Q 523.979291 318.075458 525.779291 318.075458 
z
" style="fill: #ffffff; opacity: 0.85; stroke: #cccccc; stroke-linejoin: miter"/>
    </g>
    <g id="line2d_53">
     <path d="M 527.579291 309.453739 
L 536.579291 309.453739 
L 545.579291 309.453739 
" style="fill: none; stroke-dasharray: 1.2,1.98; stroke-dashoffset: 0; stroke: #404040; stroke-width: 1.2"/>
    </g>
    <g id="text_32">
     <!-- §15 ceiling -->
     <g style="fill: #262626" transform="translate(552.779291 312.603739) scale(0.09 -0.09)">
      <use xlink:href="#DejaVuSans-a7"/>
      <use xlink:href="#DejaVuSans-31" transform="translate(50 0)"/>
      <use xlink:href="#DejaVuSans-35" transform="translate(113.623047 0)"/>
      <use xlink:href="#DejaVuSans-20" transform="translate(177.246094 0)"/>
      <use xlink:href="#DejaVuSans-63" transform="translate(209.033203 0)"/>
      <use xlink:href="#DejaVuSans-65" transform="translate(264.013672 0)"/>
      <use xlink:href="#DejaVuSans-69" transform="translate(325.537109 0)"/>
      <use xlink:href="#DejaVuSans-6c" transform="translate(353.320312 0)"/>
      <use xlink:href="#DejaVuSans-69" transform="translate(381.103516 0)"/>
      <use xlink:href="#DejaVuSans-6e" transform="translate(408.886719 0)"/>
      <use xlink:href="#DejaVuSans-67" transform="translate(472.265625 0)"/>
     </g>
    </g>
   </g>
  </g>
  <g id="text_33">
   <!-- B4 — η sweep: the §15 ceiling tracks η linearly; the passive ratio stays below it -->
   <g style="fill: #262626" transform="translate(163.256322 21.437813) scale(0.14 -0.14)">
    <defs>
     <path id="DejaVuSans-Bold-42" d="M 2456 2859 
Q 2741 2859 2887 2984 
Q 3034 3109 3034 3353 
Q 3034 3594 2887 3720 
Q 2741 3847 2456 3847 
L 1791 3847 
L 1791 2859 
L 2456 2859 
z
M 2497 819 
Q 2859 819 3042 972 
Q 3225 1125 3225 1434 
Q 3225 1738 3044 1889 
Q 2863 2041 2497 2041 
L 1791 2041 
L 1791 819 
L 2497 819 
z
M 3616 2497 
Q 4003 2384 4215 2081 
Q 4428 1778 4428 1338 
Q 4428 663 3972 331 
Q 3516 0 2584 0 
L 588 0 
L 588 4666 
L 2394 4666 
Q 3366 4666 3802 4372 
Q 4238 4078 4238 3431 
Q 4238 3091 4078 2852 
Q 3919 2613 3616 2497 
z
" transform="scale(0.015625)"/>
     <path id="DejaVuSans-Bold-34" d="M 2356 3675 
L 1038 1722 
L 2356 1722 
L 2356 3675 
z
M 2156 4666 
L 3494 4666 
L 3494 1722 
L 4159 1722 
L 4159 850 
L 3494 850 
L 3494 0 
L 2356 0 
L 2356 850 
L 288 850 
L 288 1881 
L 2156 4666 
z
" transform="scale(0.015625)"/>
     <path id="DejaVuSans-Bold-2014" d="M 344 2156 
L 6056 2156 
L 6056 1350 
L 344 1350 
L 344 2156 
z
" transform="scale(0.015625)"/>
     <path id="DejaVuSans-Bold-77" d="M 225 3500 
L 1313 3500 
L 1900 1088 
L 2491 3500 
L 3425 3500 
L 4013 1113 
L 4603 3500 
L 5691 3500 
L 4769 0 
L 3547 0 
L 2956 2406 
L 2369 0 
L 1147 0 
L 225 3500 
z
" transform="scale(0.015625)"/>
     <path id="DejaVuSans-Bold-70" d="M 1656 506 
L 1656 -1331 
L 538 -1331 
L 538 3500 
L 1656 3500 
L 1656 2988 
Q 1888 3294 2169 3439 
Q 2450 3584 2816 3584 
Q 3463 3584 3878 3070 
Q 4294 2556 4294 1747 
Q 4294 938 3878 423 
Q 3463 -91 2816 -91 
Q 2450 -91 2169 54 
Q 1888 200 1656 506 
z
M 2400 2772 
Q 2041 2772 1848 2508 
Q 1656 2244 1656 1747 
Q 1656 1250 1848 986 
Q 2041 722 2400 722 
Q 2759 722 2948 984 
Q 3138 1247 3138 1747 
Q 3138 2247 2948 2509 
Q 2759 2772 2400 2772 
z
" transform="scale(0.015625)"/>
     <path id="DejaVuSans-Bold-3a" d="M 716 3500 
L 1844 3500 
L 1844 2291 
L 716 2291 
L 716 3500 
z
M 716 1209 
L 1844 1209 
L 1844 0 
L 716 0 
L 716 1209 
z
" transform="scale(0.015625)"/>
     <path id="DejaVuSans-Bold-68" d="M 4056 2131 
L 4056 0 
L 2931 0 
L 2931 347 
L 2931 1625 
Q 2931 2084 2911 2256 
Q 2891 2428 2841 2509 
Q 2775 2619 2662 2680 
Q 2550 2741 2406 2741 
Q 2056 2741 1856 2470 
Q 1656 2200 1656 1722 
L 1656 0 
L 538 0 
L 538 4863 
L 1656 4863 
L 1656 2988 
Q 1909 3294 2193 3439 
Q 2478 3584 2822 3584 
Q 3428 3584 3742 3212 
Q 4056 2841 4056 2131 
z
" transform="scale(0.015625)"/>
     <path id="DejaVuSans-Bold-6b" d="M 538 4863 
L 1656 4863 
L 1656 2216 
L 2944 3500 
L 4244 3500 
L 2534 1894 
L 4378 0 
L 3022 0 
L 1656 1459 
L 1656 0 
L 538 0 
L 538 4863 
z
" transform="scale(0.015625)"/>
     <path id="DejaVuSans-Bold-3b" d="M 716 1209 
L 1844 1209 
L 1844 256 
L 1069 -909 
L 403 -909 
L 716 256 
L 716 1209 
z
M 716 3500 
L 1844 3500 
L 1844 2291 
L 716 2291 
L 716 3500 
z
" transform="scale(0.015625)"/>
     <path id="DejaVuSans-Bold-62" d="M 2400 722 
Q 2759 722 2948 984 
Q 3138 1247 3138 1747 
Q 3138 2247 2948 2509 
Q 2759 2772 2400 2772 
Q 2041 2772 1848 2508 
Q 1656 2244 1656 1747 
Q 1656 1250 1848 986 
Q 2041 722 2400 722 
z
M 1656 2988 
Q 1888 3294 2169 3439 
Q 2450 3584 2816 3584 
Q 3463 3584 3878 3070 
Q 4294 2556 4294 1747 
Q 4294 938 3878 423 
Q 3463 -91 2816 -91 
Q 2450 -91 2169 54 
Q 1888 200 1656 506 
L 1656 0 
L 538 0 
L 538 4863 
L 1656 4863 
L 1656 2988 
z
" transform="scale(0.015625)"/>
    </defs>
    <use xlink:href="#DejaVuSans-Bold-42"/>
    <use xlink:href="#DejaVuSans-Bold-34" transform="translate(76.220703 0)"/>
    <use xlink:href="#DejaVuSans-Bold-20" transform="translate(145.800781 0)"/>
    <use xlink:href="#DejaVuSans-Bold-2014" transform="translate(180.615234 0)"/>
    <use xlink:href="#DejaVuSans-Bold-20" transform="translate(280.615234 0)"/>
    <use xlink:href="#DejaVuSans-Bold-3b7" transform="translate(315.429688 0)"/>
    <use xlink:href="#DejaVuSans-Bold-20" transform="translate(386.621094 0)"/>
    <use xlink:href="#DejaVuSans-Bold-73" transform="translate(421.435547 0)"/>
    <use xlink:href="#DejaVuSans-Bold-77" transform="translate(480.957031 0)"/>
    <use xlink:href="#DejaVuSans-Bold-65" transform="translate(573.339844 0)"/>
    <use xlink:href="#DejaVuSans-Bold-65" transform="translate(641.162109 0)"/>
    <use xlink:href="#DejaVuSans-Bold-70" transform="translate(708.984375 0)"/>
    <use xlink:href="#DejaVuSans-Bold-3a" transform="translate(780.566406 0)"/>
    <use xlink:href="#DejaVuSans-Bold-20" transform="translate(820.556641 0)"/>
    <use xlink:href="#DejaVuSans-Bold-74" transform="translate(855.371094 0)"/>
    <use xlink:href="#DejaVuSans-Bold-68" transform="translate(903.173828 0)"/>
    <use xlink:href="#DejaVuSans-Bold-65" transform="translate(974.365234 0)"/>
    <use xlink:href="#DejaVuSans-Bold-20" transform="translate(1042.1875 0)"/>
    <use xlink:href="#DejaVuSans-Bold-a7" transform="translate(1077.001953 0)"/>
    <use xlink:href="#DejaVuSans-Bold-31" transform="translate(1127.001953 0)"/>
    <use xlink:href="#DejaVuSans-Bold-35" transform="translate(1196.582031 0)"/>
    <use xlink:href="#DejaVuSans-Bold-20" transform="translate(1266.162109 0)"/>
    <use xlink:href="#DejaVuSans-Bold-63" transform="translate(1300.976562 0)"/>
    <use xlink:href="#DejaVuSans-Bold-65" transform="translate(1360.253906 0)"/>
    <use xlink:href="#DejaVuSans-Bold-69" transform="translate(1428.076172 0)"/>
    <use xlink:href="#DejaVuSans-Bold-6c" transform="translate(1462.353516 0)"/>
    <use xlink:href="#DejaVuSans-Bold-69" transform="translate(1496.630859 0)"/>
    <use xlink:href="#DejaVuSans-Bold-6e" transform="translate(1530.908203 0)"/>
    <use xlink:href="#DejaVuSans-Bold-67" transform="translate(1602.099609 0)"/>
    <use xlink:href="#DejaVuSans-Bold-20" transform="translate(1673.681641 0)"/>
    <use xlink:href="#DejaVuSans-Bold-74" transform="translate(1708.496094 0)"/>
    <use xlink:href="#DejaVuSans-Bold-72" transform="translate(1756.298828 0)"/>
    <use xlink:href="#DejaVuSans-Bold-61" transform="translate(1805.615234 0)"/>
    <use xlink:href="#DejaVuSans-Bold-63" transform="translate(1873.095703 0)"/>
    <use xlink:href="#DejaVuSans-Bold-6b" transform="translate(1932.373047 0)"/>
    <use xlink:href="#DejaVuSans-Bold-73" transform="translate(1998.876953 0)"/>
    <use xlink:href="#DejaVuSans-Bold-20" transform="translate(2058.398438 0)"/>
    <use xlink:href="#DejaVuSans-Bold-3b7" transform="translate(2093.212891 0)"/>
    <use xlink:href="#DejaVuSans-Bold-20" transform="translate(2164.404297 0)"/>
    <use xlink:href="#DejaVuSans-Bold-6c" transform="translate(2199.21875 0)"/>
    <use xlink:href="#DejaVuSans-Bold-69" transform="translate(2233.496094 0)"/>
    <use xlink:href="#DejaVuSans-Bold-6e" transform="translate(2267.773438 0)"/>
    <use xlink:href="#DejaVuSans-Bold-65" transform="translate(2338.964844 0)"/>
    <use xlink:href="#DejaVuSans-Bold-61" transform="translate(2406.787109 0)"/>
    <use xlink:href="#DejaVuSans-Bold-72" transform="translate(2474.267578 0)"/>
    <use xlink:href="#DejaVuSans-Bold-6c" transform="translate(2523.583984 0)"/>
    <use xlink:href="#DejaVuSans-Bold-79" transform="translate(2557.861328 0)"/>
    <use xlink:href="#DejaVuSans-Bold-3b" transform="translate(2623.046875 0)"/>
    <use xlink:href="#DejaVuSans-Bold-20" transform="translate(2663.037109 0)"/>
    <use xlink:href="#DejaVuSans-Bold-74" transform="translate(2697.851562 0)"/>
    <use xlink:href="#DejaVuSans-Bold-68" transform="translate(2745.654297 0)"/>
    <use xlink:href="#DejaVuSans-Bold-65" transform="translate(2816.845703 0)"/>
    <use xlink:href="#DejaVuSans-Bold-20" transform="translate(2884.667969 0)"/>
    <use xlink:href="#DejaVuSans-Bold-70" transform="translate(2919.482422 0)"/>
    <use xlink:href="#DejaVuSans-Bold-61" transform="translate(2991.064453 0)"/>
    <use xlink:href="#DejaVuSans-Bold-73" transform="translate(3058.544922 0)"/>
    <use xlink:href="#DejaVuSans-Bold-73" transform="translate(3118.066406 0)"/>
    <use xlink:href="#DejaVuSans-Bold-69" transform="translate(3177.587891 0)"/>
    <use xlink:href="#DejaVuSans-Bold-76" transform="translate(3211.865234 0)"/>
    <use xlink:href="#DejaVuSans-Bold-65" transform="translate(3277.050781 0)"/>
    <use xlink:href="#DejaVuSans-Bold-20" transform="translate(3344.873047 0)"/>
    <use xlink:href="#DejaVuSans-Bold-72" transform="translate(3379.6875 0)"/>
    <use xlink:href="#DejaVuSans-Bold-61" transform="translate(3429.003906 0)"/>
    <use xlink:href="#DejaVuSans-Bold-74" transform="translate(3496.484375 0)"/>
    <use xlink:href="#DejaVuSans-Bold-69" transform="translate(3544.287109 0)"/>
    <use xlink:href="#DejaVuSans-Bold-6f" transform="translate(3578.564453 0)"/>
    <use xlink:href="#DejaVuSans-Bold-20" transform="translate(3647.265625 0)"/>
    <use xlink:href="#DejaVuSans-Bold-73" transform="translate(3682.080078 0)"/>
    <use xlink:href="#DejaVuSans-Bold-74" transform="translate(3741.601562 0)"/>
    <use xlink:href="#DejaVuSans-Bold-61" transform="translate(3789.404297 0)"/>
    <use xlink:href="#DejaVuSans-Bold-79" transform="translate(3853.759766 0)"/>
    <use xlink:href="#DejaVuSans-Bold-73" transform="translate(3918.945312 0)"/>
    <use xlink:href="#DejaVuSans-Bold-20" transform="translate(3978.466797 0)"/>
    <use xlink:href="#DejaVuSans-Bold-62" transform="translate(4013.28125 0)"/>
    <use xlink:href="#DejaVuSans-Bold-65" transform="translate(4084.863281 0)"/>
    <use xlink:href="#DejaVuSans-Bold-6c" transform="translate(4152.685547 0)"/>
    <use xlink:href="#DejaVuSans-Bold-6f" transform="translate(4186.962891 0)"/>
    <use xlink:href="#DejaVuSans-Bold-77" transform="translate(4255.664062 0)"/>
    <use xlink:href="#DejaVuSans-Bold-20" transform="translate(4348.046875 0)"/>
    <use xlink:href="#DejaVuSans-Bold-69" transform="translate(4382.861328 0)"/>
    <use xlink:href="#DejaVuSans-Bold-74" transform="translate(4417.138672 0)"/>
   </g>
  </g>
 </g>
 <defs>
  <clipPath id="p93c92615eb">
   <rect x="54.395938" y="46.33923" width="421.320229" height="276.236228"/>
  </clipPath>
  <clipPath id="p7633357b51">
   <rect x="519.479291" y="46.33923" width="421.320229" height="276.236228"/>
  </clipPath>
 </defs>
</svg>
