{
  "accessors": [
    {
      "bufferView": 2,
      "componentType": 5126,
      "count": 3350,
      "max": [
        8.184853553771973,
        0.5259389281272888,
        1.8879395723342896
      ],
      "min": [
        -11.064215660095215,
        -0.792819082736969,
        -1.892831563949585
      ],
      "type": "VEC3"
    },
    {
      "bufferView": 2,
      "byteOffset": 40200,
      "componentType": 5126,
      "count": 3350,
      "max": [
        0.9933407306671143,
        0.9999991655349731,
        0.9996112585067749
      ],
      "min": [
        -0.9974972009658813,
        -0.9999999403953552,
        -0.9996381402015686
      ],
      "type": "VEC3"
    },
    {
      "bufferView": 3,
      "componentType": 5126,
      "count": 3350,
      "max": [
        0.9988861083984375,
        0.9963086843490601,
        0.9541741013526917,
        1.0
      ],
      "min": [
        -0.9977999329566956,
        -0.9977370500564575,
        -0.9997198581695557,
        1.0
      ],
      "type": "VEC4"
    },
    {
      "bufferView": 1,
      "componentType": 5126,
      "count": 3350,
      "max": [
        0.9764019250869751,
        0.9986231327056885
      ],
      "min": [
        0.05566897988319397,
        0.042272359132766724
      ],
      "type": "VEC2"
    },
    {
      "bufferView": 0,
      "componentType": 5125,
      "count": 19488,
      "type": "SCALAR"
    }
  ],
  "asset": {
    "extras": {
      "author": "LBOrion (https://sketchfab.com/LBOrion)",
      "license": "CC-BY-4.0 (http://creativecommons.org/licenses/by/4.0/)",
      "source": "https://sketchfab.com/3d-models/spoon-3e9888770c32430cb9385cf5779f370d",
      "title": "Spoon"
    },
    "generator": "Sketchfab-14.54.0",
    "version": "2.0"
  },
  "bufferViews": [
    {
      "buffer": 0,
      "byteLength": 77952,
      "name": "floatBufferViews",
      "target": 34963
    },
    {
      "buffer": 0,
      "byteLength": 26800,
      "byteOffset": 77952,
      "byteStride": 8,
      "name": "floatBufferViews",
      "target": 34962
    },
    {
      "buffer": 0,
      "byteLength": 80400,
      "byteOffset": 104752,
      "byteStride": 12,
      "name": "floatBufferViews",
      "target": 34962
    },
    {
      "buffer": 0,
      "byteLength": 53600,
      "byteOffset": 185152,
      "byteStride": 16,
      "name": "floatBufferViews",
      "target": 34962
    }
  ],
  "buffers": [
    {
      "byteLength": 238752,
      "uri": "scene.bin"
    }
  ],
  "images": [
    {
      "uri": "textures/Material.001_normal.png"
    }
  ],
  "materials": [
    {
      "doubleSided": true,
      "name": "Material.001",
      "normalTexture": {
        "index": 0
      },
      "pbrMetallicRoughness": {
        "baseColorFactor": [
          0.7494345424331753,
          0.7494345424331753,
          0.7494345424331753,
          1.0
        ],
        "roughnessFactor": 0.19961965598371345
      }
    }
  ],
  "meshes": [
    {
      "name": "Object_0",
      "primitives": [
        {
          "attributes": {
            "NORMAL": 1,
            "POSITION": 0,
            "TANGENT": 2,
            "TEXCOORD_0": 3
          },
          "indices": 4,
          "material": 0,
          "mode": 4
        }
      ]
    }
  ],
  "nodes": [
    {
      "children": [
        1
      ],
      "matrix": [
        1.0,
        0.0,
        0.0,
        0.0,
        0.0,
        2.220446049250313e-16,
        -1.0,
        0.0,
        0.0,
        1.0,
        2.220446049250313e-16,
        0.0,
        0.0,
        0.0,
        0.0,
        1.0
      ],
      "name": "Sketchfab_model"
    },
    {
      "children": [
        2
      ],
      "name": "root"
    },
    {
      "children": [
        3
      ],
      "matrix": [
        1.0,
        0.0,
        0.0,
        0.0,
        0.0,
        2.220446049250313e-16,
        1.0,
        0.0,
        0.0,
        -1.0,
        2.220446049250313e-16,
        0.0,
        0.0,
        0.0,
        0.0,
        1.0
      ],
      "name": "GLTF_SceneRootNode"
    },
    {
      "children": [
        4
      ],
      "matrix": [
        0.011537977494299412,
        0.0,
        0.0,
        0.0,
        0.0,
        0.011537977494299412,
        0.0,
        0.0,
        0.0,
        0.0,
        0.011537977494299412,
        0.0,
        0.0,
        0.0,
        0.0,
        1.0
      ],
      "name": "Spoon_0"
    },
    {
      "mesh": 0,
      "name": "Object_4"
    }
  ],
  "samplers": [
    {
      "magFilter": 9729,
      "minFilter": 9987,
      "wrapS": 10497,
      "wrapT": 10497
    }
  ],
  "scene": 0,
  "scenes": [
    {
      "name": "Sketchfab_Scene",
      "nodes": [
        0
      ]
    }
  ],
  "textures": [
    {
      "sampler": 0,
      "source": 0
    }
  ]
}
