{
  "accessors": [
    {
      "bufferView": 2,
      "componentType": 5126,
      "count": 748,
      "max": [
        -0.05474093556404114,
        3.812326431274414,
        0.05453716591000557
      ],
      "min": [
        -0.5876541137695313,
        0.08438360691070557,
        -0.08677160739898682
      ],
      "type": "VEC3"
    },
    {
      "bufferView": 2,
      "byteOffset": 8976,
      "componentType": 5126,
      "count": 748,
      "max": [
        1.0,
        1.0,
        1.0
      ],
      "min": [
        -1.0,
        -1.0,
        -1.0
      ],
      "type": "VEC3"
    },
    {
      "bufferView": 1,
      "componentType": 5126,
      "count": 748,
      "max": [
        0.9791963696479797,
        0.9913913011550903
      ],
      "min": [
        0.0013242065906524658,
        0.005910858511924744
      ],
      "type": "VEC2"
    },
    {
      "bufferView": 1,
      "byteOffset": 5984,
      "componentType": 5126,
      "count": 748,
      "max": [
        0.9791963696479797,
        0.9913913011550903
      ],
      "min": [
        0.0013242065906524658,
        0.005910858511924744
      ],
      "type": "VEC2"
    },
    {
      "bufferView": 1,
      "byteOffset": 11968,
      "componentType": 5126,
      "count": 748,
      "max": [
        0.9791963696479797,
        0.9913913011550903
      ],
      "min": [
        0.0013242065906524658,
        0.005910858511924744
      ],
      "type": "VEC2"
    },
    {
      "bufferView": 1,
      "byteOffset": 17952,
      "componentType": 5126,
      "count": 748,
      "max": [
        0.9791963696479797,
        0.9913913011550903
      ],
      "min": [
        0.0013242065906524658,
        0.005910858511924744
      ],
      "type": "VEC2"
    },
    {
      "bufferView": 1,
      "byteOffset": 23936,
      "componentType": 5126,
      "count": 748,
      "max": [
        0.9791963696479797,
        0.9913913011550903
      ],
      "min": [
        0.0013242065906524658,
        0.005910858511924744
      ],
      "type": "VEC2"
    },
    {
      "bufferView": 1,
      "byteOffset": 29920,
      "componentType": 5126,
      "count": 748,
      "max": [
        0.9791963696479797,
        0.9913913011550903
      ],
      "min": [
        0.0013242065906524658,
        0.005910858511924744
      ],
      "type": "VEC2"
    },
    {
      "bufferView": 1,
      "byteOffset": 35904,
      "componentType": 5126,
      "count": 748,
      "max": [
        0.9791963696479797,
        0.9913913011550903
      ],
      "min": [
        0.0013242065906524658,
        0.005910858511924744
      ],
      "type": "VEC2"
    },
    {
      "bufferView": 1,
      "byteOffset": 41888,
      "componentType": 5126,
      "count": 748,
      "max": [
        0.9791963696479797,
        0.9913913011550903
      ],
      "min": [
        0.0013242065906524658,
        0.005910858511924744
      ],
      "type": "VEC2"
    },
    {
      "bufferView": 1,
      "byteOffset": 47872,
      "componentType": 5126,
      "count": 748,
      "max": [
        0.9791963696479797,
        0.9913913011550903
      ],
      "min": [
        0.0013242065906524658,
        0.005910858511924744
      ],
      "type": "VEC2"
    },
    {
      "bufferView": 1,
      "byteOffset": 53856,
      "componentType": 5126,
      "count": 748,
      "max": [
        0.9791963696479797,
        0.9913913011550903
      ],
      "min": [
        0.0013242065906524658,
        0.005910858511924744
      ],
      "type": "VEC2"
    },
    {
      "bufferView": 0,
      "componentType": 5125,
      "count": 1992,
      "type": "SCALAR"
    }
  ],
  "asset": {
    "extras": {
      "author": "676242 (https://sketchfab.com/676242)",
      "license": "CC-BY-4.0 (http://creativecommons.org/licenses/by/4.0/)",
      "source": "https://sketchfab.com/3d-models/butter-knife-eeebbba80f9349c9b2f3469f19c3360b",
      "title": "butter knife"
    },
    "generator": "Sketchfab-16.62.0",
    "version": "2.0"
  },
  "bufferViews": [
    {
      "buffer": 0,
      "byteLength": 7968,
      "name": "floatBufferViews",
      "target": 34963
    },
    {
      "buffer": 0,
      "byteLength": 59840,
      "byteOffset": 7968,
      "byteStride": 8,
      "name": "floatBufferViews",
      "target": 34962
    },
    {
      "buffer": 0,
      "byteLength": 17952,
      "byteOffset": 67808,
      "byteStride": 12,
      "name": "floatBufferViews",
      "target": 34962
    }
  ],
  "buffers": [
    {
      "byteLength": 85760,
      "uri": "scene.bin"
    }
  ],
  "images": [
    {
      "uri": "textures/metal_baseColor.png"
    },
    {
      "uri": "textures/metal_metallicRoughness.png"
    }
  ],
  "materials": [
    {
      "doubleSided": true,
      "name": "metal",
      "pbrMetallicRoughness": {
        "baseColorTexture": {
          "index": 0
        },
        "metallicRoughnessTexture": {
          "index": 1
        }
      }
    }
  ],
  "meshes": [
    {
      "name": "knife_and_fork_final:pCube6_metal_0",
      "primitives": [
        {
          "attributes": {
            "NORMAL": 1,
            "POSITION": 0,
            "TEXCOORD_0": 2,
            "TEXCOORD_1": 3,
            "TEXCOORD_2": 4,
            "TEXCOORD_3": 5,
            "TEXCOORD_4": 6,
            "TEXCOORD_5": 7,
            "TEXCOORD_6": 8,
            "TEXCOORD_7": 9,
            "TEXCOORD_8": 10,
            "TEXCOORD_9": 11
          },
          "indices": 12,
          "material": 0,
          "mode": 4
        }
      ]
    }
  ],
  "nodes": [
    {
      "children": [
        1
      ],
      "matrix": [
        1.0,
        0.0,
        0.0,
        0.0,
        0.0,
        2.220446049250313e-16,
        -1.0,
        0.0,
        0.0,
        1.0,
        2.220446049250313e-16,
        0.0,
        0.0,
        0.0,
        0.0,
        1.0
      ],
      "name": "Sketchfab_model"
    },
    {
      "children": [
        2
      ],
      "matrix": [
        0.009999999776482582,
        0.0,
        0.0,
        0.0,
        0.0,
        0.0,
        0.009999999776482582,
        0.0,
        0.0,
        -0.009999999776482582,
        0.0,
        0.0,
        0.0,
        0.0,
        0.0,
        1.0
      ],
      "name": "knife.fbx"
    },
    {
      "children": [
        3
      ],
      "name": "RootNode"
    },
    {
      "children": [
        4
      ],
      "matrix": [
        0.0,
        0.0,
        -0.5,
        0.0,
        0.5,
        0.0,
        0.0,
        0.0,
        0.0,
        -0.5,
        0.0,
        0.0,
        -5.205809593200684,
        7.959268569946289,
        -2.038115978240967,
        1.0
      ],
      "name": "knife_and_fork_final:pCube6"
    },
    {
      "mesh": 0,
      "name": "knife_and_fork_final:pCube6_metal_0"
    }
  ],
  "samplers": [
    {
      "magFilter": 9729,
      "minFilter": 9987,
      "wrapS": 10497,
      "wrapT": 10497
    }
  ],
  "scene": 0,
  "scenes": [
    {
      "name": "Sketchfab_Scene",
      "nodes": [
        0
      ]
    }
  ],
  "textures": [
    {
      "sampler": 0,
      "source": 0
    },
    {
      "sampler": 0,
      "source": 1
    }
  ]
}
